<svg width="28" height="50" viewBox="0 0 28 50" fill="none" xmlns="http://www.w3.org/2000/svg">
<path d="M14.0001 41L27 50H1L14.0001 41Z" fill="#404040"/>
<path d="M14.2799 49L0.999999 6.40341L28 -4.76837e-07L14.2799 49Z" fill="#404040"/>
<path d="M2.20059 7.88011L2.00738 7.26335L7.42431 7.52533L7.61454 8.1326L3.31523 11.4383L3.12203 10.8215L6.7568 8.0887L6.74491 8.05075L2.20059 7.88011ZM4.16963 7.51335L4.94839 9.99934L4.42653 10.1628L3.64776 7.67684L4.16963 7.51335ZM9.40912 13.8613L9.59341 14.4496L6.3768 15.4572C6.04471 15.5612 5.72367 15.5758 5.41369 15.501C5.10579 15.4273 4.83238 15.2724 4.59347 15.0364C4.35614 14.7999 4.17778 14.4911 4.05839 14.11C3.939 13.7288 3.90929 13.3735 3.96927 13.0438C4.03083 12.7137 4.16676 12.4297 4.37707 12.1919C4.58945 11.9552 4.8617 11.7848 5.19379 11.6808L8.4104 10.6731L8.59469 11.2614L5.42552 12.2542C5.18831 12.3285 4.99354 12.4468 4.84121 12.6092C4.69046 12.771 4.59233 12.965 4.54681 13.1911C4.50337 13.4183 4.52401 13.6671 4.60872 13.9376C4.69344 14.208 4.81845 14.4241 4.98376 14.5859C5.15064 14.7473 5.34191 14.8506 5.55756 14.8959C5.77528 14.9423 6.00275 14.9284 6.23996 14.8541L9.40912 13.8613ZM9.35633 15.5222L9.8782 15.3587L11.0196 19.0023L10.4977 19.1658L10.0192 17.6381L5.68293 18.9965L5.49864 18.4082L9.83489 17.0498L9.35633 15.5222ZM12.3027 23.0983L12.487 23.6866L9.27043 24.6943C8.93833 24.7983 8.61729 24.8129 8.30731 24.7381C7.99941 24.6644 7.726 24.5095 7.48709 24.2735C7.24976 24.037 7.0714 23.7282 6.95201 23.347C6.83262 22.9659 6.80291 22.6105 6.86289 22.2809C6.92445 21.9508 7.06038 21.6668 7.27069 21.429C7.48308 21.1923 7.75532 21.0219 8.08741 20.9178L11.304 19.9102L11.4883 20.4985L8.31915 21.4913C8.08193 21.5656 7.88716 21.6839 7.73483 21.8462C7.58408 22.0081 7.48595 22.2021 7.44043 22.4282C7.397 22.6554 7.41763 22.9042 7.50234 23.1746C7.58706 23.4451 7.71207 23.6612 7.87738 23.823C8.04426 23.9843 8.23553 24.0876 8.45118 24.133C8.6689 24.1794 8.89637 24.1654 9.13358 24.0911L12.3027 23.0983ZM12.855 24.8614L13.075 25.5636L9.55958 28.4778L9.57742 28.5348L14.1272 28.9225L14.3472 29.6247L9.48907 31.1465L9.31667 30.5962L13.0077 29.4399L12.9928 29.3925L8.82623 29.0306L8.65978 28.4992L11.8752 25.8248L11.8604 25.7774L8.16933 26.9336L7.99693 26.3833L12.855 24.8614ZM15.9235 34.6565L11.0654 36.1784L10.887 35.6091L13.8721 31.7669L13.8572 31.7194L10.0429 32.9143L9.85858 32.3261L14.7167 30.8042L14.895 31.3735L11.9034 35.2282L11.9183 35.2756L15.7422 34.0777L15.9235 34.6565Z" fill="#E0BC87"/>
<path d="M15.5 45L22 0H28L15.5 45Z" fill="#E0BC87"/>
</svg>
