<svg width="30" height="30" viewBox="0 0 30 30" fill="none" xmlns="http://www.w3.org/2000/svg">
<rect x="0.5" y="0.5" width="29" height="29" rx="14.5" stroke="black"/>
<path d="M21.0599 14.3679L23.678 13.8225L23.463 14.8617C23.0591 16.8137 21.4794 18.3059 19.5076 18.598L18.8277 18.6987C18.5973 18.7329 18.3646 18.75 18.1316 18.75H11.4138C11.1522 18.75 10.891 18.7284 10.6329 18.6854L10.4211 18.6501C8.48588 18.3275 6.94806 16.8483 6.55055 14.9271L6.32201 13.8225L8.94007 14.3679C9.62769 14.5111 10.3282 14.5833 11.0306 14.5833H18.9694C19.6718 14.5833 20.3723 14.5111 21.0599 14.3679Z" stroke="black" stroke-width="0.5"/>
<path d="M8.8184 21.207L10.6897 19.3357H11.7504V20.3964L9.87906 22.2677L8.8184 21.207Z" stroke="black" stroke-width="0.5"/>
<path d="M11.5 19.5L16.5 14.5" stroke="black" stroke-width="0.5"/>
</svg>
