<svg width="30" height="30" viewBox="0 0 30 30" fill="none" xmlns="http://www.w3.org/2000/svg">
<rect width="30" height="30" rx="15" fill="#383C4C"/>
<path d="M7.458 18.698L7.346 20H4.28V11.502H4.07L4.21 10.2H7.458L7.318 11.502H5.61V14.442H7.178L7.038 15.744H5.61V18.698H7.458ZM8.92406 20H7.59406L8.35006 11.502H8.09806L8.23806 10.2H10.8001L11.6681 20H10.3381L10.1841 18.32H9.07806L8.92406 20ZM9.19006 17.018H10.0721L9.63806 12.146L9.19006 17.018ZM15.5117 18.698C15.5117 19.09 15.3904 19.4073 15.1477 19.65C14.9051 19.8833 14.5877 20 14.1957 20H13.1877C12.7957 20 12.4784 19.8833 12.2357 19.65C11.9931 19.4073 11.8717 19.09 11.8717 18.698V11.502C11.8717 11.11 11.9931 10.7973 12.2357 10.564C12.4784 10.3213 12.7957 10.2 13.1877 10.2H14.1957C14.5877 10.2 14.9051 10.3213 15.1477 10.564C15.3904 10.7973 15.5117 11.11 15.5117 11.502V13.742H14.1817V11.572C14.1817 11.5253 14.1584 11.502 14.1117 11.502H13.2717C13.2251 11.502 13.2017 11.5253 13.2017 11.572V18.628C13.2017 18.6747 13.2251 18.698 13.2717 18.698H14.1117C14.1584 18.698 14.1817 18.6747 14.1817 18.628V15.73H13.6357L13.7477 14.428H15.5117V18.698ZM19.5237 18.698L19.4117 20H16.0657V11.502H15.8557L15.9957 10.2H17.3957V18.698H19.5237ZM22.8465 18.698L22.7345 20H19.6685V11.502H19.4585L19.5985 10.2H22.8465L22.7065 11.502H20.9985V14.442H22.5665L22.4265 15.744H20.9985V18.698H22.8465ZM24.3842 17.2V18.684C24.3842 18.7307 24.4076 18.754 24.4542 18.754H25.0142C25.0609 18.754 25.0842 18.7307 25.0842 18.684V16.164L23.9782 15.674C23.8942 15.646 23.7776 15.5993 23.6282 15.534C23.4789 15.4593 23.3436 15.352 23.2222 15.212C23.1102 15.072 23.0542 14.8807 23.0542 14.638V11.446C23.0542 11.054 23.1756 10.7413 23.4182 10.508C23.6609 10.2653 23.9782 10.144 24.3702 10.144H25.0982C25.4902 10.144 25.8076 10.2653 26.0502 10.508C26.2929 10.7413 26.4142 11.054 26.4142 11.446V13.518L25.0842 13.406V11.516C25.0842 11.4693 25.0609 11.446 25.0142 11.446H24.4542C24.4076 11.446 24.3842 11.4693 24.3842 11.516V14.442L25.4902 14.932C25.5742 14.9693 25.6909 15.0207 25.8402 15.086C25.9896 15.1513 26.1202 15.254 26.2322 15.394C26.3536 15.534 26.4142 15.7253 26.4142 15.968V18.754C26.4142 19.146 26.2929 19.4633 26.0502 19.706C25.8076 19.9393 25.4902 20.056 25.0982 20.056H24.3702C23.9782 20.056 23.6609 19.9393 23.4182 19.706C23.1756 19.4633 23.0542 19.146 23.0542 18.754V17.2H24.3842Z" fill="#DFDCEA"/>
</svg>
