<svg width="120" height="120" viewBox="0 0 30 30" fill="none" xmlns="http://www.w3.org/2000/svg">
<rect x="0.5" y="0.5" width="29" height="29" rx="14.5" stroke="black"/>
<path d="M13.8237 25.5123C8.28786 21.4332 5.5902 14.5508 6.85438 7.81579H6.9964C9.81929 7.81579 12.5864 7.04432 14.9998 5.58761C17.4132 7.04432 20.1803 7.81579 23.0032 7.81579H23.1453C24.4096 14.5507 21.712 21.4332 16.1762 25.5122L14.9998 26.3789L13.8237 25.5123Z" fill="white" stroke="black"/>
<path d="M8.13606 9.30665C10.5279 9.2661 12.8777 8.67025 14.9998 7.56619C17.1221 8.6702 19.472 9.26605 21.8639 9.30664C22.1921 15.1556 19.6216 20.7876 14.9998 24.3723C10.3782 20.7875 7.80784 15.1555 8.13606 9.30665Z" fill="black" stroke="black"/>
</svg>
