<svg width="120" height="120" viewBox="0 0 30 31" fill="none" xmlns="http://www.w3.org/2000/svg">
<rect y="1" width="30" height="30" rx="15" fill="#C5D3E8"/>
<path d="M7.5 22V22C10.8321 16.2244 19.1679 16.2244 22.5 22V22" stroke="black"/>
<path d="M12.5096 17.9018V17.9018C11.5591 14.4999 12.2602 10.8491 14.4032 8.04124L14.5096 7.90183" stroke="black"/>
<path d="M14.4901 17.498L14.1445 16.261C13.4242 13.683 14.1312 10.9164 16 9V9" stroke="black"/>
<path d="M3 21L4.5 22C5.40833 22.6056 6.59167 22.6056 7.5 22V22C8.40833 21.3944 9.59167 21.3944 10.5 22V22C11.4083 22.6056 12.5917 22.6056 13.5 22V22C14.4083 21.3944 15.5917 21.3944 16.5 22V22C17.4083 22.6056 18.5917 22.6056 19.5 22V22C20.4083 21.3944 21.5917 21.3944 22.5 22V22C23.4083 22.6056 24.5917 22.6056 25.5 22L27 21" stroke="black" stroke-linecap="round"/>
<path d="M3 23L4.5 24C5.40833 24.6056 6.59167 24.6056 7.5 24V24C8.40833 23.3944 9.59167 23.3944 10.5 24V24C11.4083 24.6056 12.5917 24.6056 13.5 24V24C14.4083 23.3944 15.5917 23.3944 16.5 24V24C17.4083 24.6056 18.5917 24.6056 19.5 24V24C20.4083 23.3944 21.5917 23.3944 22.5 24V24C23.4083 24.6056 24.5917 24.6056 25.5 24L27 23" stroke="black" stroke-linecap="round"/>
<path d="M14.5 8L13.7056 7.86761C12.2722 7.62869 10.7998 7.85008 9.5 8.5V8.5" stroke="black" stroke-linecap="round"/>
<path d="M22 6.5L21.466 6.411C19.8911 6.14851 18.2773 6.54201 17 7.5V7.5" stroke="black" stroke-linecap="round"/>
<path d="M14.1855 6.46436L14.0283 6.44143C12.1643 6.16972 10.3024 6.94751 9.18555 8.46436V8.46436" stroke="black" stroke-linecap="round"/>
<path d="M22 6.5L21.8085 6.30845C20.4335 4.93352 18.3271 4.606 16.5996 5.49854V5.49854" stroke="black" stroke-linecap="round"/>
<path d="M10.2998 3.59982L10.8282 3.66591C12.4767 3.87204 13.883 4.95752 14.5 6.5V6.5" stroke="black" stroke-linecap="round"/>
<path d="M16 9L16.5345 8.9109C18.0494 8.65835 19.5788 9.27115 20.5002 10.4999V10.4999" stroke="black" stroke-linecap="round"/>
<path d="M10.1369 3.51944V3.51944C12.3168 2.3799 15.0065 3.11072 16.31 5.19672L16.4996 5.50008" stroke="black" stroke-linecap="round"/>
<path d="M17.0005 7.50015L17.5001 7.50013C19.1569 7.50006 20.5002 8.84306 20.5004 10.4999V10.4999" stroke="black" stroke-linecap="round"/>
<mask id="path-15-inside-1_1627_400" fill="white">
<path d="M17.8 8.75175C17.9009 8.92693 17.9653 9.12068 17.9893 9.32136C18.0134 9.52204 17.9967 9.72552 17.9401 9.91957C17.8836 10.1136 17.7884 10.2942 17.6603 10.4506C17.5322 10.6069 17.3739 10.7358 17.1947 10.8294C17.0156 10.923 16.8194 10.9795 16.6179 10.9954C16.4164 11.0112 16.2138 10.9862 16.0222 10.9219C15.8306 10.8575 15.654 10.755 15.503 10.6207C15.352 10.4864 15.2297 10.3229 15.1434 10.1401L15.7581 9.85006C15.8053 9.95003 15.8721 10.0394 15.9547 10.1129C16.0373 10.1864 16.1339 10.2424 16.2387 10.2776C16.3435 10.3128 16.4543 10.3265 16.5645 10.3178C16.6747 10.3091 16.782 10.2783 16.88 10.2271C16.9779 10.1759 17.0645 10.1054 17.1346 10.0199C17.2046 9.93438 17.2567 9.83559 17.2876 9.72946C17.3185 9.62334 17.3277 9.51205 17.3145 9.4023C17.3014 9.29255 17.2661 9.18659 17.211 9.09078L17.8 8.75175Z"/>
</mask>
<path d="M17.8 8.75175C17.9009 8.92693 17.9653 9.12068 17.9893 9.32136C18.0134 9.52204 17.9967 9.72552 17.9401 9.91957C17.8836 10.1136 17.7884 10.2942 17.6603 10.4506C17.5322 10.6069 17.3739 10.7358 17.1947 10.8294C17.0156 10.923 16.8194 10.9795 16.6179 10.9954C16.4164 11.0112 16.2138 10.9862 16.0222 10.9219C15.8306 10.8575 15.654 10.755 15.503 10.6207C15.352 10.4864 15.2297 10.3229 15.1434 10.1401L15.7581 9.85006C15.8053 9.95003 15.8721 10.0394 15.9547 10.1129C16.0373 10.1864 16.1339 10.2424 16.2387 10.2776C16.3435 10.3128 16.4543 10.3265 16.5645 10.3178C16.6747 10.3091 16.782 10.2783 16.88 10.2271C16.9779 10.1759 17.0645 10.1054 17.1346 10.0199C17.2046 9.93438 17.2567 9.83559 17.2876 9.72946C17.3185 9.62334 17.3277 9.51205 17.3145 9.4023C17.3014 9.29255 17.2661 9.18659 17.211 9.09078L17.8 8.75175Z" stroke="black" stroke-width="2" mask="url(#path-15-inside-1_1627_400)"/>
<mask id="path-16-inside-2_1627_400" fill="white">
<path d="M13.4755 10.6395C13.2305 10.8492 12.9243 10.9745 12.6025 10.9965C12.2807 11.0185 11.9603 10.9362 11.6889 10.7618C11.4176 10.5874 11.2097 10.3301 11.0961 10.0282C10.9825 9.72627 10.9692 9.39577 11.0583 9.08573C11.1474 8.77569 11.3341 8.50264 11.5906 8.30707C11.8472 8.11151 12.16 8.00386 12.4825 8.0001C12.8051 7.99634 13.1203 8.09667 13.3813 8.2862C13.6423 8.47573 13.8353 8.74437 13.9316 9.05224L13.283 9.25512C13.2303 9.08674 13.1247 8.93982 12.982 8.83617C12.8392 8.73251 12.6669 8.67764 12.4904 8.6797C12.314 8.68176 12.143 8.74063 12.0027 8.84758C11.8624 8.95454 11.7603 9.10387 11.7115 9.27344C11.6628 9.443 11.6701 9.62375 11.7322 9.78887C11.7943 9.954 11.908 10.0947 12.0564 10.1901C12.2048 10.2855 12.38 10.3305 12.5561 10.3184C12.7321 10.3064 12.8995 10.2379 13.0335 10.1232L13.4755 10.6395Z"/>
</mask>
<path d="M13.4755 10.6395C13.2305 10.8492 12.9243 10.9745 12.6025 10.9965C12.2807 11.0185 11.9603 10.9362 11.6889 10.7618C11.4176 10.5874 11.2097 10.3301 11.0961 10.0282C10.9825 9.72627 10.9692 9.39577 11.0583 9.08573C11.1474 8.77569 11.3341 8.50264 11.5906 8.30707C11.8472 8.11151 12.16 8.00386 12.4825 8.0001C12.8051 7.99634 13.1203 8.09667 13.3813 8.2862C13.6423 8.47573 13.8353 8.74437 13.9316 9.05224L13.283 9.25512C13.2303 9.08674 13.1247 8.93982 12.982 8.83617C12.8392 8.73251 12.6669 8.67764 12.4904 8.6797C12.314 8.68176 12.143 8.74063 12.0027 8.84758C11.8624 8.95454 11.7603 9.10387 11.7115 9.27344C11.6628 9.443 11.6701 9.62375 11.7322 9.78887C11.7943 9.954 11.908 10.0947 12.0564 10.1901C12.2048 10.2855 12.38 10.3305 12.5561 10.3184C12.7321 10.3064 12.8995 10.2379 13.0335 10.1232L13.4755 10.6395Z" stroke="black" stroke-width="2" mask="url(#path-16-inside-2_1627_400)"/>
</svg>
