<svg width="30" height="31" viewBox="0 0 30 31" fill="none" xmlns="http://www.w3.org/2000/svg">
<rect y="1" width="30" height="30" rx="15" fill="#C5D3E8"/>
<path d="M7.5 22V22C10.8321 16.2244 19.1679 16.2244 22.5 22V22" stroke="black"/>
<path d="M12.5096 17.9018V17.9018C11.5591 14.4999 12.2602 10.8491 14.4032 8.04124L14.5096 7.90183" stroke="black"/>
<path d="M14.4901 17.498L14.1445 16.261C13.4242 13.683 14.1312 10.9164 16 9V9" stroke="black"/>
<path d="M3 21L4.5 22C5.40833 22.6056 6.59167 22.6056 7.5 22V22C8.40833 21.3944 9.59167 21.3944 10.5 22V22C11.4083 22.6056 12.5917 22.6056 13.5 22V22C14.4083 21.3944 15.5917 21.3944 16.5 22V22C17.4083 22.6056 18.5917 22.6056 19.5 22V22C20.4083 21.3944 21.5917 21.3944 22.5 22V22C23.4083 22.6056 24.5917 22.6056 25.5 22L27 21" stroke="black" stroke-linecap="round"/>
<path d="M3 23L4.5 24C5.40833 24.6056 6.59167 24.6056 7.5 24V24C8.40833 23.3944 9.59167 23.3944 10.5 24V24C11.4083 24.6056 12.5917 24.6056 13.5 24V24C14.4083 23.3944 15.5917 23.3944 16.5 24V24C17.4083 24.6056 18.5917 24.6056 19.5 24V24C20.4083 23.3944 21.5917 23.3944 22.5 24V24C23.4083 24.6056 24.5917 24.6056 25.5 24L27 23" stroke="black" stroke-linecap="round"/>
<path d="M14.5 8L13.7056 7.86761C12.2722 7.62869 10.7998 7.85008 9.5 8.5V8.5" stroke="black" stroke-linecap="round"/>
<path d="M22 6.5L21.466 6.411C19.8911 6.14851 18.2773 6.54201 17 7.5V7.5" stroke="black" stroke-linecap="round"/>
<path d="M14.1855 6.46436L14.0283 6.44143C12.1643 6.16972 10.3024 6.94751 9.18555 8.46436V8.46436" stroke="black" stroke-linecap="round"/>
<path d="M22 6.5L21.8085 6.30845C20.4335 4.93352 18.3271 4.606 16.5996 5.49854V5.49854" stroke="black" stroke-linecap="round"/>
<path d="M10.2998 3.59982L10.8282 3.66591C12.4767 3.87204 13.883 4.95752 14.5 6.5V6.5" stroke="black" stroke-linecap="round"/>
<path d="M16 9L16.5345 8.9109C18.0494 8.65835 19.5788 9.27115 20.5002 10.4999V10.4999" stroke="black" stroke-linecap="round"/>
<path d="M10.1369 3.51944V3.51944C12.3168 2.3799 15.0065 3.11072 16.31 5.19672L16.4996 5.50008" stroke="black" stroke-linecap="round"/>
<path d="M17.0005 7.50015L17.5001 7.50013C19.1569 7.50006 20.5002 8.84306 20.5004 10.4999V10.4999" stroke="black" stroke-linecap="round"/>
<path d="M16.2345 9.11553L16.3136 9.08918C16.9685 8.87088 17.6594 9.30629 17.745 9.99128C17.8345 10.707 17.2189 11.3119 16.5048 11.2099L16.4223 11.1981C15.8931 11.1225 15.5 10.6693 15.5 10.1347C15.5 9.67227 15.7959 9.26175 16.2345 9.11553Z" stroke="black"/>
<path d="M12.0167 8.08666L12.0841 8.06742C12.7936 7.86468 13.5 8.39748 13.5 9.13546C13.5 9.67846 13.1074 10.1419 12.5718 10.2311L12.5028 10.2426C11.8998 10.3431 11.3295 9.93581 11.229 9.33285C11.1365 8.77758 11.4755 8.2413 12.0167 8.08666Z" stroke="black"/>
</svg>
