<svg width="30" height="30" viewBox="0 0 30 30" fill="none" xmlns="http://www.w3.org/2000/svg">
<g clip-path="url(#clip0_1635_49)">
<rect width="30" height="30" rx="15" fill="white"/>
<rect x="12" y="12" width="3" height="3" fill="black"/>
<rect x="15" y="15" width="3" height="3" fill="black"/>
<rect x="15" y="9" width="3" height="3" fill="black"/>
<rect x="18" y="12" width="3" height="3" fill="black"/>
<rect x="3" y="15" width="3" height="3" fill="black"/>
<rect x="6" y="18" width="3" height="3" fill="black"/>
<rect x="6" y="12" width="3" height="3" fill="black"/>
<rect x="9" y="15" width="3" height="3" fill="black"/>
<rect x="15" y="3" width="3" height="3" fill="black"/>
<rect x="18" y="6" width="3" height="3" fill="black"/>
<rect x="18" width="3" height="3" fill="black"/>
<rect x="21" y="3" width="3" height="3" fill="black"/>
<rect x="6" y="6" width="3" height="3" fill="black"/>
<rect x="9" y="9" width="3" height="3" fill="black"/>
<rect x="9" y="3" width="3" height="3" fill="black"/>
<rect x="12" y="6" width="3" height="3" fill="black"/>
<rect x="18" y="18" width="3" height="3" fill="black"/>
<rect x="21" y="21" width="3" height="3" fill="black"/>
<rect x="21" y="15" width="3" height="3" fill="black"/>
<rect x="24" y="18" width="3" height="3" fill="black"/>
<rect x="9" y="21" width="3" height="3" fill="black"/>
<rect x="12" y="24" width="3" height="3" fill="black"/>
<rect x="3" y="21" width="3" height="3" fill="black"/>
<rect x="6" y="24" width="3" height="3" fill="black"/>
<rect x="9" y="27" width="3" height="3" fill="black"/>
<rect x="12" y="18" width="3" height="3" fill="black"/>
<rect x="15" y="21" width="3" height="3" fill="black"/>
<rect x="15" y="27" width="3" height="3" fill="black"/>
<rect x="24" y="24" width="3" height="3" fill="black"/>
<rect x="27" y="15" width="3" height="3" fill="black"/>
<rect x="27" y="21" width="3" height="3" fill="black"/>
<rect x="18" y="24" width="3" height="3" fill="black"/>
<rect x="21" y="27" width="3" height="3" fill="black"/>
<rect x="21" y="9" width="3" height="3" fill="black"/>
<rect x="24" y="12" width="3" height="3" fill="black"/>
<rect x="24" y="6" width="3" height="3" fill="black"/>
<rect x="27" y="9" width="3" height="3" fill="black"/>
<rect x="12" width="3" height="3" fill="black"/>
<rect x="6" width="3" height="3" fill="black"/>
<rect x="3" y="3" width="3" height="3" fill="black"/>
<rect y="18" width="3" height="3" fill="black"/>
<rect y="12" width="3" height="3" fill="black"/>
<rect y="6" width="3" height="3" fill="black"/>
<rect x="3" y="9" width="3" height="3" fill="black"/>
<mask id="path-46-outside-1_1635_49" maskUnits="userSpaceOnUse" x="2" y="8" width="27" height="13" fill="black">
<rect fill="white" x="2" y="8" width="27" height="13"/>
<path d="M3.3 18V10.716H3.12L3.24 9.6H4.44V11.94L5.484 9.6H6.744L5.232 12.984L6.864 18H5.604L4.44 14.424V18H3.3ZM8.13919 18C7.77119 18 7.47519 17.896 7.25119 17.688C7.03519 17.472 6.92719 17.204 6.92719 16.884V13.116C6.92719 12.788 7.03519 12.52 7.25119 12.312C7.47519 12.104 7.77119 12 8.13919 12H8.18719C8.40319 12 8.59519 12.052 8.76319 12.156V12H9.90319V16.884H10.0712L10.1912 18H8.76319V17.532L8.46319 18H8.13919ZM8.12719 13.116C8.08719 13.116 8.06719 13.136 8.06719 13.176V16.824C8.06719 16.864 8.08719 16.884 8.12719 16.884H8.76319V13.116H8.12719ZM11.5803 18C11.2123 18 10.9163 17.896 10.6923 17.688C10.4763 17.472 10.3683 17.204 10.3683 16.884V13.116C10.3683 12.788 10.4763 12.52 10.6923 12.312C10.9163 12.104 11.2123 12 11.5803 12H11.6283C11.8443 12 12.0363 12.052 12.2043 12.156V10.716H11.9163L12.0363 9.6H13.3443V16.884H13.5123L13.6323 18H12.2043V17.532L11.9043 18H11.5803ZM11.5683 13.116C11.5283 13.116 11.5083 13.136 11.5083 13.176V16.824C11.5083 16.864 11.5283 16.884 11.5683 16.884H12.2043V13.116H11.5683ZM14.9628 18C14.5948 18 14.2988 17.896 14.0748 17.688C13.8588 17.472 13.7508 17.204 13.7508 16.884V13.116C13.7508 12.788 13.8588 12.52 14.0748 12.312C14.2988 12.104 14.5948 12 14.9628 12H15.0108C15.2268 12 15.4188 12.052 15.5868 12.156V12H16.7268V16.884H16.8948L17.0148 18H15.5868V17.532L15.2868 18H14.9628ZM14.9508 13.116C14.9108 13.116 14.8908 13.136 14.8908 13.176V16.824C14.8908 16.864 14.9108 16.884 14.9508 16.884H15.5868V13.116H14.9508ZM18.2119 18.24V18.504C18.2119 18.544 18.2319 18.564 18.2719 18.564H18.8479C18.8879 18.564 18.9079 18.544 18.9079 18.504V17.532L18.6079 18H18.2839C17.9159 18 17.6199 17.896 17.3959 17.688C17.1799 17.472 17.0719 17.204 17.0719 16.884V13.116C17.0719 12.788 17.1799 12.52 17.3959 12.312C17.6199 12.104 17.9159 12 18.2839 12H18.3319C18.5479 12 18.7399 12.052 18.9079 12.156V12H20.0479V18.48C20.0479 18.816 19.9439 19.084 19.7359 19.284C19.5279 19.492 19.2559 19.596 18.9199 19.596H18.1999C17.8639 19.596 17.5919 19.492 17.3839 19.284C17.1759 19.084 17.0719 18.816 17.0719 18.48V18.24H18.2119ZM18.2719 13.116C18.2319 13.116 18.2119 13.136 18.2119 13.176V16.824C18.2119 16.864 18.2319 16.884 18.2719 16.884H18.9079V13.116H18.2719ZM21.552 18C21.184 18 20.888 17.896 20.664 17.688C20.448 17.472 20.34 17.204 20.34 16.884V13.116C20.34 12.788 20.448 12.52 20.664 12.312C20.888 12.104 21.184 12 21.552 12H21.6C21.816 12 22.008 12.052 22.176 12.156V12H23.316V16.884H23.484L23.604 18H22.176V17.532L21.876 18H21.552ZM21.54 13.116C21.5 13.116 21.48 13.136 21.48 13.176V16.824C21.48 16.864 21.5 16.884 21.54 16.884H22.176V13.116H21.54ZM23.8905 18V13.116H23.6025L23.7225 12H25.0305V12.468L25.3305 12H25.6545C26.0225 12 26.3145 12.104 26.5305 12.312C26.7545 12.52 26.8665 12.788 26.8665 13.116V16.884H27.1665L27.0465 18H25.7265V13.176C25.7265 13.136 25.7065 13.116 25.6665 13.116H25.0305V18H23.8905Z"/>
</mask>
<path d="M3.3 18V10.716H3.12L3.24 9.6H4.44V11.94L5.484 9.6H6.744L5.232 12.984L6.864 18H5.604L4.44 14.424V18H3.3ZM8.13919 18C7.77119 18 7.47519 17.896 7.25119 17.688C7.03519 17.472 6.92719 17.204 6.92719 16.884V13.116C6.92719 12.788 7.03519 12.52 7.25119 12.312C7.47519 12.104 7.77119 12 8.13919 12H8.18719C8.40319 12 8.59519 12.052 8.76319 12.156V12H9.90319V16.884H10.0712L10.1912 18H8.76319V17.532L8.46319 18H8.13919ZM8.12719 13.116C8.08719 13.116 8.06719 13.136 8.06719 13.176V16.824C8.06719 16.864 8.08719 16.884 8.12719 16.884H8.76319V13.116H8.12719ZM11.5803 18C11.2123 18 10.9163 17.896 10.6923 17.688C10.4763 17.472 10.3683 17.204 10.3683 16.884V13.116C10.3683 12.788 10.4763 12.52 10.6923 12.312C10.9163 12.104 11.2123 12 11.5803 12H11.6283C11.8443 12 12.0363 12.052 12.2043 12.156V10.716H11.9163L12.0363 9.6H13.3443V16.884H13.5123L13.6323 18H12.2043V17.532L11.9043 18H11.5803ZM11.5683 13.116C11.5283 13.116 11.5083 13.136 11.5083 13.176V16.824C11.5083 16.864 11.5283 16.884 11.5683 16.884H12.2043V13.116H11.5683ZM14.9628 18C14.5948 18 14.2988 17.896 14.0748 17.688C13.8588 17.472 13.7508 17.204 13.7508 16.884V13.116C13.7508 12.788 13.8588 12.52 14.0748 12.312C14.2988 12.104 14.5948 12 14.9628 12H15.0108C15.2268 12 15.4188 12.052 15.5868 12.156V12H16.7268V16.884H16.8948L17.0148 18H15.5868V17.532L15.2868 18H14.9628ZM14.9508 13.116C14.9108 13.116 14.8908 13.136 14.8908 13.176V16.824C14.8908 16.864 14.9108 16.884 14.9508 16.884H15.5868V13.116H14.9508ZM18.2119 18.24V18.504C18.2119 18.544 18.2319 18.564 18.2719 18.564H18.8479C18.8879 18.564 18.9079 18.544 18.9079 18.504V17.532L18.6079 18H18.2839C17.9159 18 17.6199 17.896 17.3959 17.688C17.1799 17.472 17.0719 17.204 17.0719 16.884V13.116C17.0719 12.788 17.1799 12.52 17.3959 12.312C17.6199 12.104 17.9159 12 18.2839 12H18.3319C18.5479 12 18.7399 12.052 18.9079 12.156V12H20.0479V18.48C20.0479 18.816 19.9439 19.084 19.7359 19.284C19.5279 19.492 19.2559 19.596 18.9199 19.596H18.1999C17.8639 19.596 17.5919 19.492 17.3839 19.284C17.1759 19.084 17.0719 18.816 17.0719 18.48V18.24H18.2119ZM18.2719 13.116C18.2319 13.116 18.2119 13.136 18.2119 13.176V16.824C18.2119 16.864 18.2319 16.884 18.2719 16.884H18.9079V13.116H18.2719ZM21.552 18C21.184 18 20.888 17.896 20.664 17.688C20.448 17.472 20.34 17.204 20.34 16.884V13.116C20.34 12.788 20.448 12.52 20.664 12.312C20.888 12.104 21.184 12 21.552 12H21.6C21.816 12 22.008 12.052 22.176 12.156V12H23.316V16.884H23.484L23.604 18H22.176V17.532L21.876 18H21.552ZM21.54 13.116C21.5 13.116 21.48 13.136 21.48 13.176V16.824C21.48 16.864 21.5 16.884 21.54 16.884H22.176V13.116H21.54ZM23.8905 18V13.116H23.6025L23.7225 12H25.0305V12.468L25.3305 12H25.6545C26.0225 12 26.3145 12.104 26.5305 12.312C26.7545 12.52 26.8665 12.788 26.8665 13.116V16.884H27.1665L27.0465 18H25.7265V13.176C25.7265 13.136 25.7065 13.116 25.6665 13.116H25.0305V18H23.8905Z" fill="white"/>
<path d="M3.3 18H2.3V19H3.3V18ZM3.3 10.716H4.3V9.716H3.3V10.716ZM3.12 10.716L2.12573 10.6091L2.00671 11.716H3.12V10.716ZM3.24 9.6V8.6H2.34176L2.24573 9.49309L3.24 9.6ZM4.44 9.6H5.44V8.6H4.44V9.6ZM4.44 11.94H3.44L5.35323 12.3474L4.44 11.94ZM5.484 9.6V8.6H4.83514L4.57077 9.19256L5.484 9.6ZM6.744 9.6L7.65701 10.0079L8.28609 8.6H6.744V9.6ZM5.232 12.984L4.31899 12.5761L4.162 12.9274L4.28107 13.2934L5.232 12.984ZM6.864 18V19H8.24096L7.81493 17.6906L6.864 18ZM5.604 18L4.65311 18.3095L4.87786 19H5.604V18ZM4.44 14.424L5.39089 14.1145L3.44 14.424H4.44ZM4.44 18V19H5.44V18H4.44ZM4.3 18V10.716H2.3V18H4.3ZM3.3 9.716H3.12V11.716H3.3V9.716ZM4.11427 10.8229L4.23427 9.70691L2.24573 9.49309L2.12573 10.6091L4.11427 10.8229ZM3.24 10.6H4.44V8.6H3.24V10.6ZM3.44 9.6V11.94H5.44V9.6H3.44ZM5.35323 12.3474L6.39723 10.0074L4.57077 9.19256L3.52677 11.5326L5.35323 12.3474ZM5.484 10.6H6.744V8.6H5.484V10.6ZM5.83099 9.19206L4.31899 12.5761L6.14501 13.3919L7.65701 10.0079L5.83099 9.19206ZM4.28107 13.2934L5.91307 18.3094L7.81493 17.6906L6.18293 12.6746L4.28107 13.2934ZM6.864 17H5.604V19H6.864V17ZM6.55489 17.6905L5.39089 14.1145L3.48911 14.7335L4.65311 18.3095L6.55489 17.6905ZM3.44 14.424V18H5.44V14.424H3.44ZM4.44 17H3.3V19H4.44V17ZM7.25119 17.688L6.54408 18.3951L6.55717 18.4082L6.57074 18.4208L7.25119 17.688ZM7.25119 12.312L6.57074 11.5792L6.56408 11.5854L6.55755 11.5917L7.25119 12.312ZM8.76319 12.156L8.23683 13.0063L9.76319 13.9511V12.156H8.76319ZM8.76319 12V11H7.76319V12H8.76319ZM9.90319 12H10.9032V11H9.90319V12ZM9.90319 16.884H8.90319V17.884H9.90319V16.884ZM10.0712 16.884L11.0655 16.7771L10.9694 15.884H10.0712V16.884ZM10.1912 18V19H11.3045L11.1855 17.8931L10.1912 18ZM8.76319 18H7.76319V19H8.76319V18ZM8.76319 17.532H9.76319V14.119L7.92131 16.9923L8.76319 17.532ZM8.46319 18V19H9.00998L9.30507 18.5397L8.46319 18ZM8.76319 16.884V17.884H9.76319V16.884H8.76319ZM8.76319 13.116H9.76319V12.116H8.76319V13.116ZM8.13919 17C7.96919 17 7.93433 16.9577 7.93164 16.9552L6.57074 18.4208C7.01605 18.8343 7.57318 19 8.13919 19V17ZM7.95829 16.9809C7.93991 16.9625 7.93657 16.9534 7.93571 16.9512C7.93447 16.9482 7.92719 16.9297 7.92719 16.884H5.92719C5.92719 17.4552 6.13084 17.9819 6.54408 18.3951L7.95829 16.9809ZM7.92719 16.884V13.116H5.92719V16.884H7.92719ZM7.92719 13.116C7.92719 13.0629 7.93562 13.043 7.93571 13.0428C7.93605 13.0419 7.93603 13.042 7.93611 13.0419C7.93624 13.0417 7.93843 13.0385 7.94483 13.0323L6.55755 11.5917C6.12635 12.0069 5.92719 12.5445 5.92719 13.116H7.92719ZM7.93164 13.0448C7.93433 13.0423 7.96919 13 8.13919 13V11C7.57318 11 7.01605 11.1657 6.57074 11.5792L7.93164 13.0448ZM8.13919 13H8.18719V11H8.13919V13ZM8.18719 13C8.21441 13 8.22796 13.0032 8.23177 13.0042C8.235 13.0051 8.23568 13.0056 8.23683 13.0063L9.28954 11.3057C8.94883 11.0948 8.5712 11 8.18719 11V13ZM9.76319 12.156V12H7.76319V12.156H9.76319ZM8.76319 13H9.90319V11H8.76319V13ZM8.90319 12V16.884H10.9032V12H8.90319ZM9.90319 17.884H10.0712V15.884H9.90319V17.884ZM9.07692 16.9909L9.19692 18.1069L11.1855 17.8931L11.0655 16.7771L9.07692 16.9909ZM10.1912 17H8.76319V19H10.1912V17ZM9.76319 18V17.532H7.76319V18H9.76319ZM7.92131 16.9923L7.62131 17.4603L9.30507 18.5397L9.60507 18.0717L7.92131 16.9923ZM8.46319 17H8.13919V19H8.46319V17ZM8.12719 12.116C7.95304 12.116 7.63876 12.1602 7.37508 12.4239C7.1114 12.6876 7.06719 13.0019 7.06719 13.176H9.06719C9.06719 13.3101 9.03297 13.5944 8.78929 13.8381C8.54561 14.0818 8.26133 14.116 8.12719 14.116V12.116ZM7.06719 13.176V16.824H9.06719V13.176H7.06719ZM7.06719 16.824C7.06719 16.9981 7.1114 17.3124 7.37508 17.5761C7.63876 17.8398 7.95304 17.884 8.12719 17.884V15.884C8.26133 15.884 8.54561 15.9182 8.78929 16.1619C9.03297 16.4056 9.06719 16.6899 9.06719 16.824H7.06719ZM8.12719 17.884H8.76319V15.884H8.12719V17.884ZM9.76319 16.884V13.116H7.76319V16.884H9.76319ZM8.76319 12.116H8.12719V14.116H8.76319V12.116ZM10.6923 17.688L9.98517 18.3951L9.99826 18.4082L10.0118 18.4208L10.6923 17.688ZM10.6923 12.312L10.0118 11.5792L10.0052 11.5854L9.99864 11.5917L10.6923 12.312ZM12.2043 12.156L11.6779 13.0063L13.2043 13.9511V12.156H12.2043ZM12.2043 10.716H13.2043V9.716H12.2043V10.716ZM11.9163 10.716L10.922 10.6091L10.803 11.716H11.9163V10.716ZM12.0363 9.6V8.6H11.138L11.042 9.49309L12.0363 9.6ZM13.3443 9.6H14.3443V8.6H13.3443V9.6ZM13.3443 16.884H12.3443V17.884H13.3443V16.884ZM13.5123 16.884L14.5065 16.7771L14.4105 15.884H13.5123V16.884ZM13.6323 18V19H14.7456L14.6266 17.8931L13.6323 18ZM12.2043 18H11.2043V19H12.2043V18ZM12.2043 17.532H13.2043V14.119L11.3624 16.9923L12.2043 17.532ZM11.9043 18V19H12.4511L12.7462 18.5397L11.9043 18ZM12.2043 16.884V17.884H13.2043V16.884H12.2043ZM12.2043 13.116H13.2043V12.116H12.2043V13.116ZM11.5803 17C11.4103 17 11.3754 16.9577 11.3727 16.9552L10.0118 18.4208C10.4571 18.8343 11.0143 19 11.5803 19V17ZM11.3994 16.9809C11.381 16.9625 11.3777 16.9534 11.3768 16.9512C11.3756 16.9482 11.3683 16.9297 11.3683 16.884H9.36828C9.36828 17.4552 9.57193 17.9819 9.98517 18.3951L11.3994 16.9809ZM11.3683 16.884V13.116H9.36828V16.884H11.3683ZM11.3683 13.116C11.3683 13.0629 11.3767 13.043 11.3768 13.0428C11.3771 13.0419 11.3771 13.042 11.3772 13.0419C11.3773 13.0417 11.3795 13.0385 11.3859 13.0323L9.99864 11.5917C9.56744 12.0069 9.36828 12.5445 9.36828 13.116H11.3683ZM11.3727 13.0448C11.3754 13.0423 11.4103 13 11.5803 13V11C11.0143 11 10.4571 11.1657 10.0118 11.5792L11.3727 13.0448ZM11.5803 13H11.6283V11H11.5803V13ZM11.6283 13C11.6555 13 11.6691 13.0032 11.6729 13.0042C11.6761 13.0051 11.6768 13.0056 11.6779 13.0063L12.7306 11.3057C12.3899 11.0948 12.0123 11 11.6283 11V13ZM13.2043 12.156V10.716H11.2043V12.156H13.2043ZM12.2043 9.716H11.9163V11.716H12.2043V9.716ZM12.9105 10.8229L13.0305 9.70691L11.042 9.49309L10.922 10.6091L12.9105 10.8229ZM12.0363 10.6H13.3443V8.6H12.0363V10.6ZM12.3443 9.6V16.884H14.3443V9.6H12.3443ZM13.3443 17.884H13.5123V15.884H13.3443V17.884ZM12.518 16.9909L12.638 18.1069L14.6266 17.8931L14.5065 16.7771L12.518 16.9909ZM13.6323 17H12.2043V19H13.6323V17ZM13.2043 18V17.532H11.2043V18H13.2043ZM11.3624 16.9923L11.0624 17.4603L12.7462 18.5397L13.0462 18.0717L11.3624 16.9923ZM11.9043 17H11.5803V19H11.9043V17ZM11.5683 12.116C11.3941 12.116 11.0799 12.1602 10.8162 12.4239C10.5525 12.6876 10.5083 13.0019 10.5083 13.176H12.5083C12.5083 13.3101 12.4741 13.5944 12.2304 13.8381C11.9867 14.0818 11.7024 14.116 11.5683 14.116V12.116ZM10.5083 13.176V16.824H12.5083V13.176H10.5083ZM10.5083 16.824C10.5083 16.9981 10.5525 17.3124 10.8162 17.5761C11.0799 17.8398 11.3941 17.884 11.5683 17.884V15.884C11.7024 15.884 11.9867 15.9182 12.2304 16.1619C12.4741 16.4056 12.5083 16.6899 12.5083 16.824H10.5083ZM11.5683 17.884H12.2043V15.884H11.5683V17.884ZM13.2043 16.884V13.116H11.2043V16.884H13.2043ZM12.2043 12.116H11.5683V14.116H12.2043V12.116ZM14.0748 17.688L13.3677 18.3951L13.3808 18.4082L13.3943 18.4208L14.0748 17.688ZM14.0748 12.312L13.3943 11.5792L13.3877 11.5854L13.3811 11.5917L14.0748 12.312ZM15.5868 12.156L15.0604 13.0063L16.5868 13.9511V12.156H15.5868ZM15.5868 12V11H14.5868V12H15.5868ZM16.7268 12H17.7268V11H16.7268V12ZM16.7268 16.884H15.7268V17.884H16.7268V16.884ZM16.8948 16.884L17.889 16.7771L17.793 15.884H16.8948V16.884ZM17.0148 18V19H18.1281L18.0091 17.8931L17.0148 18ZM15.5868 18H14.5868V19H15.5868V18ZM15.5868 17.532H16.5868V14.119L14.7449 16.9923L15.5868 17.532ZM15.2868 18V19H15.8336L16.1287 18.5397L15.2868 18ZM15.5868 16.884V17.884H16.5868V16.884H15.5868ZM15.5868 13.116H16.5868V12.116H15.5868V13.116ZM14.9628 17C14.7928 17 14.7579 16.9577 14.7552 16.9552L13.3943 18.4208C13.8396 18.8343 14.3968 19 14.9628 19V17ZM14.7819 16.9809C14.7635 16.9625 14.7602 16.9534 14.7593 16.9512C14.7581 16.9482 14.7508 16.9297 14.7508 16.884H12.7508C12.7508 17.4552 12.9544 17.9819 13.3677 18.3951L14.7819 16.9809ZM14.7508 16.884V13.116H12.7508V16.884H14.7508ZM14.7508 13.116C14.7508 13.0629 14.7592 13.043 14.7593 13.0428C14.7596 13.0419 14.7596 13.042 14.7597 13.0419C14.7598 13.0417 14.762 13.0385 14.7684 13.0323L13.3811 11.5917C12.9499 12.0069 12.7508 12.5445 12.7508 13.116H14.7508ZM14.7552 13.0448C14.7579 13.0423 14.7928 13 14.9628 13V11C14.3968 11 13.8396 11.1657 13.3943 11.5792L14.7552 13.0448ZM14.9628 13H15.0108V11H14.9628V13ZM15.0108 13C15.038 13 15.0516 13.0032 15.0554 13.0042C15.0586 13.0051 15.0593 13.0056 15.0604 13.0063L16.1131 11.3057C15.7724 11.0948 15.3948 11 15.0108 11V13ZM16.5868 12.156V12H14.5868V12.156H16.5868ZM15.5868 13H16.7268V11H15.5868V13ZM15.7268 12V16.884H17.7268V12H15.7268ZM16.7268 17.884H16.8948V15.884H16.7268V17.884ZM15.9005 16.9909L16.0205 18.1069L18.0091 17.8931L17.889 16.7771L15.9005 16.9909ZM17.0148 17H15.5868V19H17.0148V17ZM16.5868 18V17.532H14.5868V18H16.5868ZM14.7449 16.9923L14.4449 17.4603L16.1287 18.5397L16.4287 18.0717L14.7449 16.9923ZM15.2868 17H14.9628V19H15.2868V17ZM14.9508 12.116C14.7766 12.116 14.4624 12.1602 14.1987 12.4239C13.935 12.6876 13.8908 13.0019 13.8908 13.176H15.8908C15.8908 13.3101 15.8566 13.5944 15.6129 13.8381C15.3692 14.0818 15.0849 14.116 14.9508 14.116V12.116ZM13.8908 13.176V16.824H15.8908V13.176H13.8908ZM13.8908 16.824C13.8908 16.9981 13.935 17.3124 14.1987 17.5761C14.4624 17.8398 14.7766 17.884 14.9508 17.884V15.884C15.0849 15.884 15.3692 15.9182 15.6129 16.1619C15.8566 16.4056 15.8908 16.6899 15.8908 16.824H13.8908ZM14.9508 17.884H15.5868V15.884H14.9508V17.884ZM16.5868 16.884V13.116H14.5868V16.884H16.5868ZM15.5868 12.116H14.9508V14.116H15.5868V12.116ZM18.2119 18.24H19.2119V17.24H18.2119V18.24ZM18.9079 17.532H19.9079V14.119L18.066 16.9923L18.9079 17.532ZM18.6079 18V19H19.1547L19.4498 18.5397L18.6079 18ZM17.3959 17.688L16.6888 18.3951L16.7019 18.4082L16.7154 18.4208L17.3959 17.688ZM17.3959 12.312L16.7154 11.5792L16.7088 11.5854L16.7022 11.5917L17.3959 12.312ZM18.9079 12.156L18.3815 13.0063L19.9079 13.9511V12.156H18.9079ZM18.9079 12V11H17.9079V12H18.9079ZM20.0479 12H21.0479V11H20.0479V12ZM19.7359 19.284L19.0428 18.5632L19.0357 18.57L19.0288 18.5769L19.7359 19.284ZM17.3839 19.284L18.091 18.5769L18.084 18.57L18.077 18.5632L17.3839 19.284ZM17.0719 18.24V17.24H16.0719V18.24H17.0719ZM18.9079 16.884V17.884H19.9079V16.884H18.9079ZM18.9079 13.116H19.9079V12.116H18.9079V13.116ZM17.2119 18.24V18.504H19.2119V18.24H17.2119ZM17.2119 18.504C17.2119 18.6781 17.2561 18.9924 17.5198 19.2561C17.7834 19.5198 18.0977 19.564 18.2719 19.564V17.564C18.406 17.564 18.6903 17.5982 18.934 17.8419C19.1777 18.0856 19.2119 18.3699 19.2119 18.504H17.2119ZM18.2719 19.564H18.8479V17.564H18.2719V19.564ZM18.8479 19.564C19.022 19.564 19.3363 19.5198 19.6 19.2561C19.8637 18.9924 19.9079 18.6781 19.9079 18.504H17.9079C17.9079 18.3699 17.9421 18.0856 18.1858 17.8419C18.4294 17.5982 18.7137 17.564 18.8479 17.564V19.564ZM19.9079 18.504V17.532H17.9079V18.504H19.9079ZM18.066 16.9923L17.766 17.4603L19.4498 18.5397L19.7498 18.0717L18.066 16.9923ZM18.6079 17H18.2839V19H18.6079V17ZM18.2839 17C18.1139 17 18.079 16.9577 18.0763 16.9552L16.7154 18.4208C17.1607 18.8343 17.7179 19 18.2839 19V17ZM18.103 16.9809C18.0846 16.9625 18.0813 16.9534 18.0804 16.9512C18.0792 16.9482 18.0719 16.9297 18.0719 16.884H16.0719C16.0719 17.4552 16.2755 17.9819 16.6888 18.3951L18.103 16.9809ZM18.0719 16.884V13.116H16.0719V16.884H18.0719ZM18.0719 13.116C18.0719 13.0629 18.0803 13.043 18.0804 13.0428C18.0807 13.0419 18.0807 13.042 18.0808 13.0419C18.0809 13.0417 18.0831 13.0385 18.0895 13.0323L16.7022 11.5917C16.271 12.0069 16.0719 12.5445 16.0719 13.116H18.0719ZM18.0763 13.0448C18.079 13.0423 18.1139 13 18.2839 13V11C17.7179 11 17.1607 11.1657 16.7154 11.5792L18.0763 13.0448ZM18.2839 13H18.3319V11H18.2839V13ZM18.3319 13C18.3591 13 18.3726 13.0032 18.3765 13.0042C18.3797 13.0051 18.3804 13.0056 18.3815 13.0063L19.4342 11.3057C19.0935 11.0948 18.7159 11 18.3319 11V13ZM19.9079 12.156V12H17.9079V12.156H19.9079ZM18.9079 13H20.0479V11H18.9079V13ZM19.0479 12V18.48H21.0479V12H19.0479ZM19.0479 18.48C19.0479 18.5448 19.038 18.5703 19.0376 18.5712C19.0373 18.572 19.0381 18.5699 19.0403 18.5665C19.0425 18.5633 19.0439 18.562 19.0428 18.5632L20.429 20.0048C20.8655 19.5851 21.0479 19.0394 21.0479 18.48H19.0479ZM19.0288 18.5769C19.0266 18.5791 19.0251 18.5803 19.0243 18.581C19.0235 18.5817 19.023 18.582 19.0229 18.5821C19.0227 18.5821 19.0225 18.5823 19.0221 18.5825C19.0217 18.5827 19.0206 18.5832 19.0187 18.5839C19.0129 18.5862 18.9843 18.596 18.9199 18.596V20.596C19.4801 20.596 20.0203 20.4138 20.443 19.9911L19.0288 18.5769ZM18.9199 18.596H18.1999V20.596H18.9199V18.596ZM18.1999 18.596C18.1354 18.596 18.1069 18.5862 18.101 18.5839C18.0991 18.5832 18.0981 18.5827 18.0977 18.5825C18.0972 18.5823 18.097 18.5821 18.0969 18.5821C18.0967 18.582 18.0963 18.5817 18.0955 18.581C18.0946 18.5803 18.0931 18.5791 18.091 18.5769L16.6768 19.9911C17.0994 20.4138 17.6397 20.596 18.1999 20.596V18.596ZM18.077 18.5632C18.0758 18.562 18.0772 18.5633 18.0794 18.5665C18.0816 18.5699 18.0824 18.572 18.0821 18.5712C18.0818 18.5703 18.0719 18.5448 18.0719 18.48H16.0719C16.0719 19.0394 16.2542 19.5851 16.6908 20.0048L18.077 18.5632ZM18.0719 18.48V18.24H16.0719V18.48H18.0719ZM17.0719 19.24H18.2119V17.24H17.0719V19.24ZM18.2719 12.116C18.0977 12.116 17.7834 12.1602 17.5198 12.4239C17.2561 12.6876 17.2119 13.0019 17.2119 13.176H19.2119C19.2119 13.3101 19.1777 13.5944 18.934 13.8381C18.6903 14.0818 18.406 14.116 18.2719 14.116V12.116ZM17.2119 13.176V16.824H19.2119V13.176H17.2119ZM17.2119 16.824C17.2119 16.9981 17.2561 17.3124 17.5198 17.5761C17.7834 17.8398 18.0977 17.884 18.2719 17.884V15.884C18.406 15.884 18.6903 15.9182 18.934 16.1619C19.1777 16.4056 19.2119 16.6899 19.2119 16.824H17.2119ZM18.2719 17.884H18.9079V15.884H18.2719V17.884ZM19.9079 16.884V13.116H17.9079V16.884H19.9079ZM18.9079 12.116H18.2719V14.116H18.9079V12.116ZM20.664 17.688L19.9569 18.3951L19.97 18.4082L19.9835 18.4208L20.664 17.688ZM20.664 12.312L19.9835 11.5792L19.9769 11.5854L19.9704 11.5917L20.664 12.312ZM22.176 12.156L21.6496 13.0063L23.176 13.9511V12.156H22.176ZM22.176 12V11H21.176V12H22.176ZM23.316 12H24.316V11H23.316V12ZM23.316 16.884H22.316V17.884H23.316V16.884ZM23.484 16.884L24.4783 16.7771L24.3822 15.884H23.484V16.884ZM23.604 18V19H24.7173L24.5983 17.8931L23.604 18ZM22.176 18H21.176V19H22.176V18ZM22.176 17.532H23.176V14.119L21.3341 16.9923L22.176 17.532ZM21.876 18V19H22.4228L22.7179 18.5397L21.876 18ZM22.176 16.884V17.884H23.176V16.884H22.176ZM22.176 13.116H23.176V12.116H22.176V13.116ZM21.552 17C21.382 17 21.3471 16.9577 21.3445 16.9552L19.9835 18.4208C20.4289 18.8343 20.986 19 21.552 19V17ZM21.3711 16.9809C21.3527 16.9625 21.3494 16.9534 21.3485 16.9512C21.3473 16.9482 21.34 16.9297 21.34 16.884H19.34C19.34 17.4552 19.5437 17.9819 19.9569 18.3951L21.3711 16.9809ZM21.34 16.884V13.116H19.34V16.884H21.34ZM21.34 13.116C21.34 13.0629 21.3484 13.043 21.3485 13.0428C21.3489 13.0419 21.3488 13.042 21.3489 13.0419C21.3491 13.0417 21.3512 13.0385 21.3576 13.0323L19.9704 11.5917C19.5392 12.0069 19.34 12.5445 19.34 13.116H21.34ZM21.3445 13.0448C21.3471 13.0423 21.382 13 21.552 13V11C20.986 11 20.4289 11.1657 19.9835 11.5792L21.3445 13.0448ZM21.552 13H21.6V11H21.552V13ZM21.6 13C21.6272 13 21.6408 13.0032 21.6446 13.0042C21.6478 13.0051 21.6485 13.0056 21.6496 13.0063L22.7024 11.3057C22.3616 11.0948 21.984 11 21.6 11V13ZM23.176 12.156V12H21.176V12.156H23.176ZM22.176 13H23.316V11H22.176V13ZM22.316 12V16.884H24.316V12H22.316ZM23.316 17.884H23.484V15.884H23.316V17.884ZM22.4897 16.9909L22.6097 18.1069L24.5983 17.8931L24.4783 16.7771L22.4897 16.9909ZM23.604 17H22.176V19H23.604V17ZM23.176 18V17.532H21.176V18H23.176ZM21.3341 16.9923L21.0341 17.4603L22.7179 18.5397L23.0179 18.0717L21.3341 16.9923ZM21.876 17H21.552V19H21.876V17ZM21.54 12.116C21.3659 12.116 21.0516 12.1602 20.7879 12.4239C20.5242 12.6876 20.48 13.0019 20.48 13.176H22.48C22.48 13.3101 22.4458 13.5944 22.2021 13.8381C21.9584 14.0818 21.6741 14.116 21.54 14.116V12.116ZM20.48 13.176V16.824H22.48V13.176H20.48ZM20.48 16.824C20.48 16.9981 20.5242 17.3124 20.7879 17.5761C21.0516 17.8398 21.3659 17.884 21.54 17.884V15.884C21.6741 15.884 21.9584 15.9182 22.2021 16.1619C22.4458 16.4056 22.48 16.6899 22.48 16.824H20.48ZM21.54 17.884H22.176V15.884H21.54V17.884ZM23.176 16.884V13.116H21.176V16.884H23.176ZM22.176 12.116H21.54V14.116H22.176V12.116ZM23.8905 18H22.8905V19H23.8905V18ZM23.8905 13.116H24.8905V12.116H23.8905V13.116ZM23.6025 13.116L22.6082 13.0091L22.4892 14.116H23.6025V13.116ZM23.7225 12V11H22.8243L22.7282 11.8931L23.7225 12ZM25.0305 12H26.0305V11H25.0305V12ZM25.0305 12.468H24.0305V15.881L25.8724 13.0077L25.0305 12.468ZM25.3305 12V11H24.7837L24.4886 11.4603L25.3305 12ZM26.5305 12.312L25.8369 13.0323L25.8434 13.0386L25.85 13.0448L26.5305 12.312ZM26.8665 16.884H25.8665V17.884H26.8665V16.884ZM27.1665 16.884L28.1608 16.9909L28.2798 15.884H27.1665V16.884ZM27.0465 18V19H27.9447L28.0408 18.1069L27.0465 18ZM25.7265 18H24.7265V19H25.7265V18ZM25.0305 13.116V12.116H24.0305V13.116H25.0305ZM25.0305 18V19H26.0305V18H25.0305ZM24.8905 18V13.116H22.8905V18H24.8905ZM23.8905 12.116H23.6025V14.116H23.8905V12.116ZM24.5968 13.2229L24.7168 12.1069L22.7282 11.8931L22.6082 13.0091L24.5968 13.2229ZM23.7225 13H25.0305V11H23.7225V13ZM24.0305 12V12.468H26.0305V12H24.0305ZM25.8724 13.0077L26.1724 12.5397L24.4886 11.4603L24.1886 11.9283L25.8724 13.0077ZM25.3305 13H25.6545V11H25.3305V13ZM25.6545 13C25.745 13 25.7937 13.0128 25.814 13.02C25.8308 13.026 25.8346 13.0302 25.8369 13.0323L27.2241 11.5917C26.7814 11.1654 26.2191 11 25.6545 11V13ZM25.85 13.0448C25.8577 13.0519 25.8604 13.0558 25.8605 13.0559C25.8607 13.0561 25.8605 13.056 25.8603 13.0555C25.8602 13.0553 25.8601 13.0551 25.86 13.0549C25.8599 13.0547 25.8598 13.0546 25.8598 13.0546C25.8598 13.0546 25.8599 13.0548 25.86 13.0551C25.8601 13.0554 25.8603 13.056 25.8606 13.0569C25.8611 13.0585 25.8619 13.0615 25.8627 13.0659C25.8644 13.0748 25.8665 13.091 25.8665 13.116H27.8665C27.8665 12.5327 27.6548 11.9914 27.211 11.5792L25.85 13.0448ZM25.8665 13.116V16.884H27.8665V13.116H25.8665ZM26.8665 17.884H27.1665V15.884H26.8665V17.884ZM26.1722 16.7771L26.0522 17.8931L28.0408 18.1069L28.1608 16.9909L26.1722 16.7771ZM27.0465 17H25.7265V19H27.0465V17ZM26.7265 18V13.176H24.7265V18H26.7265ZM26.7265 13.176C26.7265 13.0019 26.6823 12.6876 26.4186 12.4239C26.1549 12.1602 25.8406 12.116 25.6665 12.116V14.116C25.5324 14.116 25.2481 14.0818 25.0044 13.8381C24.7607 13.5944 24.7265 13.3101 24.7265 13.176H26.7265ZM25.6665 12.116H25.0305V14.116H25.6665V12.116ZM24.0305 13.116V18H26.0305V13.116H24.0305ZM25.0305 17H23.8905V19H25.0305V17Z" fill="black" mask="url(#path-46-outside-1_1635_49)"/>
</g>
<defs>
<clipPath id="clip0_1635_49">
<rect width="30" height="30" rx="15" fill="white"/>
</clipPath>
</defs>
</svg>
