<svg width="104" height="176" viewBox="0 0 26 44" fill="none" xmlns="http://www.w3.org/2000/svg">
<path d="M0 41.8828C0 41.3785 0.375536 40.9531 0.875965 40.8905L8 40H18L25.124 40.8905C25.6245 40.9531 26 41.3785 26 41.8828V44H0V41.8828Z" fill="#404040"/>
<rect x="8" y="38" width="10" height="3" fill="#404040"/>
<path d="M0 3H26L18 38H8L0 3Z" fill="#404040"/>
<path d="M10 39L2 0L6 0.5L10 39Z" fill="#9D9D9D"/>
<path d="M13 37L10.5 1H15.5L13 37Z" fill="#B79A00"/>
<path d="M16 39L20 0.5L24 0L16 39Z" fill="#A96828"/>
<path d="M2.99911 6.63636H3.62979L5.11275 10.2585H5.16389L6.64684 6.63636H7.27752V11H6.7832V7.68466H6.74059L5.37695 11H4.89968L3.53604 7.68466H3.49343V11H2.99911V6.63636ZM8.51598 11H7.962L9.56428 6.63636H10.1097L11.712 11H11.158L9.85405 7.3267H9.81996L8.51598 11ZM8.72053 9.29545H10.9535V9.7642H8.72053V9.29545ZM14.0621 6.63636H14.5906V9.75568C14.5906 10.0341 14.5394 10.2706 14.4371 10.4652C14.3349 10.6598 14.1907 10.8075 14.0046 10.9084C13.8185 11.0092 13.5991 11.0597 13.3462 11.0597C13.1076 11.0597 12.8952 11.0163 12.7092 10.9297C12.5231 10.8416 12.3768 10.7166 12.2702 10.5547C12.1637 10.3928 12.1104 10.2003 12.1104 9.97727H12.6303C12.6303 10.1009 12.6609 10.2088 12.7219 10.3011C12.7844 10.392 12.8697 10.4631 12.9776 10.5142C13.0856 10.5653 13.2085 10.5909 13.3462 10.5909C13.4982 10.5909 13.6275 10.5589 13.734 10.495C13.8406 10.4311 13.9215 10.3374 13.9769 10.2138C14.0337 10.0888 14.0621 9.93608 14.0621 9.75568V6.63636ZM19.3313 8.81818C19.3313 9.27841 19.2482 9.67614 19.082 10.0114C18.9158 10.3466 18.6879 10.6051 18.3981 10.7869C18.1083 10.9688 17.7773 11.0597 17.4052 11.0597C17.033 11.0597 16.7021 10.9688 16.4123 10.7869C16.1225 10.6051 15.8945 10.3466 15.7283 10.0114C15.5621 9.67614 15.479 9.27841 15.479 8.81818C15.479 8.35795 15.5621 7.96023 15.7283 7.625C15.8945 7.28977 16.1225 7.03125 16.4123 6.84943C16.7021 6.66761 17.033 6.5767 17.4052 6.5767C17.7773 6.5767 18.1083 6.66761 18.3981 6.84943C18.6879 7.03125 18.9158 7.28977 19.082 7.625C19.2482 7.96023 19.3313 8.35795 19.3313 8.81818ZM18.82 8.81818C18.82 8.44034 18.7567 8.12145 18.6303 7.86151C18.5053 7.60156 18.3356 7.40483 18.1211 7.27131C17.908 7.13778 17.6694 7.07102 17.4052 7.07102C17.141 7.07102 16.9016 7.13778 16.6871 7.27131C16.4741 7.40483 16.3043 7.60156 16.1779 7.86151C16.0529 8.12145 15.9904 8.44034 15.9904 8.81818C15.9904 9.19602 16.0529 9.51491 16.1779 9.77486C16.3043 10.0348 16.4741 10.2315 16.6871 10.3651C16.9016 10.4986 17.141 10.5653 17.4052 10.5653C17.6694 10.5653 17.908 10.4986 18.1211 10.3651C18.3356 10.2315 18.5053 10.0348 18.6303 9.77486C18.7567 9.51491 18.82 9.19602 18.82 8.81818ZM20.2198 11V6.63636H21.6942C22.0352 6.63636 22.315 6.6946 22.5337 6.81108C22.7525 6.92614 22.9144 7.08452 23.0195 7.28622C23.1246 7.48793 23.1772 7.71733 23.1772 7.97443C23.1772 8.23153 23.1246 8.45952 23.0195 8.65838C22.9144 8.85724 22.7532 9.01349 22.5359 9.12713C22.3185 9.23935 22.0408 9.29545 21.7028 9.29545H20.5096V8.81818H21.6857C21.9187 8.81818 22.1062 8.78409 22.2482 8.71591C22.3917 8.64773 22.4954 8.55114 22.5593 8.42614C22.6246 8.29972 22.6573 8.14915 22.6573 7.97443C22.6573 7.79972 22.6246 7.64702 22.5593 7.51634C22.494 7.38565 22.3896 7.2848 22.2461 7.21378C22.1026 7.14134 21.913 7.10511 21.6772 7.10511H20.7482V11H20.2198ZM22.2738 9.03977L23.3477 11H22.734L21.6772 9.03977H22.2738Z" fill="white"/>
</svg>
