<svg width="30" height="30" viewBox="0 0 30 30" fill="none" xmlns="http://www.w3.org/2000/svg">
<rect width="30" height="30" rx="15" fill="#383C4C"/>
<path d="M14.72 21.864C14.72 22.536 14.512 23.08 14.096 23.496C13.68 23.896 13.136 24.096 12.464 24.096H10.736C10.064 24.096 9.52 23.896 9.104 23.496C8.688 23.08 8.48 22.536 8.48 21.864V9.336C8.48 8.664 8.688 8.128 9.104 7.728C9.52 7.312 10.064 7.104 10.736 7.104H12.464C13.136 7.104 13.68 7.312 14.096 7.728C14.512 8.128 14.72 8.664 14.72 9.336V21.864ZM10.88 9.336C10.8 9.336 10.76 9.376 10.76 9.456V21.744C10.76 21.824 10.8 21.864 10.88 21.864H12.32C12.4 21.864 12.44 21.824 12.44 21.744V9.456C12.44 9.376 12.4 9.336 12.32 9.336H10.88ZM21.5553 21.768C21.5553 22.44 21.3473 22.984 20.9313 23.4C20.5153 23.8 19.9713 24 19.2993 24H17.5713C16.8993 24 16.3553 23.8 15.9393 23.4C15.5233 22.984 15.3153 22.44 15.3153 21.768V9.432C15.3153 8.76 15.5233 8.224 15.9393 7.824C16.3553 7.408 16.8993 7.2 17.5713 7.2H19.2993C19.9713 7.2 20.5153 7.408 20.9313 7.824C21.3473 8.224 21.5553 8.76 21.5553 9.432V13.272H19.2753V9.552C19.2753 9.472 19.2353 9.432 19.1553 9.432H17.7153C17.6353 9.432 17.5953 9.472 17.5953 9.552V21.648C17.5953 21.728 17.6353 21.768 17.7153 21.768H19.1553C19.2353 21.768 19.2753 21.728 19.2753 21.648V16.68H18.3393L18.5313 14.448H21.5553V21.768Z" fill="#DFDCEA"/>
</svg>
