<svg width="30" height="30" viewBox="0 0 30 30" fill="none" xmlns="http://www.w3.org/2000/svg">
<rect width="30" height="30" rx="15" fill="#6180BC"/>
<path d="M24.7154 7.64821C25.0807 8.11783 25.2379 8.76278 25.1519 9.58198C25.0655 10.4046 24.7356 11.3704 24.1681 12.4212C23.0337 14.5215 20.9964 16.8755 18.3133 18.9625C15.6302 21.0495 12.8473 22.4449 10.5324 23.0275C9.37427 23.319 8.35695 23.4011 7.53839 23.2823C6.72322 23.1641 6.13678 22.8531 5.77149 22.3835C5.40621 21.9138 5.24906 21.2689 5.33505 20.4497C5.42139 19.6271 5.75131 18.6612 6.31885 17.6104C7.45322 15.5101 9.49055 13.1562 12.1736 11.0692C14.8567 8.9822 17.6396 7.5868 19.9545 7.00417C21.1127 6.71267 22.13 6.63058 22.9485 6.74932C23.7637 6.86757 24.3501 7.1786 24.7154 7.64821Z" stroke="black"/>
<mask id="path-3-inside-1_1627_328" fill="white">
<path d="M11.4805 18.1387C10.9777 17.0762 10.8653 15.8706 11.1631 14.7334C11.4608 13.5963 12.1497 12.6004 13.1087 11.9207C14.0677 11.241 15.2356 10.9209 16.4071 11.0166C17.5787 11.1123 18.6791 11.6177 19.515 12.4441L18.7412 13.2269C18.0893 12.5825 17.2311 12.1883 16.3175 12.1137C15.4039 12.0391 14.4931 12.2887 13.7452 12.8188C12.9974 13.3489 12.4601 14.1255 12.2279 15.0123C11.9957 15.899 12.0834 16.8393 12.4755 17.6679L11.4805 18.1387Z"/>
</mask>
<path d="M11.4805 18.1387C10.9777 17.0762 10.8653 15.8706 11.1631 14.7334C11.4608 13.5963 12.1497 12.6004 13.1087 11.9207C14.0677 11.241 15.2356 10.9209 16.4071 11.0166C17.5787 11.1123 18.6791 11.6177 19.515 12.4441L18.7412 13.2269C18.0893 12.5825 17.2311 12.1883 16.3175 12.1137C15.4039 12.0391 14.4931 12.2887 13.7452 12.8188C12.9974 13.3489 12.4601 14.1255 12.2279 15.0123C11.9957 15.899 12.0834 16.8393 12.4755 17.6679L11.4805 18.1387Z" stroke="black" stroke-width="2" mask="url(#path-3-inside-1_1627_328)"/>
<mask id="path-4-inside-2_1627_328" fill="white">
<path d="M13.2623 17.2268C12.977 16.5901 12.9225 15.8737 13.1083 15.2012C13.2941 14.5286 13.7085 13.9418 14.2803 13.5418C14.852 13.1418 15.5453 12.9537 16.2408 13.0097C16.9364 13.0657 17.5906 13.3624 18.091 13.8487L17.3336 14.628C17.0144 14.3178 16.5972 14.1286 16.1536 14.0928C15.71 14.0571 15.2679 14.1771 14.9032 14.4322C14.5386 14.6873 14.2742 15.0616 14.1557 15.4905C14.0372 15.9195 14.072 16.3763 14.254 16.7824L13.2623 17.2268Z"/>
</mask>
<path d="M13.2623 17.2268C12.977 16.5901 12.9225 15.8737 13.1083 15.2012C13.2941 14.5286 13.7085 13.9418 14.2803 13.5418C14.852 13.1418 15.5453 12.9537 16.2408 13.0097C16.9364 13.0657 17.5906 13.3624 18.091 13.8487L17.3336 14.628C17.0144 14.3178 16.5972 14.1286 16.1536 14.0928C15.71 14.0571 15.2679 14.1771 14.9032 14.4322C14.5386 14.6873 14.2742 15.0616 14.1557 15.4905C14.0372 15.9195 14.072 16.3763 14.254 16.7824L13.2623 17.2268Z" stroke="black" stroke-width="2" mask="url(#path-4-inside-2_1627_328)"/>
<path d="M9 19L10.2453 18.6099C14.7822 17.1886 18.6203 14.1159 21 10V10" stroke="black" stroke-linecap="round"/>
<path d="M14 12L6 2" stroke="black" stroke-linecap="round"/>
<path d="M12 13.0001L3.50044 4" stroke="black" stroke-linecap="round"/>
<path d="M27.4998 25.9998L19.4997 18.0003" stroke="black" stroke-linecap="round"/>
<path d="M25 28L18 19.5" stroke="black" stroke-linecap="round"/>
</svg>
