<svg width="30" height="30" viewBox="0 0 30 30" fill="none" xmlns="http://www.w3.org/2000/svg">
<rect width="30" height="30" rx="15" fill="black"/>
<path d="M6.91477 18.7273C6.8892 18.5114 6.78551 18.3438 6.60369 18.2244C6.42188 18.1051 6.19886 18.0455 5.93466 18.0455C5.74148 18.0455 5.57244 18.0767 5.42756 18.1392C5.28409 18.2017 5.17188 18.2876 5.09091 18.397C5.01136 18.5064 4.97159 18.6307 4.97159 18.7699C4.97159 18.8864 4.99929 18.9865 5.05469 19.0703C5.11151 19.1527 5.18395 19.2216 5.27202 19.277C5.36009 19.331 5.45241 19.3757 5.54901 19.4112C5.6456 19.4453 5.73438 19.473 5.81534 19.4943L6.25852 19.6136C6.37216 19.6435 6.49858 19.6847 6.63778 19.7372C6.77841 19.7898 6.91264 19.8615 7.04048 19.9524C7.16974 20.0419 7.27628 20.157 7.36009 20.2976C7.44389 20.4382 7.4858 20.6108 7.4858 20.8153C7.4858 21.0511 7.42401 21.2642 7.30043 21.4545C7.17827 21.6449 6.99929 21.7962 6.76349 21.9084C6.52912 22.0206 6.24432 22.0767 5.90909 22.0767C5.59659 22.0767 5.32599 22.0263 5.0973 21.9254C4.87003 21.8246 4.69105 21.6839 4.56037 21.5036C4.43111 21.3232 4.35795 21.1136 4.34091 20.875H4.88636C4.90057 21.0398 4.95597 21.1761 5.05256 21.2841C5.15057 21.3906 5.27415 21.4702 5.4233 21.5227C5.57386 21.5739 5.7358 21.5994 5.90909 21.5994C6.1108 21.5994 6.2919 21.5668 6.45241 21.5014C6.61293 21.4347 6.74006 21.3423 6.83381 21.2244C6.92756 21.1051 6.97443 20.9659 6.97443 20.8068C6.97443 20.6619 6.93395 20.544 6.85298 20.4531C6.77202 20.3622 6.66548 20.2884 6.53338 20.2315C6.40128 20.1747 6.25852 20.125 6.10511 20.0824L5.56818 19.929C5.22727 19.831 4.95739 19.6911 4.75852 19.5092C4.55966 19.3274 4.46023 19.0895 4.46023 18.7955C4.46023 18.5511 4.52628 18.3381 4.65838 18.1562C4.7919 17.973 4.97088 17.831 5.19531 17.7301C5.42116 17.6278 5.6733 17.5767 5.9517 17.5767C6.23295 17.5767 6.48295 17.6271 6.7017 17.728C6.92045 17.8274 7.09375 17.9638 7.22159 18.1371C7.35085 18.3104 7.41903 18.5071 7.42614 18.7273H6.91477ZM9.65856 22.0682C9.34322 22.0682 9.0712 21.9986 8.84251 21.8594C8.61523 21.7188 8.43981 21.5227 8.31623 21.2713C8.19407 21.0185 8.13299 20.7244 8.13299 20.3892C8.13299 20.054 8.19407 19.7585 8.31623 19.5028C8.43981 19.2457 8.61168 19.0455 8.83185 18.902C9.05344 18.7571 9.31197 18.6847 9.60742 18.6847C9.77788 18.6847 9.9462 18.7131 10.1124 18.7699C10.2786 18.8267 10.4299 18.919 10.5662 19.0469C10.7026 19.1733 10.8113 19.3409 10.8922 19.5497C10.9732 19.7585 11.0137 20.0156 11.0137 20.321V20.5341H8.49094V20.0994H10.5023C10.5023 19.9148 10.4654 19.75 10.3915 19.6051C10.3191 19.4602 10.2154 19.3459 10.0804 19.2621C9.94691 19.1783 9.78924 19.1364 9.60742 19.1364C9.40714 19.1364 9.23384 19.1861 9.08754 19.2855C8.94265 19.3835 8.83114 19.5114 8.75302 19.669C8.67489 19.8267 8.63583 19.9957 8.63583 20.1761V20.4659C8.63583 20.7131 8.67844 20.9226 8.76367 21.0945C8.85032 21.2649 8.97035 21.3949 9.12376 21.4844C9.27717 21.5724 9.45543 21.6165 9.65856 21.6165C9.79066 21.6165 9.90998 21.598 10.0165 21.5611C10.1245 21.5227 10.2175 21.4659 10.2956 21.3906C10.3738 21.3139 10.4341 21.2187 10.4767 21.1051L10.9625 21.2415C10.9114 21.4062 10.8255 21.5511 10.7047 21.6761C10.584 21.7997 10.4348 21.8963 10.2573 21.9659C10.0797 22.0341 9.88015 22.0682 9.65856 22.0682ZM11.7786 22V18.7273H12.2644V19.2386H12.307C12.3752 19.0639 12.4853 18.9283 12.6373 18.8317C12.7892 18.7337 12.9718 18.6847 13.1848 18.6847C13.4007 18.6847 13.5804 18.7337 13.7239 18.8317C13.8688 18.9283 13.9817 19.0639 14.0627 19.2386H14.0968C14.1806 19.0696 14.3063 18.9354 14.4739 18.8359C14.6415 18.7351 14.8425 18.6847 15.0769 18.6847C15.3695 18.6847 15.6088 18.7763 15.7949 18.9595C15.981 19.1413 16.074 19.4247 16.074 19.8097V22H15.5712V19.8097C15.5712 19.5682 15.5051 19.3956 15.373 19.2919C15.2409 19.1882 15.0854 19.1364 14.9064 19.1364C14.6763 19.1364 14.498 19.206 14.3716 19.3452C14.2452 19.483 14.182 19.6577 14.182 19.8693V22H13.6706V19.7585C13.6706 19.5724 13.6103 19.4226 13.4895 19.3089C13.3688 19.1939 13.2132 19.1364 13.0229 19.1364C12.8922 19.1364 12.7701 19.1712 12.6564 19.2408C12.5442 19.3104 12.4533 19.407 12.3837 19.5305C12.3155 19.6527 12.2814 19.794 12.2814 19.9545V22H11.7786ZM16.9934 23.2273V18.7273H17.4792V19.2472H17.5389C17.5758 19.1903 17.627 19.1179 17.6923 19.0298C17.7591 18.9403 17.8542 18.8608 17.9778 18.7912C18.1028 18.7202 18.2718 18.6847 18.4849 18.6847C18.7605 18.6847 19.0034 18.7536 19.2136 18.8913C19.4238 19.0291 19.5879 19.2244 19.7058 19.4773C19.8237 19.7301 19.8826 20.0284 19.8826 20.3722C19.8826 20.7188 19.8237 21.0192 19.7058 21.2734C19.5879 21.5263 19.4245 21.7223 19.2157 21.8615C19.0069 21.9993 18.7662 22.0682 18.4934 22.0682C18.2832 22.0682 18.1149 22.0334 17.9885 21.9638C17.862 21.8928 17.7647 21.8125 17.6966 21.723C17.6284 21.6321 17.5758 21.5568 17.5389 21.4972H17.4963V23.2273H16.9934ZM17.4877 20.3636C17.4877 20.6108 17.524 20.8288 17.5964 21.0178C17.6689 21.2053 17.7747 21.3523 17.9139 21.4588C18.0531 21.5639 18.2235 21.6165 18.4252 21.6165C18.6355 21.6165 18.8109 21.5611 18.9515 21.4503C19.0936 21.3381 19.2001 21.1875 19.2711 20.9986C19.3436 20.8082 19.3798 20.5966 19.3798 20.3636C19.3798 20.1335 19.3443 19.9261 19.2733 19.7415C19.2037 19.5554 19.0978 19.4084 18.9558 19.3004C18.8152 19.1911 18.6383 19.1364 18.4252 19.1364C18.2207 19.1364 18.0488 19.1882 17.9096 19.2919C17.7704 19.3942 17.6653 19.5376 17.5943 19.7223C17.5233 19.9055 17.4877 20.1193 17.4877 20.3636ZM20.6497 22V18.7273H21.1355V19.2216H21.1696C21.2292 19.0597 21.3372 18.9283 21.4934 18.8274C21.6497 18.7266 21.8258 18.6761 22.0218 18.6761C22.0588 18.6761 22.1049 18.6768 22.1603 18.6783C22.2157 18.6797 22.2576 18.6818 22.286 18.6847V19.196C22.269 19.1918 22.2299 19.1854 22.1689 19.1768C22.1092 19.1669 22.046 19.1619 21.9792 19.1619C21.8201 19.1619 21.6781 19.1953 21.5531 19.2621C21.4295 19.3274 21.3315 19.4183 21.2591 19.5348C21.188 19.6499 21.1525 19.7812 21.1525 19.929V22H20.6497ZM23.8452 22.0767C23.6378 22.0767 23.4496 22.0376 23.2805 21.9595C23.1115 21.88 22.9773 21.7656 22.8778 21.6165C22.7784 21.4659 22.7287 21.2841 22.7287 21.071C22.7287 20.8835 22.7656 20.7315 22.8395 20.6151C22.9134 20.4972 23.0121 20.4048 23.1357 20.3381C23.2592 20.2713 23.3956 20.2216 23.5447 20.1889C23.6953 20.1548 23.8466 20.1278 23.9986 20.108C24.1974 20.0824 24.3587 20.0632 24.4822 20.0504C24.6072 20.0362 24.6982 20.0128 24.755 19.9801C24.8132 19.9474 24.8423 19.8906 24.8423 19.8097V19.7926C24.8423 19.5824 24.7848 19.419 24.6697 19.3026C24.5561 19.1861 24.3835 19.1278 24.152 19.1278C23.9119 19.1278 23.7237 19.1804 23.5874 19.2855C23.451 19.3906 23.3551 19.5028 23.2997 19.6222L22.8224 19.4517C22.9077 19.2528 23.0213 19.098 23.1634 18.9872C23.3068 18.875 23.4631 18.7969 23.6321 18.7528C23.8026 18.7074 23.9702 18.6847 24.1349 18.6847C24.2401 18.6847 24.3608 18.6974 24.4972 18.723C24.6349 18.7472 24.7678 18.7976 24.8956 18.8743C25.0249 18.951 25.1321 19.0668 25.2173 19.2216C25.3026 19.3764 25.3452 19.5838 25.3452 19.8438V22H24.8423V21.5568H24.8168C24.7827 21.6278 24.7259 21.7038 24.6463 21.7848C24.5668 21.8658 24.4609 21.9347 24.3288 21.9915C24.1967 22.0483 24.0355 22.0767 23.8452 22.0767ZM23.9219 21.625C24.1207 21.625 24.2884 21.5859 24.4247 21.5078C24.5625 21.4297 24.6662 21.3288 24.7358 21.2053C24.8068 21.0817 24.8423 20.9517 24.8423 20.8153V20.3551C24.821 20.3807 24.7741 20.4041 24.7017 20.4254C24.6307 20.4453 24.5483 20.4631 24.4545 20.4787C24.3622 20.4929 24.272 20.5057 24.1839 20.517C24.0973 20.527 24.027 20.5355 23.973 20.5426C23.8423 20.5597 23.7202 20.5874 23.6065 20.6257C23.4943 20.6626 23.4034 20.7187 23.3338 20.794C23.2656 20.8679 23.2315 20.9687 23.2315 21.0966C23.2315 21.2713 23.2962 21.4034 23.4254 21.4929C23.5561 21.581 23.7216 21.625 23.9219 21.625Z" fill="#FFF500"/>
<g filter="url(#filter0_d_1639_324)">
<path d="M15 16L15 2" stroke="#F2E901" stroke-linecap="round"/>
</g>
<g filter="url(#filter1_d_1639_324)">
<path d="M12 16L9.5 3.5" stroke="#F2E901" stroke-linecap="round"/>
</g>
<g filter="url(#filter2_d_1639_324)">
<path d="M8.99999 16L5 7" stroke="#F2E901" stroke-linecap="round"/>
</g>
<g filter="url(#filter3_d_1639_324)">
<path d="M18 16L20.5 3.5" stroke="#F2E901" stroke-linecap="round"/>
</g>
<g filter="url(#filter4_d_1639_324)">
<path d="M21 16L25 7" stroke="#F2E901" stroke-linecap="round"/>
</g>
<defs>
<filter id="filter0_d_1639_324" x="10.5" y="1.5" width="9" height="23" filterUnits="userSpaceOnUse" color-interpolation-filters="sRGB">
<feFlood flood-opacity="0" result="BackgroundImageFix"/>
<feColorMatrix in="SourceAlpha" type="matrix" values="0 0 0 0 0 0 0 0 0 0 0 0 0 0 0 0 0 0 127 0" result="hardAlpha"/>
<feOffset dy="4"/>
<feGaussianBlur stdDeviation="2"/>
<feComposite in2="hardAlpha" operator="out"/>
<feColorMatrix type="matrix" values="0 0 0 0 0 0 0 0 0 0 0 0 0 0 0 0 0 0 0.25 0"/>
<feBlend mode="normal" in2="BackgroundImageFix" result="effect1_dropShadow_1639_324"/>
<feBlend mode="normal" in="SourceGraphic" in2="effect1_dropShadow_1639_324" result="shape"/>
</filter>
<filter id="filter1_d_1639_324" x="5" y="3" width="11.5" height="21.5" filterUnits="userSpaceOnUse" color-interpolation-filters="sRGB">
<feFlood flood-opacity="0" result="BackgroundImageFix"/>
<feColorMatrix in="SourceAlpha" type="matrix" values="0 0 0 0 0 0 0 0 0 0 0 0 0 0 0 0 0 0 127 0" result="hardAlpha"/>
<feOffset dy="4"/>
<feGaussianBlur stdDeviation="2"/>
<feComposite in2="hardAlpha" operator="out"/>
<feColorMatrix type="matrix" values="0 0 0 0 0 0 0 0 0 0 0 0 0 0 0 0 0 0 0.25 0"/>
<feBlend mode="normal" in2="BackgroundImageFix" result="effect1_dropShadow_1639_324"/>
<feBlend mode="normal" in="SourceGraphic" in2="effect1_dropShadow_1639_324" result="shape"/>
</filter>
<filter id="filter2_d_1639_324" x="0.5" y="6.5" width="13" height="18" filterUnits="userSpaceOnUse" color-interpolation-filters="sRGB">
<feFlood flood-opacity="0" result="BackgroundImageFix"/>
<feColorMatrix in="SourceAlpha" type="matrix" values="0 0 0 0 0 0 0 0 0 0 0 0 0 0 0 0 0 0 127 0" result="hardAlpha"/>
<feOffset dy="4"/>
<feGaussianBlur stdDeviation="2"/>
<feComposite in2="hardAlpha" operator="out"/>
<feColorMatrix type="matrix" values="0 0 0 0 0 0 0 0 0 0 0 0 0 0 0 0 0 0 0.25 0"/>
<feBlend mode="normal" in2="BackgroundImageFix" result="effect1_dropShadow_1639_324"/>
<feBlend mode="normal" in="SourceGraphic" in2="effect1_dropShadow_1639_324" result="shape"/>
</filter>
<filter id="filter3_d_1639_324" x="13.5" y="3" width="11.5" height="21.5" filterUnits="userSpaceOnUse" color-interpolation-filters="sRGB">
<feFlood flood-opacity="0" result="BackgroundImageFix"/>
<feColorMatrix in="SourceAlpha" type="matrix" values="0 0 0 0 0 0 0 0 0 0 0 0 0 0 0 0 0 0 127 0" result="hardAlpha"/>
<feOffset dy="4"/>
<feGaussianBlur stdDeviation="2"/>
<feComposite in2="hardAlpha" operator="out"/>
<feColorMatrix type="matrix" values="0 0 0 0 0 0 0 0 0 0 0 0 0 0 0 0 0 0 0.25 0"/>
<feBlend mode="normal" in2="BackgroundImageFix" result="effect1_dropShadow_1639_324"/>
<feBlend mode="normal" in="SourceGraphic" in2="effect1_dropShadow_1639_324" result="shape"/>
</filter>
<filter id="filter4_d_1639_324" x="16.5" y="6.5" width="13" height="18" filterUnits="userSpaceOnUse" color-interpolation-filters="sRGB">
<feFlood flood-opacity="0" result="BackgroundImageFix"/>
<feColorMatrix in="SourceAlpha" type="matrix" values="0 0 0 0 0 0 0 0 0 0 0 0 0 0 0 0 0 0 127 0" result="hardAlpha"/>
<feOffset dy="4"/>
<feGaussianBlur stdDeviation="2"/>
<feComposite in2="hardAlpha" operator="out"/>
<feColorMatrix type="matrix" values="0 0 0 0 0 0 0 0 0 0 0 0 0 0 0 0 0 0 0.25 0"/>
<feBlend mode="normal" in2="BackgroundImageFix" result="effect1_dropShadow_1639_324"/>
<feBlend mode="normal" in="SourceGraphic" in2="effect1_dropShadow_1639_324" result="shape"/>
</filter>
</defs>
</svg>
