<svg width="120" height="120" viewBox="0 0 30 30" fill="none" xmlns="http://www.w3.org/2000/svg">
<rect x="0.5" y="0.5" width="29" height="29" rx="14.5" fill="white" stroke="black"/>
<path d="M10.9432 23.8182C10.9261 23.6742 10.857 23.5625 10.7358 23.483C10.6146 23.4034 10.4659 23.3636 10.2898 23.3636C10.161 23.3636 10.0483 23.3845 9.9517 23.4261C9.85606 23.4678 9.78125 23.5251 9.72727 23.598C9.67424 23.6709 9.64773 23.7538 9.64773 23.8466C9.64773 23.9242 9.66619 23.991 9.70312 24.0469C9.741 24.1018 9.7893 24.1477 9.84801 24.1847C9.90672 24.2206 9.96828 24.2505 10.0327 24.2741C10.0971 24.2969 10.1562 24.3153 10.2102 24.3295L10.5057 24.4091C10.5814 24.429 10.6657 24.4564 10.7585 24.4915C10.8523 24.5265 10.9418 24.5743 11.027 24.6349C11.1132 24.6946 11.1842 24.7713 11.2401 24.8651C11.2959 24.9588 11.3239 25.0739 11.3239 25.2102C11.3239 25.3674 11.2827 25.5095 11.2003 25.6364C11.1188 25.7633 10.9995 25.8641 10.8423 25.9389C10.6861 26.0137 10.4962 26.0511 10.2727 26.0511C10.0644 26.0511 9.884 26.0175 9.73153 25.9503C9.58002 25.883 9.4607 25.7893 9.37358 25.669C9.28741 25.5488 9.23864 25.4091 9.22727 25.25H9.59091C9.60038 25.3598 9.63731 25.4508 9.7017 25.5227C9.76705 25.5937 9.84943 25.6468 9.94886 25.6818C10.0492 25.7159 10.1572 25.733 10.2727 25.733C10.4072 25.733 10.5279 25.7112 10.6349 25.6676C10.742 25.6231 10.8267 25.5616 10.8892 25.483C10.9517 25.4034 10.983 25.3106 10.983 25.2045C10.983 25.108 10.956 25.0294 10.902 24.9688C10.848 24.9081 10.777 24.8589 10.6889 24.821C10.6009 24.7831 10.5057 24.75 10.4034 24.7216L10.0455 24.6193C9.81818 24.554 9.63826 24.4607 9.50568 24.3395C9.37311 24.2183 9.30682 24.0597 9.30682 23.8636C9.30682 23.7008 9.35085 23.5587 9.43892 23.4375C9.52794 23.3153 9.64725 23.2206 9.79688 23.1534C9.94744 23.0852 10.1155 23.0511 10.3011 23.0511C10.4886 23.0511 10.6553 23.0848 10.8011 23.152C10.947 23.2183 11.0625 23.3092 11.1477 23.4247C11.2339 23.5402 11.2794 23.6714 11.2841 23.8182H10.9432ZM13.304 26.0455C13.107 26.0455 12.9342 25.9986 12.7855 25.9048C12.6378 25.8111 12.5222 25.6799 12.4389 25.5114C12.3565 25.3428 12.3153 25.1458 12.3153 24.9205C12.3153 24.6932 12.3565 24.4948 12.4389 24.3253C12.5222 24.1558 12.6378 24.0241 12.7855 23.9304C12.9342 23.8366 13.107 23.7898 13.304 23.7898C13.5009 23.7898 13.6733 23.8366 13.821 23.9304C13.9697 24.0241 14.0852 24.1558 14.1676 24.3253C14.2509 24.4948 14.2926 24.6932 14.2926 24.9205C14.2926 25.1458 14.2509 25.3428 14.1676 25.5114C14.0852 25.6799 13.9697 25.8111 13.821 25.9048C13.6733 25.9986 13.5009 26.0455 13.304 26.0455ZM13.304 25.7443C13.4536 25.7443 13.5767 25.706 13.6733 25.6293C13.7699 25.5526 13.8414 25.4517 13.8878 25.3267C13.9342 25.2017 13.9574 25.0663 13.9574 24.9205C13.9574 24.7746 13.9342 24.6387 13.8878 24.5128C13.8414 24.3868 13.7699 24.285 13.6733 24.2074C13.5767 24.1297 13.4536 24.0909 13.304 24.0909C13.1543 24.0909 13.0312 24.1297 12.9346 24.2074C12.8381 24.285 12.7666 24.3868 12.7202 24.5128C12.6738 24.6387 12.6506 24.7746 12.6506 24.9205C12.6506 25.0663 12.6738 25.2017 12.7202 25.3267C12.7666 25.4517 12.8381 25.5526 12.9346 25.6293C13.0312 25.706 13.1543 25.7443 13.304 25.7443ZM15.6995 23.0909V26H15.3643V23.0909H15.6995ZM16.8735 26V23.8182H17.2088V26H16.8735ZM17.044 23.4545C16.9787 23.4545 16.9223 23.4323 16.875 23.3878C16.8286 23.3433 16.8054 23.2898 16.8054 23.2273C16.8054 23.1648 16.8286 23.1113 16.875 23.0668C16.9223 23.0223 16.9787 23 17.044 23C17.1093 23 17.1652 23.0223 17.2116 23.0668C17.259 23.1113 17.2826 23.1648 17.2826 23.2273C17.2826 23.2898 17.259 23.3433 17.2116 23.3878C17.1652 23.4323 17.1093 23.4545 17.044 23.4545ZM19.2066 26.0455C19.0248 26.0455 18.8643 25.9995 18.7251 25.9077C18.5859 25.8149 18.477 25.6842 18.3984 25.5156C18.3198 25.3461 18.2805 25.1458 18.2805 24.9148C18.2805 24.6856 18.3198 24.4867 18.3984 24.3182C18.477 24.1496 18.5864 24.0194 18.7265 23.9276C18.8667 23.8357 19.0286 23.7898 19.2123 23.7898C19.3543 23.7898 19.4666 23.8134 19.5489 23.8608C19.6323 23.9072 19.6957 23.9602 19.7393 24.0199C19.7838 24.0786 19.8184 24.1269 19.843 24.1648H19.8714V23.0909H20.2066V26H19.8828V25.6648H19.843C19.8184 25.7045 19.7833 25.7547 19.7379 25.8153C19.6924 25.875 19.6275 25.9285 19.5433 25.9759C19.459 26.0223 19.3468 26.0455 19.2066 26.0455ZM19.2521 25.7443C19.3865 25.7443 19.5002 25.7093 19.593 25.6392C19.6858 25.5682 19.7563 25.4702 19.8046 25.3452C19.8529 25.2192 19.8771 25.0739 19.8771 24.9091C19.8771 24.7462 19.8534 24.6037 19.8061 24.4815C19.7587 24.3584 19.6886 24.2628 19.5958 24.1946C19.503 24.1255 19.3884 24.0909 19.2521 24.0909C19.11 24.0909 18.9917 24.1274 18.897 24.2003C18.8032 24.2723 18.7327 24.3703 18.6853 24.4943C18.6389 24.6174 18.6157 24.7557 18.6157 24.9091C18.6157 25.0644 18.6394 25.2055 18.6867 25.3324C18.735 25.4583 18.8061 25.5587 18.8998 25.6335C18.9945 25.7074 19.1119 25.7443 19.2521 25.7443Z" fill="#636363"/>
<path d="M13.5438 2.9942C13.8196 2.69538 14.249 2.59336 14.6297 2.73615L17.6323 3.86212C17.8687 3.95074 18.0627 4.12547 18.1756 4.35123L19.9097 7.81938C19.9693 7.93859 20.0521 8.04468 20.1533 8.13142L23.2437 10.7803C23.41 10.9228 23.5248 11.116 23.5707 11.3301L24.8939 17.5047C24.9606 17.8161 24.875 18.1406 24.6635 18.3786L21.3322 22.1263C21.1231 22.3615 20.8154 22.4846 20.5017 22.4585L15.1038 22.0086C15.0348 22.0029 14.9654 22.0043 14.8967 22.0129L11.3692 22.4539C11.131 22.4836 10.8901 22.4268 10.6904 22.2936L8.12067 20.5804C8.04064 20.5271 7.96873 20.4625 7.90715 20.3886L5.7846 17.8415C5.60341 17.6241 5.52285 17.3401 5.56287 17.0599L5.98305 14.1187C5.99431 14.0398 6.01495 13.9626 6.04452 13.8887L7.93148 9.17131C7.97678 9.05806 8.04241 8.95405 8.12515 8.86442L13.5438 2.9942Z" fill="#636363"/>
<path d="M17.5146 4.64721C17.7376 4.34986 18.1956 4.39116 18.3618 4.72361L19.9097 7.81938C19.9693 7.93859 20.0521 8.04468 20.1533 8.13142L23.2437 10.7803C23.41 10.9228 23.5248 11.116 23.5707 11.3301L24.8939 17.5047C24.9606 17.8161 24.875 18.1406 24.6635 18.3786L21.3322 22.1263C21.1231 22.3615 20.8154 22.4846 20.5017 22.4585L15 22V19L7 17L7.87087 13.0811C7.95044 12.723 8.21966 12.4372 8.57234 12.3365L11.2508 11.5712C11.4142 11.5245 11.5631 11.4369 11.6832 11.3168L14.9497 8.05025C14.9832 8.01679 15.0142 7.981 15.0426 7.94315L17.5146 4.64721Z" fill="#9B9B9B"/>
<path d="M13.5439 3.00175C13.8193 2.69879 14.2516 2.59433 14.6349 2.7381L17.6323 3.86212C17.8687 3.95074 18.0627 4.12547 18.1756 4.35123L18.5 5L16.1875 14.2498C16.0771 14.6916 16.2791 15.1522 16.6788 15.3703L21.5 18L15 19L11.7474 15.2828C11.5879 15.1005 11.5 14.8665 11.5 14.6243V11.5L9.4691 8.65673C9.19538 8.27353 9.22611 7.75128 9.54289 7.40282L13.5439 3.00175Z" fill="#D3D3D3"/>
<path d="M13.4253 3.15737C13.9247 2.61956 14.814 2.78501 15.0866 3.46643L15.4007 4.25181C15.4658 4.41442 15.487 4.59125 15.4622 4.76462L15.0471 7.67002C15.0165 7.88421 14.9173 8.08271 14.7643 8.2357L11.5 11.5L8.9253 9.66093C8.4346 9.31043 8.36342 8.60862 8.77374 8.16674L13.4253 3.15737Z" fill="#9B9B9B"/>
<path d="M17.5 9L23.5 11V11.8377C23.5 11.9452 23.4827 12.052 23.4487 12.154L21.5 18L16.6788 15.3703C16.2791 15.1522 16.0771 14.6916 16.1875 14.2498L17.5 9Z" fill="#E6E6E6"/>
</svg>
