<svg width="28" height="50" viewBox="0 0 28 50" fill="none" xmlns="http://www.w3.org/2000/svg">
<path d="M14.0001 41L27 50H1L14.0001 41Z" fill="#404040"/>
<path d="M14.2799 49L0.999999 6.40341L28 -4.76837e-07L14.2799 49Z" fill="#404040"/>
<path d="M7.23467 9.7957C7.49919 9.67711 7.67112 9.47836 7.75047 9.19947C7.82982 8.92057 7.81684 8.61304 7.71153 8.27687C7.63453 8.03108 7.5274 7.82846 7.39012 7.66902C7.25342 7.51139 7.09935 7.40287 6.92791 7.34344C6.75704 7.28583 6.58305 7.28476 6.40593 7.34025C6.25772 7.38667 6.14135 7.46183 6.0568 7.56572C5.97462 7.67085 5.91584 7.79049 5.88045 7.92462C5.84688 8.05819 5.82675 8.1935 5.82006 8.33055C5.81519 8.46704 5.81533 8.59104 5.82049 8.70255L5.84532 9.314C5.85266 9.47047 5.85063 9.64774 5.83925 9.84581C5.82843 10.0457 5.79066 10.2451 5.72595 10.444C5.6636 10.6441 5.55967 10.8255 5.41415 10.9882C5.26863 11.1509 5.06574 11.273 4.80548 11.3545C4.50547 11.4485 4.20974 11.4548 3.9183 11.3734C3.62742 11.2939 3.36361 11.1264 3.12684 10.8712C2.89065 10.6177 2.70574 10.2777 2.57212 9.85113C2.44757 9.45352 2.40387 9.08912 2.44104 8.75794C2.47877 8.42857 2.58636 8.14479 2.7638 7.90662C2.94181 7.67025 3.17924 7.49366 3.47608 7.37685L3.69349 8.07087C3.4895 8.15462 3.33807 8.27946 3.23922 8.44538C3.14273 8.61255 3.09078 8.8015 3.08335 9.01222C3.0783 9.22418 3.11031 9.4404 3.17939 9.6609C3.25978 9.91754 3.37354 10.135 3.52065 10.3131C3.66957 10.4908 3.83772 10.6157 4.0251 10.688C4.21428 10.7597 4.41009 10.7639 4.61251 10.7005C4.79686 10.6427 4.93073 10.5442 5.01413 10.405C5.09752 10.2657 5.14904 10.1007 5.16868 9.91C5.18832 9.71927 5.19468 9.51782 5.18775 9.30564L5.16893 8.56132C5.15776 8.0885 5.22821 7.68933 5.38028 7.36384C5.53236 7.03834 5.79545 6.81699 6.16957 6.6998C6.48043 6.60242 6.77786 6.60153 7.06185 6.69714C7.34822 6.794 7.60029 6.96511 7.81807 7.21047C8.03822 7.45707 8.20377 7.75749 8.31474 8.11173C8.42685 8.46958 8.46233 8.80777 8.4212 9.1263C8.38188 9.44426 8.27745 9.7191 8.10791 9.95084C7.93893 10.1844 7.71579 10.3495 7.43849 10.4463L7.23467 9.7957ZM3.64445 12.9321L9.19658 11.1928L9.78427 13.0689C9.92071 13.5044 9.95363 13.8851 9.88301 14.2109C9.81477 14.5379 9.66876 14.8099 9.44498 15.0269C9.2212 15.2438 8.94574 15.4035 8.61862 15.506C8.29149 15.6085 7.97323 15.6348 7.66385 15.5848C7.35504 15.5367 7.07779 15.3993 6.83213 15.1726C6.58826 14.9453 6.39867 14.6157 6.26336 14.1837L5.84213 12.8391L6.43855 12.6522L6.85299 13.9752C6.9464 14.2734 7.07293 14.4967 7.23257 14.6452C7.3922 14.7937 7.57241 14.8811 7.7732 14.9075C7.97636 14.9352 8.1891 14.9142 8.4114 14.8445C8.6337 14.7749 8.81949 14.6711 8.96875 14.533C9.11859 14.3967 9.21461 14.2218 9.25684 14.0081C9.30086 13.7939 9.2756 13.5358 9.18105 13.234L8.81078 12.052L3.85506 13.6044L3.64445 12.9321ZM5.16249 17.778L10.7146 16.0388L11.3023 17.9148C11.4382 18.3485 11.4756 18.7278 11.4146 19.0525C11.3554 19.3767 11.2184 19.6459 11.0037 19.86C10.7889 20.0742 10.518 20.2325 10.1909 20.335C9.86375 20.4374 9.55273 20.4614 9.2578 20.407C8.96288 20.3525 8.69981 20.2096 8.4686 19.9784C8.2392 19.7466 8.05712 19.4156 7.92237 18.9855L7.44679 17.4673L8.05406 17.2771L8.52284 18.7736C8.6157 19.07 8.73381 19.2949 8.87718 19.4485C9.02111 19.6039 9.18534 19.6973 9.36986 19.7288C9.55676 19.7616 9.76136 19.7431 9.98366 19.6735C10.206 19.6038 10.3872 19.5014 10.5275 19.3662C10.6677 19.231 10.7544 19.0579 10.7876 18.8471C10.8226 18.6356 10.7931 18.3799 10.6991 18.0799L10.3288 16.8979L5.37311 18.4504L5.16249 17.778ZM8.47529 19.6101L6.4092 21.7578L6.16461 20.977L8.2375 18.851L8.47529 19.6101ZM12.455 21.5943L6.90282 23.3335L6.69221 22.6612L12.2443 20.9219L12.455 21.5943ZM14.2564 27.345L8.7043 29.0843L8.50048 28.4336L11.912 24.0425L11.895 23.9883L7.53573 25.3539L7.32512 24.6816L12.8772 22.9423L13.0811 23.593L9.6621 27.9983L9.67908 28.0525L14.0492 26.6835L14.2564 27.345ZM14.1318 33.0292C14.2957 32.9124 14.4346 32.7826 14.5486 32.6397C14.665 32.498 14.7537 32.3442 14.8149 32.1782C14.8766 32.014 14.9082 31.8393 14.9097 31.6543C14.9113 31.4692 14.8807 31.2764 14.8178 31.0757C14.7148 30.7468 14.5361 30.4743 14.2819 30.2582C14.0276 30.0422 13.7102 29.9064 13.3297 29.851C12.9491 29.7955 12.5184 29.8431 12.0377 29.9937C11.5569 30.1443 11.1764 30.3519 10.896 30.6163C10.6157 30.8808 10.4336 31.177 10.3498 31.5049C10.2659 31.8328 10.2778 32.1685 10.3854 32.5119C10.485 32.83 10.6405 33.0889 10.852 33.2886C11.0658 33.4896 11.3186 33.6188 11.6105 33.6762C11.9047 33.7348 12.2217 33.711 12.5615 33.6045L12.5827 33.8241L12.0595 32.1542L12.656 31.9673L13.3184 34.0819L12.7219 34.2687C12.2647 34.412 11.8365 34.4389 11.4374 34.3496C11.0388 34.2621 10.693 34.0767 10.3998 33.7935C10.109 33.5114 9.89456 33.1499 9.75642 32.7089C9.60242 32.2173 9.58278 31.7491 9.69748 31.3044C9.81276 30.8614 10.0511 30.4692 10.4125 30.1277C10.7745 29.7881 11.2483 29.5265 11.8339 29.3431C12.2731 29.2055 12.6864 29.1405 13.0738 29.1482C13.4636 29.157 13.8163 29.2311 14.1318 29.3705C14.4473 29.5098 14.7175 29.707 14.9423 29.962C15.1671 30.2171 15.3352 30.5227 15.4468 30.8787C15.5385 31.1715 15.5797 31.4583 15.5704 31.7391C15.5635 32.0211 15.5107 32.2867 15.4122 32.5359C15.316 32.7863 15.1777 33.0132 14.9973 33.2166C14.8187 33.4194 14.6026 33.5883 14.3492 33.7233L14.1318 33.0292Z" fill="#E087B1"/>
<path d="M15.5 45L22 0H28L15.5 45Z" fill="#E087B1"/>
</svg>
