<svg width="28" height="50" viewBox="0 0 28 50" fill="none" xmlns="http://www.w3.org/2000/svg">
<path d="M14.0001 41L27 50H1L14.0001 41Z" fill="#404040"/>
<path d="M14.2799 49L0.999999 6.40341L28 -4.76837e-07L14.2799 49Z" fill="#404040"/>
<path d="M6.61402 9.19623C6.84548 9.09247 6.99593 8.91857 7.06535 8.67453C7.13478 8.4305 7.12342 8.16141 7.03128 7.86726C6.96391 7.65219 6.87016 7.4749 6.75005 7.33539C6.63043 7.19747 6.49562 7.10251 6.34561 7.05051C6.1961 7.0001 6.04386 6.99917 5.88888 7.04772C5.7592 7.08834 5.65737 7.1541 5.58339 7.24501C5.51148 7.337 5.46005 7.44167 5.42909 7.55904C5.39971 7.67592 5.38209 7.79431 5.37625 7.91423C5.37198 8.03366 5.3721 8.14216 5.37662 8.23973L5.39835 8.77475C5.40477 8.91166 5.403 9.06678 5.39303 9.24009C5.38357 9.41498 5.35052 9.58944 5.29389 9.76347C5.23935 9.93859 5.14841 10.0973 5.02107 10.2397C4.89374 10.382 4.71621 10.4889 4.48849 10.5602C4.22597 10.6424 3.96721 10.648 3.7122 10.5768C3.45769 10.5071 3.22685 10.3606 3.01968 10.1373C2.81301 9.91546 2.65121 9.61795 2.5343 9.24474C2.42531 8.89683 2.38708 8.57798 2.4196 8.2882C2.45262 8 2.54676 7.7517 2.70202 7.54329C2.85778 7.33646 3.06553 7.18195 3.32526 7.07975L3.51549 7.68701C3.337 7.76029 3.20451 7.86952 3.118 8.01471C3.03358 8.16098 2.98812 8.32631 2.98163 8.51069C2.97721 8.69615 3.00522 8.88535 3.06566 9.07828C3.136 9.30285 3.23554 9.49308 3.36426 9.64899C3.49457 9.80441 3.6417 9.91375 3.80565 9.977C3.97119 10.0398 4.14252 10.0434 4.31963 9.98792C4.48094 9.93739 4.59808 9.8512 4.67105 9.72935C4.74402 9.6075 4.7891 9.46314 4.80629 9.29625C4.82347 9.12936 4.82903 8.95309 4.82297 8.76744L4.80651 8.11616C4.79673 7.70243 4.85837 7.35317 4.99144 7.06836C5.1245 6.78355 5.35471 6.58987 5.68207 6.48732C5.95407 6.40211 6.21432 6.40134 6.46281 6.485C6.71338 6.56975 6.93395 6.71947 7.1245 6.93416C7.31713 7.14993 7.46199 7.4128 7.55909 7.72276C7.65718 8.03588 7.68823 8.3318 7.65224 8.61051C7.61783 8.88872 7.52646 9.12922 7.37811 9.33198C7.23026 9.53633 7.03501 9.68085 6.79237 9.76554L6.61402 9.19623ZM9.32942 13.6069L9.51371 14.1952L6.29711 15.2028C5.96501 15.3068 5.64397 15.3214 5.33399 15.2466C5.02609 15.1729 4.75269 15.018 4.51377 14.782C4.27645 14.5455 4.09808 14.2367 3.97869 13.8556C3.8593 13.4744 3.8296 13.1191 3.88957 12.7894C3.95113 12.4593 4.08706 12.1753 4.29737 11.9375C4.50976 11.7008 4.782 11.5304 5.1141 11.4264L8.3307 10.4187L8.51499 11.007L5.34583 11.9998C5.10861 12.0741 4.91384 12.1924 4.76151 12.3548C4.61077 12.5166 4.51263 12.7106 4.46712 12.9367C4.42368 13.1639 4.44431 13.4127 4.52903 13.6832C4.61374 13.9536 4.73875 14.1697 4.90406 14.3315C5.07095 14.4928 5.26221 14.5962 5.47786 14.6415C5.69558 14.6879 5.92305 14.674 6.16026 14.5996L9.32942 13.6069ZM9.88173 15.37L10.1017 16.0721L6.58627 18.9864L6.6041 19.0433L11.1539 19.431L11.3739 20.1332L6.51575 21.655L6.34336 21.1047L10.0344 19.9485L10.0195 19.901L5.85291 19.5391L5.68646 19.0078L8.9019 16.3333L8.88704 16.2859L5.19601 17.4422L5.02361 16.8918L9.88173 15.37ZM11.7434 21.3127L11.9633 22.0149L8.44791 24.9291L8.46575 24.9861L13.0156 25.3738L13.2355 26.076L8.3774 27.5978L8.205 27.0475L11.896 25.8912L11.8812 25.8438L7.71456 25.4819L7.5481 24.9505L10.7635 22.2761L10.7487 22.2287L7.05766 23.3849L6.88526 22.8346L11.7434 21.3127ZM8.7469 28.7774L13.605 27.2555L14.5235 30.1874L14.0016 30.3509L13.2674 28.0073L11.6259 28.5215L12.3125 30.7133L11.7907 30.8768L11.1041 28.685L9.45306 29.2022L10.1991 31.5838L9.67726 31.7473L8.7469 28.7774ZM9.99754 32.7696L14.8557 31.2478L15.3699 32.8893C15.4888 33.2688 15.5215 33.6007 15.4681 33.8848C15.4163 34.1685 15.2965 34.404 15.1086 34.5914C14.9207 34.7788 14.6836 34.9173 14.3974 35.007C14.1111 35.0966 13.839 35.1176 13.5809 35.07C13.3229 35.0223 13.0927 34.8973 12.8904 34.695C12.6897 34.4921 12.5303 34.2025 12.4124 33.8262L11.9963 32.4978L12.5277 32.3313L12.9378 33.6407C13.0191 33.9001 13.1224 34.0969 13.2479 34.2313C13.3738 34.3673 13.5175 34.449 13.679 34.4766C13.8425 34.5052 14.0215 34.4891 14.2161 34.4282C14.4106 34.3672 14.5692 34.2776 14.6919 34.1593C14.8146 34.041 14.8905 33.8895 14.9195 33.7051C14.9501 33.5201 14.9243 33.2963 14.8421 33.0338L14.5181 31.9996L10.1818 33.3579L9.99754 32.7696ZM12.8962 34.3727L11.0884 36.2519L10.8744 35.5688L12.6882 33.7085L12.8962 34.3727Z" fill="#B3E889"/>
<path d="M15.5 45L22 0H28L15.5 45Z" fill="#B3E889"/>
</svg>
