<svg width="104" height="156" viewBox="0 0 26 39" fill="none" xmlns="http://www.w3.org/2000/svg">
<path d="M0.05 33.5583C8.6333 34.8728 17.3667 34.8728 25.95 33.5583V36.9571C17.3668 38.2732 8.63318 38.2732 0.05 36.9571V33.5583Z" fill="#404040" stroke="black" stroke-width="0.1"/>
<path d="M25.95 33.5C25.95 33.5361 25.9344 33.576 25.8953 33.6203C25.8561 33.665 25.7953 33.7114 25.7113 33.7587C25.5435 33.8534 25.2927 33.9463 24.9652 34.0356C24.311 34.2141 23.362 34.3754 22.1867 34.511C19.8366 34.7822 16.5886 34.95 13 34.95C9.41144 34.95 6.16345 34.7822 3.81334 34.511C2.63796 34.3754 1.68898 34.2141 1.03476 34.0356C0.707266 33.9463 0.456508 33.8534 0.288672 33.7587C0.204735 33.7114 0.143946 33.665 0.10465 33.6203C0.0656307 33.576 0.05 33.5361 0.05 33.5C0.05 33.4639 0.0656307 33.424 0.10465 33.3797C0.143946 33.335 0.204735 33.2886 0.288672 33.2413C0.456508 33.1466 0.707266 33.0537 1.03476 32.9644C1.68898 32.7859 2.63796 32.6246 3.81334 32.489C6.16345 32.2178 9.41144 32.05 13 32.05C16.5886 32.05 19.8366 32.2178 22.1867 32.489C23.362 32.6246 24.311 32.7859 24.9652 32.9644C25.2927 33.0537 25.5435 33.1466 25.7113 33.2413C25.7953 33.2886 25.8561 33.335 25.8953 33.3797C25.9344 33.424 25.95 33.4639 25.95 33.5Z" fill="#404040" stroke="black" stroke-width="0.1"/>
<path d="M9 25H17L20 33.5V33.5C15.3393 33.8329 10.6607 33.8329 6 33.5V33.5L9 25Z" fill="#CD991D"/>
<path d="M0 0.5V0.5C8.65388 1.16568 17.3461 1.16568 26 0.5V0.5L24.1481 3.50936C22.7273 5.8181 21.7278 8.36081 21.1962 11.0191L19.4385 19.8074C19.1618 21.1908 18.2619 22.369 17 23V23H9V23C7.73809 22.369 6.83816 21.1908 6.56147 19.8074L4.80381 11.0191C4.27216 8.36081 3.27268 5.8181 1.85191 3.50936L0 0.5Z" fill="url(#paint0_linear_1613_130)"/>
<rect x="8" y="24" width="10" height="1" rx="0.5" fill="#F3C131"/>
<rect x="8" y="23" width="10" height="1" rx="0.5" fill="#CE9921"/>
<path d="M10.3556 6.05256V5.81818H11.992V6.05256H11.3059V8H11.0417V6.05256H10.3556ZM12.2198 8V5.81818H12.484V6.78977H13.6473V5.81818H13.9115V8H13.6473V7.02415H12.484V8H12.2198ZM14.2605 8V5.81818H15.5772V6.05256H14.5247V6.78977H15.5091V7.02415H14.5247V7.76562H15.5943V8H14.2605ZM9.82027 9.5C9.79683 9.42827 9.76594 9.36399 9.72759 9.30717C9.68995 9.24964 9.64485 9.20064 9.59229 9.16016C9.54044 9.11967 9.48149 9.08878 9.41544 9.06747C9.34939 9.04616 9.27695 9.03551 9.19811 9.03551C9.06885 9.03551 8.95131 9.06889 8.84548 9.13565C8.73966 9.20241 8.6555 9.30078 8.593 9.43075C8.5305 9.56072 8.49925 9.72017 8.49925 9.90909C8.49925 10.098 8.53085 10.2575 8.59406 10.3874C8.65727 10.5174 8.74286 10.6158 8.85081 10.6825C8.95877 10.7493 9.08022 10.7827 9.21516 10.7827C9.34016 10.7827 9.45024 10.756 9.54541 10.7028C9.64129 10.6488 9.71587 10.5728 9.76914 10.4748C9.82311 10.3761 9.8501 10.2599 9.8501 10.1264L9.93107 10.1435H9.27482V9.90909H10.1058V10.1435C10.1058 10.3232 10.0674 10.4794 9.99073 10.6122C9.91473 10.745 9.80962 10.848 9.67539 10.9212C9.54186 10.9936 9.38845 11.0298 9.21516 11.0298C9.02198 11.0298 8.85223 10.9844 8.70593 10.8935C8.56033 10.8026 8.44669 10.6733 8.36502 10.5057C8.28405 10.3381 8.24357 10.1392 8.24357 9.90909C8.24357 9.73651 8.26665 9.58132 8.31281 9.44354C8.35969 9.30504 8.42574 9.18714 8.51097 9.08984C8.5962 8.99254 8.69705 8.91797 8.81352 8.86612C8.93 8.81428 9.0582 8.78835 9.19811 8.78835C9.31317 8.78835 9.42041 8.80575 9.51985 8.84055C9.61999 8.87464 9.70912 8.9233 9.78725 8.98651C9.86608 9.04901 9.93178 9.12393 9.98433 9.21129C10.0369 9.29794 10.0731 9.39418 10.093 9.5H9.82027ZM10.3783 11V8.81818H11.1155C11.286 8.81818 11.4259 8.8473 11.5352 8.90554C11.6446 8.96307 11.7256 9.04226 11.7781 9.14311C11.8307 9.24396 11.857 9.35866 11.857 9.48722C11.857 9.61577 11.8307 9.72976 11.7781 9.82919C11.7256 9.92862 11.645 10.0067 11.5363 10.0636C11.4276 10.1197 11.2888 10.1477 11.1198 10.1477H10.5232V9.90909H11.1112C11.2277 9.90909 11.3215 9.89205 11.3925 9.85795C11.4642 9.82386 11.5161 9.77557 11.548 9.71307C11.5807 9.64986 11.597 9.57457 11.597 9.48722C11.597 9.39986 11.5807 9.32351 11.548 9.25817C11.5154 9.19283 11.4632 9.1424 11.3914 9.10689C11.3197 9.07067 11.2249 9.05256 11.107 9.05256H10.6425V11H10.3783ZM11.4053 10.0199L11.9422 11H11.6354L11.107 10.0199H11.4053ZM12.2067 11H11.9297L12.7309 8.81818H13.0036L13.8047 11H13.5277L12.8758 9.16335H12.8587L12.2067 11ZM12.309 10.1477H13.4255V10.3821H12.309V10.1477ZM15.6947 8.81818V11H15.439L14.2501 9.28693H14.2288V11H13.9646V8.81818H14.2203L15.4134 10.5355H15.4347V8.81818H15.6947ZM16.7167 11H16.0434V8.81818H16.7465C16.9581 8.81818 17.1392 8.86186 17.2898 8.94922C17.4404 9.03587 17.5558 9.16051 17.636 9.32315C17.7163 9.48509 17.7564 9.67898 17.7564 9.90483C17.7564 10.1321 17.7159 10.3278 17.635 10.4918C17.554 10.6552 17.4361 10.7809 17.2813 10.869C17.1265 10.9563 16.9383 11 16.7167 11ZM16.3076 10.7656H16.6996C16.88 10.7656 17.0295 10.7308 17.1481 10.6612C17.2667 10.5916 17.3552 10.4925 17.4134 10.364C17.4716 10.2354 17.5008 10.0824 17.5008 9.90483C17.5008 9.72869 17.472 9.57706 17.4145 9.44993C17.3569 9.32209 17.271 9.22408 17.1566 9.15589C17.0423 9.087 16.8999 9.05256 16.7294 9.05256H16.3076V10.7656ZM10.5101 12.3636C10.4973 12.2557 10.4455 12.1719 10.3546 12.1122C10.2637 12.0526 10.1521 12.0227 10.02 12.0227C9.92345 12.0227 9.83894 12.0384 9.76649 12.0696C9.69476 12.1009 9.63865 12.1438 9.59817 12.1985C9.5584 12.2532 9.53851 12.3153 9.53851 12.3849C9.53851 12.4432 9.55236 12.4933 9.58006 12.5352C9.60847 12.5763 9.64469 12.6108 9.68872 12.6385C9.73276 12.6655 9.77892 12.6879 9.82722 12.7056C9.87551 12.7227 9.9199 12.7365 9.96039 12.7472L10.182 12.8068C10.2388 12.8217 10.302 12.8423 10.3716 12.8686C10.4419 12.8949 10.509 12.9308 10.573 12.9762C10.6376 13.021 10.6909 13.0785 10.7328 13.1488C10.7747 13.2191 10.7956 13.3054 10.7956 13.4077C10.7956 13.5256 10.7647 13.6321 10.7029 13.7273C10.6418 13.8224 10.5524 13.8981 10.4345 13.9542C10.3173 14.0103 10.1749 14.0384 10.0073 14.0384C9.85101 14.0384 9.71571 14.0131 9.60137 13.9627C9.48773 13.9123 9.39824 13.842 9.3329 13.7518C9.26827 13.6616 9.23169 13.5568 9.22317 13.4375H9.4959C9.503 13.5199 9.5307 13.5881 9.57899 13.642C9.628 13.6953 9.68979 13.7351 9.76436 13.7614C9.83965 13.7869 9.92061 13.7997 10.0073 13.7997C10.1081 13.7997 10.1987 13.7834 10.2789 13.7507C10.3592 13.7173 10.4227 13.6712 10.4696 13.6122C10.5165 13.5526 10.5399 13.483 10.5399 13.4034C10.5399 13.331 10.5197 13.272 10.4792 13.2266C10.4387 13.1811 10.3855 13.1442 10.3194 13.1158C10.2534 13.0874 10.182 13.0625 10.1053 13.0412L9.83681 12.9645C9.66635 12.9155 9.53141 12.8455 9.43198 12.7546C9.33254 12.6637 9.28283 12.5447 9.28283 12.3977C9.28283 12.2756 9.31585 12.169 9.38191 12.0781C9.44867 11.9865 9.53816 11.9155 9.65037 11.8651C9.7633 11.8139 9.88936 11.7884 10.0286 11.7884C10.1692 11.7884 10.2942 11.8136 10.4036 11.864C10.5129 11.9137 10.5996 11.9819 10.6635 12.0685C10.7281 12.1552 10.7622 12.2536 10.7658 12.3636H10.5101ZM11.05 14V11.8182H11.3142V13.7656H12.3284V14H11.05ZM12.7847 14H12.5077L13.3088 11.8182H13.5816L14.3827 14H14.1057L13.4537 12.1634H13.4367L12.7847 14ZM12.887 13.1477H14.0034V13.3821H12.887V13.1477ZM14.5425 11.8182H14.8579L15.5994 13.6293H15.6249L16.3664 11.8182H16.6817V14H16.4346V12.3423H16.4133L15.7315 14H15.4928L14.811 12.3423H14.7897V14H14.5425V11.8182ZM12.0446 15.5H11.7804C11.7648 15.424 11.7374 15.3572 11.6984 15.2997C11.66 15.2422 11.6131 15.1939 11.5578 15.1548C11.5031 15.1151 11.4423 15.0852 11.3756 15.0653C11.3088 15.0455 11.2392 15.0355 11.1668 15.0355C11.0347 15.0355 10.915 15.0689 10.8078 15.1357C10.7012 15.2024 10.6163 15.3008 10.5531 15.4308C10.4906 15.5607 10.4594 15.7202 10.4594 15.9091C10.4594 16.098 10.4906 16.2575 10.5531 16.3874C10.6163 16.5174 10.7012 16.6158 10.8078 16.6825C10.915 16.7493 11.0347 16.7827 11.1668 16.7827C11.2392 16.7827 11.3088 16.7727 11.3756 16.7528C11.4423 16.733 11.5031 16.7035 11.5578 16.6644C11.6131 16.6246 11.66 16.576 11.6984 16.5185C11.7374 16.4602 11.7648 16.3935 11.7804 16.3182H12.0446C12.0247 16.4297 11.9885 16.5295 11.9359 16.6175C11.8834 16.7056 11.8181 16.7805 11.7399 16.8423C11.6618 16.9034 11.5741 16.9499 11.4768 16.9819C11.3802 17.0138 11.2769 17.0298 11.1668 17.0298C10.9807 17.0298 10.8152 16.9844 10.6703 16.8935C10.5254 16.8026 10.4114 16.6733 10.3283 16.5057C10.2453 16.3381 10.2037 16.1392 10.2037 15.9091C10.2037 15.679 10.2453 15.4801 10.3283 15.3125C10.4114 15.1449 10.5254 15.0156 10.6703 14.9247C10.8152 14.8338 10.9807 14.7884 11.1668 14.7884C11.2769 14.7884 11.3802 14.8043 11.4768 14.8363C11.5741 14.8683 11.6618 14.9151 11.7399 14.9769C11.8181 15.038 11.8834 15.1126 11.9359 15.2006C11.9885 15.288 12.0247 15.3878 12.0446 15.5ZM13.7234 14.8182H13.9876V16.2628C13.9876 16.4119 13.9524 16.5451 13.8821 16.6623C13.8125 16.7788 13.7141 16.8707 13.587 16.9382C13.4599 17.005 13.3107 17.0384 13.1396 17.0384C12.9684 17.0384 12.8192 17.005 12.6921 16.9382C12.565 16.8707 12.4663 16.7788 12.396 16.6623C12.3263 16.5451 12.2915 16.4119 12.2915 16.2628V14.8182H12.5558V16.2415C12.5558 16.348 12.5792 16.4428 12.6261 16.5259C12.6729 16.6083 12.7397 16.6733 12.8263 16.7209C12.9137 16.7678 13.0181 16.7912 13.1396 16.7912C13.261 16.7912 13.3654 16.7678 13.4528 16.7209C13.5401 16.6733 13.6069 16.6083 13.6531 16.5259C13.6999 16.4428 13.7234 16.348 13.7234 16.2415V14.8182ZM14.3352 17V14.8182H15.0724C15.2436 14.8182 15.3835 14.8491 15.4921 14.9109C15.6015 14.9719 15.6825 15.0547 15.735 15.1591C15.7876 15.2635 15.8139 15.38 15.8139 15.5085C15.8139 15.6371 15.7876 15.7539 15.735 15.859C15.6832 15.9641 15.6029 16.0479 15.4943 16.1104C15.3856 16.1722 15.2464 16.2031 15.0767 16.2031H14.5482V15.9688H15.0681C15.1853 15.9688 15.2794 15.9485 15.3505 15.908C15.4215 15.8675 15.473 15.8129 15.5049 15.744C15.5376 15.6744 15.5539 15.5959 15.5539 15.5085C15.5539 15.4212 15.5376 15.343 15.5049 15.2741C15.473 15.2053 15.4211 15.1513 15.3494 15.1122C15.2777 15.0724 15.1825 15.0526 15.0639 15.0526H14.5994V17H14.3352Z" fill="url(#paint1_linear_1613_130)"/>
<path d="M25.8817 0.497488C25.8852 0.498332 25.8886 0.499174 25.8919 0.500003C25.8886 0.500832 25.8852 0.501668 25.8817 0.502512C25.8148 0.518635 25.7142 0.534925 25.5825 0.551142C25.3197 0.583506 24.9393 0.614829 24.4704 0.644724C23.5329 0.704493 22.2451 0.758344 20.8446 0.803579C18.0437 0.894049 14.7943 0.95 13 0.95C11.2057 0.95 7.9563 0.894214 5.15542 0.803909C3.75494 0.758756 2.46711 0.704987 1.52961 0.64528C1.06069 0.615417 0.680276 0.584119 0.417461 0.551773C0.285767 0.535565 0.185212 0.519282 0.11826 0.503163C0.114754 0.502319 0.111369 0.501482 0.108103 0.500653C0.111371 0.499823 0.114758 0.498985 0.118266 0.49814C0.185219 0.482012 0.285774 0.465715 0.417468 0.449489C0.680283 0.417107 1.0607 0.385758 1.52961 0.355833C2.46712 0.296002 3.75495 0.242069 5.15542 0.19675C7.9563 0.106116 11.2057 0.05 13 0.05C14.7943 0.05 18.0437 0.105951 20.8446 0.196421C22.2451 0.241656 23.5329 0.295507 24.4704 0.355276C24.9393 0.385171 25.3197 0.416494 25.5825 0.448858C25.7142 0.465075 25.8148 0.481365 25.8817 0.497488Z" fill="#FFF6BC" stroke="#D29E24" stroke-width="0.1"/>
<path d="M0.5 35.5V35.5C8.78067 36.8249 17.2193 36.8249 25.5 35.5V35.5" stroke="url(#paint2_linear_1613_130)" stroke-dasharray="2 1"/>
<circle cx="16" cy="21" r="0.95" stroke="#A57E23" stroke-width="0.1"/>
<path d="M17.95 21C17.95 21.2701 17.8952 21.5121 17.8088 21.6847C17.721 21.8604 17.6089 21.95 17.5 21.95C17.3911 21.95 17.279 21.8604 17.1912 21.6847C17.1048 21.5121 17.05 21.2701 17.05 21C17.05 20.7299 17.1048 20.4879 17.1912 20.3153C17.279 20.1396 17.3911 20.05 17.5 20.05C17.6089 20.05 17.721 20.1396 17.8088 20.3153C17.8952 20.4879 17.95 20.7299 17.95 21Z" stroke="#A57E23" stroke-width="0.1"/>
<path d="M8.95 21C8.95 21.2701 8.89516 21.5121 8.80883 21.6847C8.72101 21.8604 8.60893 21.95 8.5 21.95C8.39107 21.95 8.27899 21.8604 8.19117 21.6847C8.10484 21.5121 8.05 21.2701 8.05 21C8.05 20.7299 8.10484 20.4879 8.19117 20.3153C8.27899 20.1396 8.39107 20.05 8.5 20.05C8.60893 20.05 8.72101 20.1396 8.80883 20.3153C8.89516 20.4879 8.95 20.7299 8.95 21Z" stroke="#A57E23" stroke-width="0.1"/>
<circle cx="10" cy="21" r="0.95" stroke="#A57E23" stroke-width="0.1"/>
<circle cx="13" cy="21" r="0.95" stroke="#A57E23" stroke-width="0.1"/>
<path d="M14.95 21C14.95 21.2701 14.8952 21.5121 14.8088 21.6847C14.721 21.8604 14.6089 21.95 14.5 21.95C14.3911 21.95 14.279 21.8604 14.1912 21.6847C14.1048 21.5121 14.05 21.2701 14.05 21C14.05 20.7299 14.1048 20.4879 14.1912 20.3153C14.279 20.1396 14.3911 20.05 14.5 20.05C14.6089 20.05 14.721 20.1396 14.8088 20.3153C14.8952 20.4879 14.95 20.7299 14.95 21Z" stroke="#A57E23" stroke-width="0.1"/>
<path d="M11.95 21C11.95 21.2701 11.8952 21.5121 11.8088 21.6847C11.721 21.8604 11.6089 21.95 11.5 21.95C11.3911 21.95 11.279 21.8604 11.1912 21.6847C11.1048 21.5121 11.05 21.2701 11.05 21C11.05 20.7299 11.1048 20.4879 11.1912 20.3153C11.279 20.1396 11.3911 20.05 11.5 20.05C11.6089 20.05 11.721 20.1396 11.8088 20.3153C11.8952 20.4879 11.95 20.7299 11.95 21Z" stroke="#A57E23" stroke-width="0.1"/>
<circle cx="16" cy="3" r="0.95" stroke="#A57E23" stroke-width="0.1"/>
<circle cx="19" cy="3" r="0.95" stroke="#A57E23" stroke-width="0.1"/>
<path d="M20.95 3C20.95 3.27006 20.8952 3.51209 20.8088 3.68475C20.721 3.8604 20.6089 3.95 20.5 3.95C20.3911 3.95 20.279 3.8604 20.1912 3.68475C20.1048 3.51209 20.05 3.27006 20.05 3C20.05 2.72994 20.1048 2.48791 20.1912 2.31525C20.279 2.1396 20.3911 2.05 20.5 2.05C20.6089 2.05 20.721 2.1396 20.8088 2.31525C20.8952 2.48791 20.95 2.72994 20.95 3Z" stroke="#A57E23" stroke-width="0.1"/>
<path d="M17.95 3C17.95 3.27006 17.8952 3.51209 17.8088 3.68475C17.721 3.8604 17.6089 3.95 17.5 3.95C17.3911 3.95 17.279 3.8604 17.1912 3.68475C17.1048 3.51209 17.05 3.27006 17.05 3C17.05 2.72994 17.1048 2.48791 17.1912 2.31525C17.279 2.1396 17.3911 2.05 17.5 2.05C17.6089 2.05 17.721 2.1396 17.8088 2.31525C17.8952 2.48791 17.95 2.72994 17.95 3Z" stroke="#A57E23" stroke-width="0.1"/>
<circle cx="22" cy="3" r="0.95" stroke="#A57E23" stroke-width="0.1"/>
<path d="M8.95 3C8.95 3.27006 8.89516 3.51209 8.80883 3.68475C8.72101 3.8604 8.60893 3.95 8.5 3.95C8.39107 3.95 8.27899 3.8604 8.19117 3.68475C8.10484 3.51209 8.05 3.27006 8.05 3C8.05 2.72994 8.10484 2.48791 8.19117 2.31525C8.27899 2.1396 8.39107 2.05 8.5 2.05C8.60893 2.05 8.72101 2.1396 8.80883 2.31525C8.89516 2.48791 8.95 2.72994 8.95 3Z" stroke="#A57E23" stroke-width="0.1"/>
<path d="M5.95 3C5.95 3.27006 5.89516 3.51209 5.80883 3.68475C5.72101 3.8604 5.60893 3.95 5.5 3.95C5.39107 3.95 5.27899 3.8604 5.19117 3.68475C5.10484 3.51209 5.05 3.27006 5.05 3C5.05 2.72994 5.10484 2.48791 5.19117 2.31525C5.27899 2.1396 5.39107 2.05 5.5 2.05C5.60893 2.05 5.72101 2.1396 5.80883 2.31525C5.89516 2.48791 5.95 2.72994 5.95 3Z" stroke="#A57E23" stroke-width="0.1"/>
<circle cx="10" cy="3" r="0.95" stroke="#A57E23" stroke-width="0.1"/>
<circle cx="13" cy="3" r="0.95" stroke="#A57E23" stroke-width="0.1"/>
<path d="M14.95 3C14.95 3.27006 14.8952 3.51209 14.8088 3.68475C14.721 3.8604 14.6089 3.95 14.5 3.95C14.3911 3.95 14.279 3.8604 14.1912 3.68475C14.1048 3.51209 14.05 3.27006 14.05 3C14.05 2.72994 14.1048 2.48791 14.1912 2.31525C14.279 2.1396 14.3911 2.05 14.5 2.05C14.6089 2.05 14.721 2.1396 14.8088 2.31525C14.8952 2.48791 14.95 2.72994 14.95 3Z" stroke="#A57E23" stroke-width="0.1"/>
<path d="M11.95 3C11.95 3.27006 11.8952 3.51209 11.8088 3.68475C11.721 3.8604 11.6089 3.95 11.5 3.95C11.3911 3.95 11.279 3.8604 11.1912 3.68475C11.1048 3.51209 11.05 3.27006 11.05 3C11.05 2.72994 11.1048 2.48791 11.1912 2.31525C11.279 2.1396 11.3911 2.05 11.5 2.05C11.6089 2.05 11.721 2.1396 11.8088 2.31525C11.8952 2.48791 11.95 2.72994 11.95 3Z" stroke="#A57E23" stroke-width="0.1"/>
<circle cx="4" cy="3" r="0.95" stroke="#A57E23" stroke-width="0.1"/>
<circle cx="7" cy="3" r="0.95" stroke="#A57E23" stroke-width="0.1"/>
<defs>
<linearGradient id="paint0_linear_1613_130" x1="1.7056e-07" y1="8.5" x2="26" y2="14.2622" gradientUnits="userSpaceOnUse">
<stop stop-color="#F2D97B"/>
<stop offset="0.371366" stop-color="#D19C21"/>
<stop offset="0.641686" stop-color="#F3C835"/>
<stop offset="0.9375" stop-color="#F3CD60"/>
</linearGradient>
<linearGradient id="paint1_linear_1613_130" x1="7" y1="10" x2="16" y2="11" gradientUnits="userSpaceOnUse">
<stop stop-color="#866722"/>
<stop offset="1" stop-color="#AF8624"/>
</linearGradient>
<linearGradient id="paint2_linear_1613_130" x1="0.5" y1="35.5" x2="25.5" y2="35.5" gradientUnits="userSpaceOnUse">
<stop stop-color="#C0C0C0" stop-opacity="0.6"/>
<stop offset="0.489583" stop-color="#C0C0C0"/>
<stop offset="1" stop-color="#C0C0C0" stop-opacity="0.59"/>
</linearGradient>
</defs>
</svg>
