<svg width="30" height="30" viewBox="0 0 30 30" fill="none" xmlns="http://www.w3.org/2000/svg">
<rect width="30" height="30" rx="15" fill="#D57300"/>
<path d="M3.86364 12.6364H5.0483V15.4318C5.0483 15.7642 4.96875 16.0518 4.80966 16.2947C4.65199 16.5362 4.43182 16.723 4.14915 16.8551C3.86648 16.9858 3.53835 17.0511 3.16477 17.0511C2.78835 17.0511 2.45881 16.9858 2.17614 16.8551C1.89347 16.723 1.6733 16.5362 1.51562 16.2947C1.35938 16.0518 1.28125 15.7642 1.28125 15.4318V12.6364H2.46591V15.3295C2.46591 15.4645 2.49574 15.5852 2.5554 15.6918C2.61506 15.7969 2.69744 15.8793 2.80256 15.9389C2.90909 15.9986 3.02983 16.0284 3.16477 16.0284C3.30114 16.0284 3.42188 15.9986 3.52699 15.9389C3.6321 15.8793 3.71449 15.7969 3.77415 15.6918C3.83381 15.5852 3.86364 15.4645 3.86364 15.3295V12.6364ZM6.50451 15.1591V17H5.32837V13.7273H6.44485V14.3494H6.47894C6.54996 14.142 6.67496 13.9794 6.85394 13.8615C7.03434 13.7436 7.24457 13.6847 7.48462 13.6847C7.71616 13.6847 7.91715 13.7379 8.08761 13.8445C8.25948 13.9496 8.39229 14.0945 8.48604 14.2791C8.58121 14.4638 8.62809 14.6747 8.62667 14.9119V17H7.45053V15.1591C7.45195 14.9972 7.41076 14.87 7.32695 14.7777C7.24457 14.6854 7.12951 14.6392 6.98178 14.6392C6.88519 14.6392 6.80067 14.6605 6.72823 14.7031C6.65721 14.7443 6.60252 14.804 6.56417 14.8821C6.52582 14.9588 6.50593 15.0511 6.50451 15.1591ZM8.90728 17V13.7273H10.0834V17H8.90728ZM9.49535 13.3864C9.33626 13.3864 9.19989 13.3338 9.08626 13.2287C8.97262 13.1236 8.9158 12.9972 8.9158 12.8494C8.9158 12.7017 8.97262 12.5753 9.08626 12.4702C9.19989 12.3651 9.33626 12.3125 9.49535 12.3125C9.65586 12.3125 9.79222 12.3651 9.90444 12.4702C10.0181 12.5753 10.0749 12.7017 10.0749 12.8494C10.0749 12.9972 10.0181 13.1236 9.90444 13.2287C9.79222 13.3338 9.65586 13.3864 9.49535 13.3864ZM13.681 13.7273L12.5815 17H11.2179L10.1185 13.7273H11.3543L11.8827 15.892H11.9168L12.4452 13.7273H13.681ZM15.1841 17.0597C14.8346 17.0597 14.5335 16.9929 14.2806 16.8594C14.0292 16.7244 13.8353 16.5312 13.699 16.2798C13.564 16.027 13.4966 15.7244 13.4966 15.3722C13.4966 15.0341 13.5647 14.7386 13.7011 14.4858C13.8375 14.233 14.0299 14.0362 14.2785 13.8956C14.5271 13.755 14.8204 13.6847 15.1585 13.6847C15.4056 13.6847 15.6294 13.723 15.8297 13.7997C16.0299 13.8764 16.2011 13.9879 16.3431 14.1342C16.4852 14.2791 16.5946 14.4553 16.6713 14.6626C16.748 14.87 16.7863 15.1037 16.7863 15.3636V15.6364H13.863V14.9886H15.7039C15.7025 14.8949 15.6784 14.8125 15.6315 14.7415C15.586 14.669 15.5243 14.6129 15.4461 14.5732C15.3694 14.532 15.2821 14.5114 15.1841 14.5114C15.0889 14.5114 15.0015 14.532 14.922 14.5732C14.8424 14.6129 14.7785 14.6683 14.7302 14.7393C14.6833 14.8104 14.6585 14.8935 14.6556 14.9886V15.6875C14.6556 15.7926 14.6777 15.8864 14.7217 15.9688C14.7657 16.0511 14.8289 16.1158 14.9113 16.1626C14.9937 16.2095 15.0931 16.233 15.2096 16.233C15.2906 16.233 15.3645 16.2216 15.4312 16.1989C15.4994 16.1761 15.5576 16.1435 15.6059 16.1009C15.6542 16.0568 15.6897 16.0043 15.7125 15.9432H16.7863C16.7494 16.1705 16.662 16.3679 16.5243 16.5355C16.3865 16.7017 16.2039 16.831 15.9767 16.9233C15.7508 17.0142 15.4866 17.0597 15.1841 17.0597ZM16.9663 17V13.7273H18.1083V14.3494H18.1424C18.2021 14.1193 18.2965 13.951 18.4258 13.8445C18.5565 13.7379 18.7092 13.6847 18.8839 13.6847C18.935 13.6847 18.9854 13.6889 19.0352 13.6974C19.0863 13.7045 19.1353 13.7152 19.1822 13.7294V14.733C19.1239 14.7131 19.0522 14.6982 18.967 14.6882C18.8817 14.6783 18.8086 14.6733 18.7475 14.6733C18.6325 14.6733 18.5288 14.6996 18.4364 14.7521C18.3455 14.8033 18.2738 14.8757 18.2212 14.9695C18.1687 15.0618 18.1424 15.1705 18.1424 15.2955V17H16.9663ZM22.2593 14.7926H21.1769C21.1712 14.7259 21.1478 14.6683 21.1066 14.62C21.0654 14.5717 21.0121 14.5348 20.9468 14.5092C20.8829 14.4822 20.8119 14.4688 20.7337 14.4688C20.6329 14.4688 20.5462 14.4872 20.4738 14.5241C20.4014 14.5611 20.3658 14.6136 20.3673 14.6818C20.3658 14.7301 20.3864 14.7749 20.429 14.8161C20.4731 14.8572 20.5576 14.8892 20.6826 14.9119L21.3474 15.0312C21.6826 15.0923 21.9319 15.1953 22.0952 15.3402C22.26 15.4837 22.3431 15.6761 22.3445 15.9176C22.3431 16.1506 22.2735 16.353 22.1357 16.5249C21.9994 16.6953 21.8126 16.8274 21.5754 16.9212C21.3396 17.0135 21.0704 17.0597 20.7678 17.0597C20.2678 17.0597 19.8765 16.9574 19.5938 16.7528C19.3126 16.5483 19.1556 16.2784 19.1229 15.9432H20.2906C20.3062 16.0469 20.3573 16.1271 20.444 16.1839C20.532 16.2393 20.6428 16.267 20.7764 16.267C20.8843 16.267 20.9731 16.2486 21.0427 16.2116C21.1137 16.1747 21.1499 16.1222 21.1514 16.054C21.1499 15.9915 21.1187 15.9418 21.0576 15.9048C20.9979 15.8679 20.9042 15.8381 20.7764 15.8153L20.1968 15.7131C19.863 15.6548 19.613 15.544 19.4468 15.3807C19.2806 15.2173 19.1982 15.0071 19.1996 14.75C19.1982 14.5227 19.2579 14.3303 19.3786 14.1726C19.5008 14.0135 19.6748 13.8928 19.9006 13.8104C20.1279 13.7266 20.3971 13.6847 20.7082 13.6847C21.1812 13.6847 21.554 13.7827 21.8268 13.9787C22.1009 14.1747 22.2451 14.446 22.2593 14.7926ZM22.4952 17V13.7273H23.6713V17H22.4952ZM23.0832 13.3864C22.9241 13.3864 22.7878 13.3338 22.6741 13.2287C22.5605 13.1236 22.5037 12.9972 22.5037 12.8494C22.5037 12.7017 22.5605 12.5753 22.6741 12.4702C22.7878 12.3651 22.9241 12.3125 23.0832 12.3125C23.2437 12.3125 23.3801 12.3651 23.4923 12.4702C23.606 12.5753 23.6628 12.7017 23.6628 12.8494C23.6628 12.9972 23.606 13.1236 23.4923 13.2287C23.3801 13.3338 23.2437 13.3864 23.0832 13.3864ZM25.9223 13.7273V14.5795H23.766V13.7273H25.9223ZM24.1836 12.9432H25.3598V15.9474C25.3598 15.9929 25.3676 16.0312 25.3832 16.0625C25.3988 16.0923 25.423 16.1151 25.4556 16.1307C25.4883 16.1449 25.5302 16.152 25.5814 16.152C25.6169 16.152 25.6581 16.1477 25.7049 16.1392C25.7532 16.1307 25.7887 16.1236 25.8115 16.1179L25.9819 16.9446C25.9294 16.9602 25.8541 16.9794 25.7561 17.0021C25.6595 17.0249 25.5444 17.0398 25.4109 17.0469C25.141 17.0611 24.9145 17.0334 24.7312 16.9638C24.548 16.8928 24.4102 16.7812 24.3179 16.6293C24.2255 16.4773 24.1808 16.2869 24.1836 16.0582V12.9432ZM26.8181 18.2273C26.6832 18.2273 26.5546 18.2166 26.4325 18.1953C26.3103 18.1754 26.2031 18.1477 26.1107 18.1122L26.3664 17.277C26.463 17.3111 26.5511 17.3331 26.6306 17.343C26.7116 17.353 26.7805 17.3473 26.8373 17.326C26.8955 17.3047 26.9374 17.2642 26.963 17.2045L26.9886 17.1449L25.838 13.7273H27.0653L27.5937 15.9943H27.6278L28.1647 13.7273H29.4005L28.2073 17.2727C28.1477 17.4531 28.061 17.6151 27.9474 17.7585C27.8352 17.9034 27.6874 18.0178 27.5042 18.1016C27.321 18.1854 27.0923 18.2273 26.8181 18.2273Z" fill="white"/>
<path d="M10.6023 19.7273V19.8636H9.30682V19.7273H10.6023ZM9.78409 18.9432H9.92045V22.3097C9.92045 22.4375 9.94886 22.5476 10.0057 22.6399C10.0625 22.7308 10.1378 22.8011 10.2315 22.8509C10.3253 22.8991 10.4261 22.9233 10.5341 22.9233C10.5753 22.9233 10.6129 22.9197 10.647 22.9126C10.6825 22.9055 10.7188 22.8949 10.7557 22.8807L10.7983 23.0085C10.7557 23.0241 10.7138 23.0362 10.6726 23.0447C10.6314 23.0547 10.5852 23.0597 10.5341 23.0597C10.4006 23.0597 10.2763 23.0291 10.1612 22.968C10.0476 22.907 9.95597 22.8203 9.88636 22.7081C9.81818 22.5959 9.78409 22.4631 9.78409 22.3097V18.9432ZM12.5576 23.0682C12.2721 23.0682 12.0221 22.9936 11.8076 22.8445C11.5945 22.6953 11.429 22.4929 11.3112 22.2372C11.1933 21.9815 11.1343 21.6932 11.1343 21.3722C11.1343 21.0511 11.1933 20.7628 11.3112 20.5071C11.4305 20.2514 11.5924 20.049 11.7969 19.8999C12.0015 19.7507 12.2323 19.6761 12.4894 19.6761C12.6798 19.6761 12.8559 19.7166 13.0178 19.7976C13.1812 19.8786 13.3232 19.9908 13.444 20.1342C13.5647 20.2777 13.6585 20.4432 13.7252 20.6307C13.7934 20.8168 13.8275 21.0156 13.8275 21.2273V21.3636H11.2025V21.2273H13.6911C13.6911 20.9645 13.6371 20.7266 13.5292 20.5135C13.4212 20.299 13.2763 20.1286 13.0945 20.0021C12.9127 19.8757 12.711 19.8125 12.4894 19.8125C12.265 19.8125 12.0619 19.8793 11.88 20.0128C11.6982 20.1463 11.5526 20.3281 11.4433 20.5582C11.3339 20.7884 11.2763 21.0483 11.2707 21.3381V21.3551C11.2707 21.6406 11.3204 21.9034 11.4198 22.1435C11.5207 22.3821 11.667 22.5732 11.8587 22.7166C12.0505 22.8601 12.2835 22.9318 12.5576 22.9318C12.7593 22.9318 12.9283 22.8963 13.0647 22.8253C13.2025 22.7543 13.3126 22.6726 13.395 22.5803C13.4788 22.4879 13.5406 22.4091 13.5803 22.3438L13.6911 22.4205C13.6428 22.5028 13.5704 22.5945 13.4738 22.6953C13.3772 22.7962 13.2536 22.8835 13.1031 22.9574C12.9525 23.0313 12.7707 23.0682 12.5576 23.0682ZM15.3114 23.0682C15.1324 23.0682 14.9669 23.0313 14.815 22.9574C14.6644 22.8835 14.5429 22.7756 14.4506 22.6335C14.3597 22.4915 14.3142 22.3182 14.3142 22.1136C14.3142 22.0028 14.332 21.8991 14.3675 21.8026C14.403 21.7045 14.4655 21.6158 14.555 21.5362C14.6445 21.4567 14.7695 21.3885 14.93 21.3317C15.0919 21.2749 15.2986 21.2315 15.55 21.2017C15.7006 21.1847 15.8426 21.1648 15.9762 21.142C16.1097 21.1193 16.2184 21.0852 16.3022 21.0398C16.386 20.9943 16.4279 20.929 16.4279 20.8438V20.6477C16.4279 20.3963 16.3434 20.1946 16.1743 20.0426C16.0053 19.8892 15.7801 19.8125 15.4989 19.8125C15.2688 19.8125 15.0678 19.8636 14.8959 19.9659C14.724 20.0668 14.604 20.2088 14.5358 20.392L14.408 20.3409C14.4591 20.2045 14.538 20.0866 14.6445 19.9872C14.751 19.8878 14.8775 19.8111 15.0238 19.7571C15.1701 19.7031 15.3284 19.6761 15.4989 19.6761C15.6651 19.6761 15.8135 19.701 15.9442 19.7507C16.0763 19.799 16.1885 19.8672 16.2809 19.9553C16.3732 20.0419 16.4435 20.1442 16.4918 20.2621C16.5401 20.38 16.5642 20.5085 16.5642 20.6477V23H16.4279V22.3352H16.4108C16.3426 22.483 16.2539 22.6122 16.1445 22.723C16.0365 22.8324 15.9115 22.9176 15.7695 22.9787C15.6289 23.0384 15.4762 23.0682 15.3114 23.0682ZM15.3114 22.9318C15.5188 22.9318 15.707 22.8764 15.876 22.7656C16.0451 22.6534 16.1793 22.4979 16.2787 22.299C16.3782 22.0987 16.4279 21.8665 16.4279 21.6023V21.108C16.3881 21.1378 16.3398 21.1641 16.283 21.1868C16.2276 21.2095 16.1644 21.2301 16.0934 21.2486C16.0238 21.2656 15.9478 21.2805 15.8654 21.2933C15.783 21.3061 15.6949 21.3182 15.6012 21.3295C15.3086 21.3636 15.0784 21.4155 14.9108 21.4851C14.7432 21.5547 14.6246 21.642 14.555 21.7472C14.4854 21.8523 14.4506 21.9744 14.4506 22.1136C14.4506 22.3608 14.533 22.5589 14.6978 22.7081C14.864 22.8572 15.0685 22.9318 15.3114 22.9318ZM17.4393 23V19.7273H17.5757V20.2131H17.5927C17.6524 20.054 17.7589 19.9261 17.9123 19.8295C18.0672 19.733 18.2532 19.6847 18.4706 19.6847C18.7177 19.6847 18.9145 19.7457 19.0608 19.8679C19.2085 19.9901 19.31 20.1534 19.3654 20.358H19.3825C19.4365 20.1534 19.5458 19.9901 19.7106 19.8679C19.8754 19.7457 20.0814 19.6847 20.3285 19.6847C20.6566 19.6847 20.8988 19.7891 21.0551 19.9979C21.2127 20.2053 21.2916 20.473 21.2916 20.8011V23H21.1552V20.8011C21.1552 20.5114 21.0899 20.2756 20.9592 20.0938C20.8285 19.9119 20.6183 19.821 20.3285 19.821C20.0387 19.821 19.8172 19.9134 19.6637 20.098C19.5103 20.2812 19.4336 20.5156 19.4336 20.8011V23H19.2973V20.8011C19.2973 20.5114 19.2319 20.2756 19.1012 20.0938C18.9706 19.9119 18.7603 19.821 18.4706 19.821C18.2774 19.821 18.114 19.8629 17.9805 19.9467C17.8484 20.0305 17.7475 20.1463 17.6779 20.294C17.6098 20.4418 17.5757 20.6108 17.5757 20.8011V23H17.4393Z" fill="white"/>
<path d="M10.3665 6.77273V6.63636H13.3153V6.77273H11.9091V11H11.7727V6.77273H10.3665ZM14.0956 8.80114V11H13.9592V6.63636H14.0956V8.24716H14.1126C14.1893 8.0767 14.3151 7.94034 14.4898 7.83807C14.6659 7.7358 14.8669 7.68466 15.0928 7.68466C15.3115 7.68466 15.5047 7.73224 15.6723 7.82741C15.8399 7.92259 15.9713 8.05398 16.0665 8.22159C16.1616 8.3892 16.2092 8.58239 16.2092 8.80114V11H16.0729V8.80114C16.0729 8.51136 15.982 8.27557 15.8001 8.09375C15.6183 7.91193 15.3825 7.82102 15.0928 7.82102C14.8996 7.82102 14.7277 7.86293 14.5771 7.94673C14.428 8.03054 14.3101 8.14631 14.2234 8.29403C14.1382 8.44176 14.0956 8.6108 14.0956 8.80114ZM18.2967 11.0682C18.0112 11.0682 17.7612 10.9936 17.5467 10.8445C17.3336 10.6953 17.1681 10.4929 17.0502 10.2372C16.9323 9.98153 16.8734 9.69318 16.8734 9.37216C16.8734 9.05114 16.9323 8.76278 17.0502 8.5071C17.1695 8.25142 17.3315 8.04901 17.536 7.89986C17.7406 7.75071 17.9714 7.67614 18.2285 7.67614C18.4188 7.67614 18.595 7.71662 18.7569 7.79759C18.9202 7.87855 19.0623 7.99077 19.183 8.13423C19.3038 8.2777 19.3975 8.44318 19.4643 8.63068C19.5325 8.81676 19.5665 9.01562 19.5665 9.22727V9.36364H16.9415V9.22727H19.4302C19.4302 8.96449 19.3762 8.72656 19.2683 8.51349C19.1603 8.29901 19.0154 8.12855 18.8336 8.00213C18.6518 7.87571 18.4501 7.8125 18.2285 7.8125C18.004 7.8125 17.8009 7.87926 17.6191 8.01278C17.4373 8.14631 17.2917 8.32812 17.1823 8.55824C17.0729 8.78835 17.0154 9.0483 17.0097 9.33807V9.35511C17.0097 9.64062 17.0594 9.90341 17.1589 10.1435C17.2597 10.3821 17.406 10.5732 17.5978 10.7166C17.7896 10.8601 18.0225 10.9318 18.2967 10.9318C18.4984 10.9318 18.6674 10.8963 18.8038 10.8253C18.9415 10.7543 19.0516 10.6726 19.134 10.5803C19.2178 10.4879 19.2796 10.4091 19.3194 10.3438L19.4302 10.4205C19.3819 10.5028 19.3094 10.5945 19.2129 10.6953C19.1163 10.7962 18.9927 10.8835 18.8421 10.9574C18.6915 11.0313 18.5097 11.0682 18.2967 11.0682Z" fill="white"/>
</svg>
