<svg width="30" height="30" viewBox="0 0 30 30" fill="none" xmlns="http://www.w3.org/2000/svg">
<rect width="30" height="30" rx="15" fill="#C03E41"/>
<path d="M10.5696 10.2727V10.6278H9.15625V10.2727H10.5696ZM9.56818 9.61932H9.98722V12.2188C9.98722 12.3371 10.0044 12.4259 10.0387 12.4851C10.0742 12.5431 10.1192 12.5821 10.1737 12.6023C10.2293 12.6212 10.2879 12.6307 10.3494 12.6307C10.3956 12.6307 10.4335 12.6283 10.4631 12.6236C10.4927 12.6177 10.5163 12.6129 10.5341 12.6094L10.6193 12.9858C10.5909 12.9964 10.5513 13.0071 10.5004 13.0178C10.4495 13.0296 10.3849 13.0355 10.3068 13.0355C10.1884 13.0355 10.0724 13.0101 9.95881 12.9592C9.84635 12.9083 9.75284 12.8307 9.67827 12.7266C9.60488 12.6224 9.56818 12.491 9.56818 12.3324V9.61932ZM12.3141 13.0568C12.0513 13.0568 11.8246 12.9988 11.6341 12.8828C11.4447 12.7656 11.2985 12.6023 11.1955 12.3928C11.0937 12.1821 11.0428 11.937 11.0428 11.6577C11.0428 11.3783 11.0937 11.1321 11.1955 10.919C11.2985 10.7048 11.4417 10.5379 11.6252 10.4183C11.8098 10.2976 12.0253 10.2372 12.2715 10.2372C12.4135 10.2372 12.5538 10.2609 12.6923 10.3082C12.8308 10.3556 12.9569 10.4325 13.0705 10.5391C13.1841 10.6444 13.2747 10.7841 13.3422 10.9581C13.4096 11.1321 13.4434 11.3464 13.4434 11.6009V11.7784H11.3411V11.4162H13.0172C13.0172 11.2623 12.9864 11.125 12.9249 11.0043C12.8645 10.8835 12.7781 10.7882 12.6657 10.7184C12.5544 10.6486 12.423 10.6136 12.2715 10.6136C12.1046 10.6136 11.9602 10.6551 11.8382 10.7379C11.7175 10.8196 11.6246 10.9261 11.5595 11.0575C11.4944 11.1889 11.4618 11.3298 11.4618 11.4801V11.7216C11.4618 11.9276 11.4973 12.1022 11.5684 12.2454C11.6406 12.3874 11.7406 12.4957 11.8684 12.5703C11.9963 12.6437 12.1448 12.6804 12.3141 12.6804C12.4242 12.6804 12.5236 12.665 12.6124 12.6342C12.7024 12.6023 12.7799 12.5549 12.845 12.4922C12.9101 12.4283 12.9604 12.349 12.9959 12.2543L13.4007 12.3679C13.3581 12.5052 13.2865 12.6259 13.1859 12.7301C13.0853 12.8331 12.961 12.9136 12.813 12.9716C12.6651 13.0284 12.4988 13.0568 12.3141 13.0568ZM14.8833 13.0639C14.7105 13.0639 14.5537 13.0314 14.4128 12.9663C14.272 12.9 14.1601 12.8047 14.0772 12.6804C13.9944 12.5549 13.9529 12.4034 13.9529 12.2259C13.9529 12.0696 13.9837 11.9429 14.0453 11.8459C14.1068 11.7476 14.1891 11.6707 14.2921 11.6151C14.3951 11.5594 14.5087 11.518 14.633 11.4908C14.7585 11.4624 14.8845 11.4399 15.0112 11.4233C15.1769 11.402 15.3113 11.386 15.4142 11.3754C15.5184 11.3635 15.5942 11.344 15.6415 11.3168C15.69 11.2895 15.7143 11.2422 15.7143 11.1747V11.1605C15.7143 10.9853 15.6664 10.8492 15.5705 10.7521C15.4758 10.6551 15.332 10.6065 15.139 10.6065C14.939 10.6065 14.7821 10.6503 14.6685 10.7379C14.5549 10.8255 14.475 10.919 14.4288 11.0185L14.0311 10.8764C14.1021 10.7107 14.1968 10.5817 14.3152 10.4893C14.4347 10.3958 14.5649 10.3307 14.7058 10.294C14.8478 10.2562 14.9875 10.2372 15.1248 10.2372C15.2124 10.2372 15.313 10.2479 15.4267 10.2692C15.5415 10.2893 15.6522 10.3313 15.7587 10.3952C15.8664 10.4592 15.9558 10.5556 16.0268 10.6847C16.0978 10.8137 16.1333 10.9865 16.1333 11.2031V13H15.7143V12.6307H15.693C15.6646 12.6899 15.6172 12.7532 15.551 12.8207C15.4847 12.8881 15.3965 12.9455 15.2864 12.9929C15.1763 13.0402 15.042 13.0639 14.8833 13.0639ZM14.9473 12.6875C15.113 12.6875 15.2527 12.6549 15.3663 12.5898C15.4811 12.5247 15.5675 12.4407 15.6255 12.3377C15.6847 12.2347 15.7143 12.1264 15.7143 12.0128V11.6293C15.6966 11.6506 15.6575 11.6701 15.5971 11.6879C15.5379 11.7044 15.4693 11.7192 15.3912 11.7322C15.3142 11.7441 15.2391 11.7547 15.1657 11.7642C15.0935 11.7725 15.0349 11.7796 14.9899 11.7855C14.881 11.7997 14.7792 11.8228 14.6845 11.8548C14.591 11.8855 14.5152 11.9323 14.4572 11.995C14.4004 12.0566 14.372 12.1406 14.372 12.2472C14.372 12.3928 14.4258 12.5028 14.5336 12.5774C14.6425 12.6508 14.7804 12.6875 14.9473 12.6875ZM16.8982 13V10.2727H17.303V10.6989H17.3385C17.3953 10.5533 17.4871 10.4402 17.6137 10.3597C17.7404 10.2781 17.8925 10.2372 18.07 10.2372C18.25 10.2372 18.3997 10.2781 18.5193 10.3597C18.64 10.4402 18.7341 10.5533 18.8016 10.6989H18.83C18.8998 10.558 19.0046 10.4461 19.1443 10.3633C19.2839 10.2792 19.4514 10.2372 19.6468 10.2372C19.8906 10.2372 20.0901 10.3136 20.2451 10.4663C20.4002 10.6178 20.4777 10.8539 20.4777 11.1747V13H20.0587V11.1747C20.0587 10.9735 20.0036 10.8297 19.8936 10.7433C19.7835 10.6568 19.6539 10.6136 19.5047 10.6136C19.3129 10.6136 19.1644 10.6716 19.059 10.7876C18.9537 10.9025 18.901 11.0481 18.901 11.2244V13H18.4749V11.1321C18.4749 10.977 18.4246 10.8522 18.324 10.7575C18.2233 10.6616 18.0937 10.6136 17.9351 10.6136C17.8262 10.6136 17.7244 10.6426 17.6297 10.7006C17.5362 10.7586 17.4604 10.8391 17.4024 10.9421C17.3456 11.0439 17.3172 11.1617 17.3172 11.2955V13H16.8982Z" fill="black"/>
<path d="M1.82528 13.9091L3.33665 18.1946H3.39631L4.90767 13.9091H5.55398L3.68466 19H3.0483L1.17898 13.9091H1.82528ZM7.03551 19.0895C6.79356 19.0895 6.57398 19.0439 6.37678 18.9528C6.17957 18.86 6.02296 18.7266 5.90696 18.5526C5.79096 18.3769 5.73295 18.1648 5.73295 17.9162C5.73295 17.6974 5.77604 17.5201 5.86222 17.3842C5.94839 17.2467 6.06357 17.139 6.20774 17.0611C6.35192 16.9832 6.51101 16.9252 6.68501 16.8871C6.86068 16.8473 7.03717 16.8158 7.21449 16.7926C7.4465 16.7628 7.63459 16.7404 7.77876 16.7255C7.9246 16.7089 8.03066 16.6816 8.09695 16.6435C8.16489 16.6054 8.19886 16.5391 8.19886 16.4446V16.4247C8.19886 16.1795 8.13175 15.9889 7.99751 15.853C7.86494 15.7171 7.66359 15.6491 7.39347 15.6491C7.1134 15.6491 6.89382 15.7105 6.73473 15.8331C6.57564 15.9557 6.46378 16.0866 6.39915 16.2259L5.84233 16.027C5.94176 15.795 6.07434 15.6143 6.24006 15.4851C6.40743 15.3542 6.58973 15.263 6.78693 15.2116C6.9858 15.1586 7.18134 15.1321 7.37358 15.1321C7.49621 15.1321 7.63707 15.147 7.79616 15.1768C7.95691 15.205 8.11186 15.2638 8.26101 15.3533C8.41181 15.4428 8.53693 15.5779 8.63636 15.7585C8.7358 15.9392 8.78551 16.1811 8.78551 16.4844V19H8.19886V18.483H8.16903C8.12926 18.5658 8.06297 18.6545 7.97017 18.7489C7.87737 18.8434 7.75391 18.9238 7.59979 18.9901C7.44567 19.0563 7.25758 19.0895 7.03551 19.0895ZM7.125 18.5625C7.35701 18.5625 7.55256 18.5169 7.71165 18.4258C7.8724 18.3346 7.99337 18.217 8.07457 18.0728C8.15743 17.9286 8.19886 17.777 8.19886 17.6179V17.081C8.17401 17.1108 8.11932 17.1381 8.0348 17.163C7.95194 17.1862 7.85582 17.2069 7.74645 17.2251C7.63873 17.2417 7.5335 17.2566 7.43075 17.2699C7.32966 17.2815 7.24763 17.2914 7.18466 17.2997C7.0322 17.3196 6.88968 17.3519 6.7571 17.3967C6.62618 17.4397 6.52012 17.5052 6.43892 17.593C6.35938 17.6792 6.3196 17.7969 6.3196 17.946C6.3196 18.1499 6.395 18.304 6.54581 18.4084C6.69827 18.5111 6.89134 18.5625 7.125 18.5625ZM10.4429 16.7031V19H9.85627V15.1818H10.423V15.7784H10.4727C10.5622 15.5845 10.6981 15.4287 10.8804 15.3111C11.0627 15.1918 11.298 15.1321 11.5864 15.1321C11.8449 15.1321 12.0711 15.1851 12.265 15.2912C12.4589 15.3956 12.6097 15.5547 12.7174 15.7685C12.8251 15.9806 12.879 16.2491 12.879 16.5739V19H12.2923V16.6136C12.2923 16.3137 12.2145 16.08 12.0587 15.9126C11.9029 15.7436 11.6891 15.6591 11.4173 15.6591C11.2301 15.6591 11.0627 15.6997 10.9152 15.7809C10.7694 15.8621 10.6542 15.9806 10.5697 16.1364C10.4852 16.2921 10.4429 16.4811 10.4429 16.7031ZM15.4922 20.5114C15.2088 20.5114 14.9652 20.4749 14.7614 20.402C14.5575 20.3307 14.3877 20.2363 14.2518 20.1186C14.1175 20.0026 14.0107 19.8783 13.9311 19.7457L14.3984 19.4176C14.4515 19.4872 14.5186 19.5668 14.5998 19.6562C14.681 19.7474 14.792 19.8261 14.9329 19.8924C15.0754 19.9603 15.2618 19.9943 15.4922 19.9943C15.8004 19.9943 16.0548 19.9197 16.2553 19.7706C16.4558 19.6214 16.5561 19.3878 16.5561 19.0696V18.294H16.5064C16.4633 18.3636 16.402 18.4498 16.3224 18.5526C16.2446 18.6536 16.1319 18.744 15.9844 18.8235C15.8385 18.9014 15.6413 18.9403 15.3928 18.9403C15.0845 18.9403 14.8078 18.8674 14.5625 18.7216C14.3189 18.5758 14.1258 18.3636 13.9833 18.0852C13.8424 17.8068 13.772 17.4687 13.772 17.071C13.772 16.6799 13.8408 16.3394 13.9783 16.0494C14.1159 15.7577 14.3073 15.5323 14.5526 15.3732C14.7978 15.2125 15.0812 15.1321 15.4027 15.1321C15.6513 15.1321 15.8485 15.1735 15.9943 15.2564C16.1418 15.3376 16.2545 15.4304 16.3324 15.5348C16.4119 15.6375 16.4732 15.7221 16.5163 15.7884H16.576V15.1818H17.1428V19.1094C17.1428 19.4375 17.0682 19.7043 16.919 19.9098C16.7715 20.117 16.5727 20.2686 16.3224 20.3647C16.0739 20.4625 15.7971 20.5114 15.4922 20.5114ZM15.4723 18.4134C15.7076 18.4134 15.9065 18.3595 16.0689 18.2518C16.2313 18.1441 16.3548 17.9891 16.4393 17.7869C16.5238 17.5848 16.5661 17.3428 16.5661 17.0611C16.5661 16.786 16.5246 16.5432 16.4418 16.3327C16.3589 16.1223 16.2363 15.9574 16.0739 15.8381C15.9115 15.7187 15.7109 15.6591 15.4723 15.6591C15.2237 15.6591 15.0166 15.7221 14.8509 15.848C14.6868 15.974 14.5633 16.143 14.4805 16.3551C14.3993 16.5672 14.3587 16.8026 14.3587 17.0611C14.3587 17.3262 14.4001 17.5607 14.483 17.7646C14.5675 17.9667 14.6918 18.1258 14.8558 18.2418C15.0215 18.3562 15.227 18.4134 15.4723 18.4134ZM19.3402 19.0895C19.0982 19.0895 18.8787 19.0439 18.6815 18.9528C18.4843 18.86 18.3277 18.7266 18.2116 18.5526C18.0956 18.3769 18.0376 18.1648 18.0376 17.9162C18.0376 17.6974 18.0807 17.5201 18.1669 17.3842C18.2531 17.2467 18.3683 17.139 18.5124 17.0611C18.6566 16.9832 18.8157 16.9252 18.9897 16.8871C19.1654 16.8473 19.3419 16.8158 19.5192 16.7926C19.7512 16.7628 19.9393 16.7404 20.0835 16.7255C20.2293 16.7089 20.3353 16.6816 20.4016 16.6435C20.4696 16.6054 20.5036 16.5391 20.5036 16.4446V16.4247C20.5036 16.1795 20.4364 15.9889 20.3022 15.853C20.1696 15.7171 19.9683 15.6491 19.6982 15.6491C19.4181 15.6491 19.1985 15.7105 19.0394 15.8331C18.8803 15.9557 18.7685 16.0866 18.7038 16.2259L18.147 16.027C18.2464 15.795 18.379 15.6143 18.5447 15.4851C18.7121 15.3542 18.8944 15.263 19.0916 15.2116C19.2905 15.1586 19.486 15.1321 19.6783 15.1321C19.8009 15.1321 19.9418 15.147 20.1009 15.1768C20.2616 15.205 20.4165 15.2638 20.5657 15.3533C20.7165 15.4428 20.8416 15.5779 20.9411 15.7585C21.0405 15.9392 21.0902 16.1811 21.0902 16.4844V19H20.5036V18.483H20.4737C20.4339 18.5658 20.3677 18.6545 20.2749 18.7489C20.1821 18.8434 20.0586 18.9238 19.9045 18.9901C19.7504 19.0563 19.5623 19.0895 19.3402 19.0895ZM19.4297 18.5625C19.6617 18.5625 19.8572 18.5169 20.0163 18.4258C20.1771 18.3346 20.2981 18.217 20.3793 18.0728C20.4621 17.9286 20.5036 17.777 20.5036 17.6179V17.081C20.4787 17.1108 20.424 17.1381 20.3395 17.163C20.2566 17.1862 20.1605 17.2069 20.0511 17.2251C19.9434 17.2417 19.8382 17.2566 19.7354 17.2699C19.6344 17.2815 19.5523 17.2914 19.4893 17.2997C19.3369 17.3196 19.1944 17.3519 19.0618 17.3967C18.9309 17.4397 18.8248 17.5052 18.7436 17.593C18.6641 17.6792 18.6243 17.7969 18.6243 17.946C18.6243 18.1499 18.6997 18.304 18.8505 18.4084C19.003 18.5111 19.196 18.5625 19.4297 18.5625ZM22.161 19V15.1818H22.7277V15.7585H22.7675C22.8371 15.5696 22.963 15.4163 23.1453 15.2987C23.3276 15.181 23.5331 15.1222 23.7618 15.1222C23.8049 15.1222 23.8588 15.123 23.9234 15.1246C23.988 15.1263 24.0369 15.1288 24.07 15.1321V15.7287C24.0502 15.7237 24.0046 15.7163 23.9333 15.7063C23.8637 15.6947 23.79 15.6889 23.7121 15.6889C23.5265 15.6889 23.3608 15.7279 23.2149 15.8058C23.0708 15.882 22.9564 15.988 22.8719 16.1239C22.789 16.2582 22.7476 16.4115 22.7476 16.5838V19H22.161ZM26.091 19.0795C25.7728 19.0795 25.4919 18.9992 25.2483 18.8384C25.0047 18.676 24.8141 18.4473 24.6766 18.1523C24.539 17.8557 24.4703 17.5052 24.4703 17.1009C24.4703 16.6998 24.539 16.3518 24.6766 16.0568C24.8141 15.7618 25.0055 15.534 25.2508 15.3732C25.4961 15.2125 25.7794 15.1321 26.1009 15.1321C26.3495 15.1321 26.5459 15.1735 26.6901 15.2564C26.8359 15.3376 26.9469 15.4304 27.0232 15.5348C27.1011 15.6375 27.1615 15.7221 27.2046 15.7884H27.2544V13.9091H27.841V19H27.2742V18.4134H27.2046C27.1615 18.483 27.1002 18.5708 27.0207 18.6768C26.9411 18.7812 26.8276 18.8749 26.6801 18.9577C26.5326 19.0389 26.3363 19.0795 26.091 19.0795ZM26.1705 18.5526C26.4059 18.5526 26.6047 18.4912 26.7671 18.3686C26.9295 18.2443 27.053 18.0728 27.1375 17.854C27.222 17.6336 27.2643 17.3793 27.2643 17.0909C27.2643 16.8059 27.2229 16.5565 27.14 16.3427C27.0571 16.1272 26.9345 15.9599 26.7721 15.8406C26.6097 15.7196 26.4092 15.6591 26.1705 15.6591C25.922 15.6591 25.7148 15.7229 25.5491 15.8505C25.385 15.9764 25.2616 16.148 25.1787 16.3651C25.0975 16.5805 25.0569 16.8224 25.0569 17.0909C25.0569 17.3627 25.0983 17.6096 25.1812 17.8317C25.2657 18.0521 25.39 18.2277 25.5541 18.3587C25.7198 18.4879 25.9253 18.5526 26.1705 18.5526Z" fill="black"/>
</svg>
