<svg width="28" height="50" viewBox="0 0 28 50" fill="none" xmlns="http://www.w3.org/2000/svg">
<path d="M14.0001 41L27 50H1L14.0001 41Z" fill="#404040"/>
<path d="M14.2799 49L0.999999 6.40341L28 -4.76837e-07L14.2799 49Z" fill="#404040"/>
<path d="M2.43532 9.07232L7.51187 5.81489L7.72589 6.49806L3.56742 9.07492L3.5844 9.12914L8.47663 8.89459L8.71442 9.65367L4.56274 12.2522L4.57973 12.3064L9.46516 12.0502L9.67917 12.7334L3.65146 12.9545L3.43405 12.2605L7.47454 9.6491L7.46095 9.60573L2.65273 9.76634L2.43532 9.07232ZM10.1522 14.2434L4.60007 15.9827L4.38946 15.3103L9.94159 13.5711L10.1522 14.2434ZM11.9537 19.9941L6.40155 21.7334L6.19773 21.0827L9.60926 16.6917L9.59227 16.6374L5.23298 18.003L5.02236 17.3307L10.5745 15.5914L10.7783 16.2421L7.35935 20.6474L7.37633 20.7016L11.7465 19.3326L11.9537 19.9941ZM11.6836 21.2226L12.28 21.0358L13.5845 25.1999L12.988 25.3867L12.4411 23.6409L7.48541 25.1933L7.2748 24.521L12.2305 22.9685L11.6836 21.2226ZM8.35738 27.9768L13.9095 26.2375L14.9592 29.5883L14.3628 29.7752L13.5237 27.0967L11.6477 27.6844L12.4324 30.1894L11.836 30.3762L11.0513 27.8712L9.16442 28.4623L10.0171 31.1842L9.42065 31.371L8.35738 27.9768ZM9.78668 32.5394L15.3388 30.8002L15.9265 32.6762C16.0624 33.1099 16.0998 33.4892 16.0388 33.8139C15.9796 34.1381 15.8426 34.4073 15.6279 34.6214C15.4131 34.8356 15.1422 34.9939 14.8151 35.0964C14.4879 35.1988 14.1769 35.2228 13.882 35.1684C13.5871 35.1139 13.324 34.971 13.0928 34.7398C12.8634 34.508 12.6813 34.177 12.5466 33.7469L12.071 32.2287L12.6782 32.0385L13.147 33.535C13.2399 33.8314 13.358 34.0563 13.5014 34.2099C13.6453 34.3653 13.8095 34.4587 13.9941 34.4902C14.1809 34.523 14.3855 34.5045 14.6078 34.4349C14.8302 34.3652 15.0114 34.2628 15.1516 34.1276C15.2919 33.9924 15.3786 33.8193 15.4118 33.6085C15.4468 33.3971 15.4173 33.1413 15.3233 32.8413L14.953 31.6593L9.99729 33.2118L9.78668 32.5394ZM13.0995 34.3715L11.0334 36.5192L10.7888 35.7384L12.8617 33.6124L13.0995 34.3715Z" fill="#89D0E8"/>
<path d="M15.5 45L22 0H28L15.5 45Z" fill="#89D0E8"/>
</svg>
