<svg width="26" height="46" viewBox="0 0 26 46" fill="none" xmlns="http://www.w3.org/2000/svg">
<path d="M13.0001 42L26 46H0L13.0001 42Z" fill="#404040"/>
<rect x="12" y="38" width="2" height="5" fill="#404040"/>
<path d="M2 0H24L25.7881 29.5044C25.9229 31.7274 25.0985 33.9015 23.5237 35.4763V35.4763C22.5267 36.4733 21.2774 37.1807 19.9094 37.5226L19.2308 37.6923C18.4133 37.8967 17.5739 38 16.7313 38H9.26866C8.42607 38 7.58665 37.8967 6.76922 37.6923L6.09055 37.5226C4.7226 37.1807 3.47332 36.4733 2.47626 35.4763V35.4763C0.901513 33.9015 0.0771271 31.7274 0.211852 29.5044L2 0Z" fill="#404040"/>
<path d="M5.00164 15L3.6096 9.90909H4.23602L5.29994 14.0554H5.34965L6.43346 9.90909H7.12948L8.21329 14.0554H8.26301L9.32693 9.90909H9.95335L8.5613 15H7.92494L6.80136 10.9432H6.76159L5.63801 15H5.00164ZM11.8376 15.0795C11.4929 15.0795 11.1904 14.9975 10.9303 14.8335C10.6717 14.6694 10.4696 14.4399 10.3237 14.1449C10.1796 13.8499 10.1075 13.5052 10.1075 13.1108C10.1075 12.7131 10.1796 12.3659 10.3237 12.0692C10.4696 11.7726 10.6717 11.5423 10.9303 11.3782C11.1904 11.2141 11.4929 11.1321 11.8376 11.1321C12.1823 11.1321 12.4839 11.2141 12.7424 11.3782C13.0026 11.5423 13.2048 11.7726 13.3489 12.0692C13.4948 12.3659 13.5677 12.7131 13.5677 13.1108C13.5677 13.5052 13.4948 13.8499 13.3489 14.1449C13.2048 14.4399 13.0026 14.6694 12.7424 14.8335C12.4839 14.9975 12.1823 15.0795 11.8376 15.0795ZM11.8376 14.5526C12.0994 14.5526 12.3149 14.4854 12.4839 14.3512C12.6529 14.217 12.778 14.0405 12.8592 13.8217C12.9404 13.603 12.981 13.366 12.981 13.1108C12.981 12.8556 12.9404 12.6178 12.8592 12.3974C12.778 12.177 12.6529 11.9988 12.4839 11.8629C12.3149 11.727 12.0994 11.6591 11.8376 11.6591C11.5757 11.6591 11.3603 11.727 11.1913 11.8629C11.0222 11.9988 10.8971 12.177 10.8159 12.3974C10.7347 12.6178 10.6941 12.8556 10.6941 13.1108C10.6941 13.366 10.7347 13.603 10.8159 13.8217C10.8971 14.0405 11.0222 14.217 11.1913 14.3512C11.3603 14.4854 11.5757 14.5526 11.8376 14.5526ZM14.4632 15V11.1818H15.03V11.7585H15.0697C15.1393 11.5696 15.2653 11.4163 15.4476 11.2987C15.6299 11.181 15.8354 11.1222 16.0641 11.1222C16.1071 11.1222 16.161 11.123 16.2256 11.1246C16.2903 11.1263 16.3391 11.1288 16.3723 11.1321V11.7287C16.3524 11.7237 16.3068 11.7163 16.2356 11.7063C16.166 11.6947 16.0922 11.6889 16.0143 11.6889C15.8287 11.6889 15.663 11.7279 15.5172 11.8058C15.373 11.882 15.2587 11.988 15.1741 12.1239C15.0913 12.2582 15.0498 12.4115 15.0498 12.5838V15H14.4632ZM17.6543 9.90909V15H17.0677V9.90909H17.6543ZM20.1706 15.0795C19.8524 15.0795 19.5715 14.9992 19.3279 14.8384C19.0843 14.676 18.8937 14.4473 18.7562 14.1523C18.6186 13.8557 18.5498 13.5052 18.5498 13.1009C18.5498 12.6998 18.6186 12.3518 18.7562 12.0568C18.8937 11.7618 19.0851 11.534 19.3304 11.3732C19.5757 11.2125 19.859 11.1321 20.1805 11.1321C20.4291 11.1321 20.6255 11.1735 20.7697 11.2564C20.9155 11.3376 21.0265 11.4304 21.1028 11.5348C21.1806 11.6375 21.2411 11.7221 21.2842 11.7884H21.3339V9.90909H21.9206V15H21.3538V14.4134H21.2842C21.2411 14.483 21.1798 14.5708 21.1003 14.6768C21.0207 14.7812 20.9072 14.8749 20.7597 14.9577C20.6122 15.0389 20.4159 15.0795 20.1706 15.0795ZM20.2501 14.5526C20.4855 14.5526 20.6843 14.4912 20.8467 14.3686C21.0091 14.2443 21.1326 14.0728 21.2171 13.854C21.3016 13.6336 21.3439 13.3793 21.3439 13.0909C21.3439 12.8059 21.3025 12.5565 21.2196 12.3427C21.1367 12.1272 21.0141 11.9599 20.8517 11.8406C20.6893 11.7196 20.4888 11.6591 20.2501 11.6591C20.0016 11.6591 19.7944 11.7229 19.6287 11.8505C19.4646 11.9764 19.3412 12.148 19.2583 12.3651C19.1771 12.5805 19.1365 12.8224 19.1365 13.0909C19.1365 13.3627 19.1779 13.6096 19.2608 13.8317C19.3453 14.0521 19.4696 14.2277 19.6337 14.3587C19.7994 14.4879 20.0049 14.5526 20.2501 14.5526ZM11.0002 19.5H10.3837C10.3472 19.3227 10.2834 19.1669 10.1923 19.0327C10.1028 18.8984 9.99343 18.7857 9.86417 18.6946C9.73656 18.6018 9.59487 18.5322 9.4391 18.4858C9.28332 18.4394 9.12092 18.4162 8.95188 18.4162C8.64364 18.4162 8.36441 18.4941 8.11417 18.6499C7.86559 18.8056 7.66755 19.0352 7.52006 19.3384C7.37423 19.6417 7.30131 20.0137 7.30131 20.4545C7.30131 20.8954 7.37423 21.2674 7.52006 21.5707C7.66755 21.8739 7.86559 22.1035 8.11417 22.2592C8.36441 22.415 8.64364 22.4929 8.95188 22.4929C9.12092 22.4929 9.28332 22.4697 9.4391 22.4233C9.59487 22.3769 9.73656 22.3081 9.86417 22.217C9.99343 22.1242 10.1028 22.0107 10.1923 21.8764C10.2834 21.7405 10.3472 21.5848 10.3837 21.4091H11.0002C10.9538 21.6693 10.8693 21.9021 10.7466 22.1076C10.624 22.3131 10.4715 22.4879 10.2892 22.6321C10.1069 22.7746 9.90228 22.8832 9.67525 22.9577C9.44987 23.0323 9.20875 23.0696 8.95188 23.0696C8.5177 23.0696 8.13157 22.9635 7.7935 22.7514C7.45543 22.5393 7.18945 22.2377 6.99556 21.8466C6.80167 21.4555 6.70472 20.9915 6.70472 20.4545C6.70472 19.9176 6.80167 19.4536 6.99556 19.0625C7.18945 18.6714 7.45543 18.3698 7.7935 18.1577C8.13157 17.9455 8.5177 17.8395 8.95188 17.8395C9.20875 17.8395 9.44987 17.8768 9.67525 17.9513C9.90228 18.0259 10.1069 18.1353 10.2892 18.2795C10.4715 18.422 10.624 18.596 10.7466 18.8015C10.8693 19.0053 10.9538 19.2382 11.0002 19.5ZM14.3231 21.4389V19.1818H14.9097V23H14.3231V22.3537H14.2833C14.1938 22.5476 14.0546 22.7125 13.8657 22.8484C13.6768 22.9826 13.4381 23.0497 13.1498 23.0497C12.9111 23.0497 12.699 22.9975 12.5134 22.8931C12.3278 22.7871 12.182 22.628 12.0759 22.4158C11.9698 22.2021 11.9168 21.9328 11.9168 21.608V19.1818H12.5035V21.5682C12.5035 21.8466 12.5814 22.0687 12.7371 22.2344C12.8946 22.4001 13.0951 22.483 13.3387 22.483C13.4845 22.483 13.6328 22.4457 13.7836 22.3711C13.9361 22.2965 14.0637 22.1822 14.1665 22.0281C14.2709 21.8739 14.3231 21.6776 14.3231 21.4389ZM15.9842 24.4318V19.1818H16.551V19.7884H16.6206C16.6636 19.7221 16.7233 19.6375 16.7995 19.5348C16.8774 19.4304 16.9885 19.3376 17.1326 19.2564C17.2785 19.1735 17.4757 19.1321 17.7243 19.1321C18.0458 19.1321 18.3291 19.2125 18.5744 19.3732C18.8197 19.534 19.0111 19.7618 19.1486 20.0568C19.2862 20.3518 19.3549 20.6998 19.3549 21.1009C19.3549 21.5052 19.2862 21.8557 19.1486 22.1523C19.0111 22.4473 18.8205 22.676 18.5769 22.8384C18.3333 22.9992 18.0524 23.0795 17.7342 23.0795C17.4889 23.0795 17.2926 23.0389 17.1451 22.9577C16.9976 22.8749 16.8841 22.7812 16.8045 22.6768C16.725 22.5708 16.6636 22.483 16.6206 22.4134H16.5708V24.4318H15.9842ZM16.5609 21.0909C16.5609 21.3793 16.6032 21.6336 16.6877 21.854C16.7722 22.0728 16.8957 22.2443 17.0581 22.3686C17.2205 22.4912 17.4193 22.5526 17.6547 22.5526C17.8999 22.5526 18.1046 22.4879 18.2686 22.3587C18.4344 22.2277 18.5587 22.0521 18.6415 21.8317C18.726 21.6096 18.7683 21.3627 18.7683 21.0909C18.7683 20.8224 18.7269 20.5805 18.644 20.3651C18.5628 20.148 18.4393 19.9764 18.2736 19.8505C18.1096 19.7229 17.9032 19.6591 17.6547 19.6591C17.416 19.6591 17.2155 19.7196 17.0531 19.8406C16.8907 19.9599 16.7681 20.1272 16.6852 20.3427C16.6023 20.5565 16.5609 20.8059 16.5609 21.0909Z" fill="#C0C0C0"/>
<line x1="24" y1="1.5" x2="2" y2="1.5" stroke="#C0C0C0"/>
<path d="M6.10787 27.5455H6.30105L6.46298 27.7585L6.50559 27.8153L6.74707 28.1364H6.55389L6.3948 27.9233L6.35502 27.8693L6.10787 27.5455ZM6.80673 27.2727C6.80673 27.4261 6.77903 27.5587 6.72363 27.6705C6.66824 27.7822 6.59224 27.8684 6.49565 27.929C6.39906 27.9896 6.28874 28.0199 6.16468 28.0199C6.04063 28.0199 5.93031 27.9896 5.83372 27.929C5.73713 27.8684 5.66113 27.7822 5.60574 27.6705C5.55034 27.5587 5.52264 27.4261 5.52264 27.2727C5.52264 27.1193 5.55034 26.9867 5.60574 26.875C5.66113 26.7633 5.73713 26.6771 5.83372 26.6165C5.93031 26.5559 6.04063 26.5256 6.16468 26.5256C6.28874 26.5256 6.39906 26.5559 6.49565 26.6165C6.59224 26.6771 6.66824 26.7633 6.72363 26.875C6.77903 26.9867 6.80673 27.1193 6.80673 27.2727ZM6.63627 27.2727C6.63627 27.1468 6.6152 27.0405 6.57306 26.9538C6.5314 26.8672 6.47482 26.8016 6.40332 26.7571C6.3323 26.7126 6.25275 26.6903 6.16468 26.6903C6.07662 26.6903 5.99683 26.7126 5.92534 26.7571C5.85431 26.8016 5.79773 26.8672 5.75559 26.9538C5.71393 27.0405 5.69309 27.1468 5.69309 27.2727C5.69309 27.3987 5.71393 27.505 5.75559 27.5916C5.79773 27.6783 5.85431 27.7438 5.92534 27.7884C5.99683 27.8329 6.07662 27.8551 6.16468 27.8551C6.25275 27.8551 6.3323 27.8329 6.40332 27.7884C6.47482 27.7438 6.5314 27.6783 6.57306 27.5916C6.6152 27.505 6.63627 27.3987 6.63627 27.2727ZM8.05744 26.5455H8.23358V27.5085C8.23358 27.608 8.21014 27.6967 8.16326 27.7749C8.11686 27.8525 8.05128 27.9138 7.96653 27.9588C7.88178 28.0033 7.78234 28.0256 7.66824 28.0256C7.55413 28.0256 7.45469 28.0033 7.36994 27.9588C7.28519 27.9138 7.21937 27.8525 7.1725 27.7749C7.12609 27.6967 7.10289 27.608 7.10289 27.5085V26.5455H7.27903V27.4943C7.27903 27.5653 7.29466 27.6286 7.32591 27.6839C7.35716 27.7389 7.40166 27.7822 7.45943 27.8139C7.51767 27.8452 7.58727 27.8608 7.66824 27.8608C7.7492 27.8608 7.8188 27.8452 7.87704 27.8139C7.93528 27.7822 7.97979 27.7389 8.01056 27.6839C8.04181 27.6286 8.05744 27.5653 8.05744 27.4943V26.5455ZM8.64498 28H8.46032L8.99441 26.5455H9.17623L9.71032 28H9.52566L9.091 26.7756H9.07963L8.64498 28ZM8.71316 27.4318H9.45748V27.5881H8.71316V27.4318ZM9.93688 28V26.5455H10.113V27.8438H10.7892V28H9.93688ZM11.238 26.5455V28H11.0619V26.5455H11.238ZM11.5912 28V26.5455H12.4633V26.7017H11.7673V27.1932H12.398V27.3494H11.7673V28H11.5912ZM12.9411 26.5455V28H12.765V26.5455H12.9411ZM14.4648 27H14.2886C14.2782 26.9493 14.26 26.9048 14.2339 26.8665C14.2084 26.8281 14.1771 26.7959 14.1402 26.7699C14.1037 26.7434 14.0632 26.7235 14.0187 26.7102C13.9742 26.697 13.9278 26.6903 13.8795 26.6903C13.7915 26.6903 13.7117 26.7126 13.6402 26.7571C13.5692 26.8016 13.5126 26.8672 13.4704 26.9538C13.4288 27.0405 13.4079 27.1468 13.4079 27.2727C13.4079 27.3987 13.4288 27.505 13.4704 27.5916C13.5126 27.6783 13.5692 27.7438 13.6402 27.7884C13.7117 27.8329 13.7915 27.8551 13.8795 27.8551C13.9278 27.8551 13.9742 27.8485 14.0187 27.8352C14.0632 27.822 14.1037 27.8023 14.1402 27.7763C14.1771 27.7498 14.2084 27.7173 14.2339 27.679C14.26 27.6402 14.2782 27.5956 14.2886 27.5455H14.4648C14.4515 27.6198 14.4273 27.6863 14.3923 27.745C14.3573 27.8037 14.3137 27.8537 14.2616 27.8949C14.2095 27.9356 14.1511 27.9666 14.0862 27.9879C14.0218 28.0092 13.9529 28.0199 13.8795 28.0199C13.7555 28.0199 13.6452 27.9896 13.5486 27.929C13.452 27.8684 13.376 27.7822 13.3206 27.6705C13.2652 27.5587 13.2375 27.4261 13.2375 27.2727C13.2375 27.1193 13.2652 26.9867 13.3206 26.875C13.376 26.7633 13.452 26.6771 13.5486 26.6165C13.6452 26.5559 13.7555 26.5256 13.8795 26.5256C13.9529 26.5256 14.0218 26.5362 14.0862 26.5575C14.1511 26.5788 14.2095 26.6101 14.2616 26.6513C14.3137 26.692 14.3573 26.7417 14.3923 26.8004C14.4273 26.8587 14.4515 26.9252 14.4648 27ZM14.809 28H14.6244L15.1585 26.5455H15.3403L15.8744 28H15.6897L15.2551 26.7756H15.2437L14.809 28ZM14.8772 27.4318H15.6215V27.5881H14.8772V27.4318ZM15.8515 26.7017V26.5455H16.9424V26.7017H16.485V28H16.3089V26.7017H15.8515ZM17.3904 26.5455V28H17.2142V26.5455H17.3904ZM18.9708 27.2727C18.9708 27.4261 18.9431 27.5587 18.8877 27.6705C18.8323 27.7822 18.7563 27.8684 18.6597 27.929C18.5631 27.9896 18.4528 28.0199 18.3287 28.0199C18.2047 28.0199 18.0944 27.9896 17.9978 27.929C17.9012 27.8684 17.8252 27.7822 17.7698 27.6705C17.7144 27.5587 17.6867 27.4261 17.6867 27.2727C17.6867 27.1193 17.7144 26.9867 17.7698 26.875C17.8252 26.7633 17.9012 26.6771 17.9978 26.6165C18.0944 26.5559 18.2047 26.5256 18.3287 26.5256C18.4528 26.5256 18.5631 26.5559 18.6597 26.6165C18.7563 26.6771 18.8323 26.7633 18.8877 26.875C18.9431 26.9867 18.9708 27.1193 18.9708 27.2727ZM18.8003 27.2727C18.8003 27.1468 18.7793 27.0405 18.7371 26.9538C18.6955 26.8672 18.6389 26.8016 18.5674 26.7571C18.4964 26.7126 18.4168 26.6903 18.3287 26.6903C18.2407 26.6903 18.1609 26.7126 18.0894 26.7571C18.0184 26.8016 17.9618 26.8672 17.9197 26.9538C17.878 27.0405 17.8572 27.1468 17.8572 27.2727C17.8572 27.3987 17.878 27.505 17.9197 27.5916C17.9618 27.6783 18.0184 27.7438 18.0894 27.7884C18.1609 27.8329 18.2407 27.8551 18.3287 27.8551C18.4168 27.8551 18.4964 27.8329 18.5674 27.7884C18.6389 27.7438 18.6955 27.6783 18.7371 27.5916C18.7793 27.505 18.8003 27.3987 18.8003 27.2727ZM20.4204 26.5455V28H20.2499L19.4573 26.858H19.4431V28H19.267V26.5455H19.4374L20.2329 27.6903H20.2471V26.5455H20.4204Z" fill="#C0C0C0"/>
</svg>
