<svg width="26" height="46" viewBox="0 0 26 46" fill="none" xmlns="http://www.w3.org/2000/svg">
<path d="M13.0001 42L26 46H0L13.0001 42Z" fill="#404040"/>
<rect x="12" y="38" width="2" height="5" fill="#404040"/>
<path d="M2 0H24L25.7881 29.5044C25.9229 31.7274 25.0985 33.9015 23.5237 35.4763V35.4763C22.5267 36.4733 21.2774 37.1807 19.9094 37.5226L19.2308 37.6923C18.4133 37.8967 17.5739 38 16.7313 38H9.26866C8.42607 38 7.58665 37.8967 6.76922 37.6923L6.09055 37.5226C4.7226 37.1807 3.47332 36.4733 2.47626 35.4763V35.4763C0.901513 33.9015 0.0771271 31.7274 0.211852 29.5044L2 0Z" fill="#404040"/>
<path d="M5.00164 15L3.6096 9.90909H4.23602L5.29994 14.0554H5.34965L6.43346 9.90909H7.12948L8.21329 14.0554H8.26301L9.32693 9.90909H9.95335L8.5613 15H7.92494L6.80136 10.9432H6.76159L5.63801 15H5.00164ZM11.8376 15.0795C11.4929 15.0795 11.1904 14.9975 10.9303 14.8335C10.6717 14.6694 10.4696 14.4399 10.3237 14.1449C10.1796 13.8499 10.1075 13.5052 10.1075 13.1108C10.1075 12.7131 10.1796 12.3659 10.3237 12.0692C10.4696 11.7726 10.6717 11.5423 10.9303 11.3782C11.1904 11.2141 11.4929 11.1321 11.8376 11.1321C12.1823 11.1321 12.4839 11.2141 12.7424 11.3782C13.0026 11.5423 13.2048 11.7726 13.3489 12.0692C13.4948 12.3659 13.5677 12.7131 13.5677 13.1108C13.5677 13.5052 13.4948 13.8499 13.3489 14.1449C13.2048 14.4399 13.0026 14.6694 12.7424 14.8335C12.4839 14.9975 12.1823 15.0795 11.8376 15.0795ZM11.8376 14.5526C12.0994 14.5526 12.3149 14.4854 12.4839 14.3512C12.6529 14.217 12.778 14.0405 12.8592 13.8217C12.9404 13.603 12.981 13.366 12.981 13.1108C12.981 12.8556 12.9404 12.6178 12.8592 12.3974C12.778 12.177 12.6529 11.9988 12.4839 11.8629C12.3149 11.727 12.0994 11.6591 11.8376 11.6591C11.5757 11.6591 11.3603 11.727 11.1913 11.8629C11.0222 11.9988 10.8971 12.177 10.8159 12.3974C10.7347 12.6178 10.6941 12.8556 10.6941 13.1108C10.6941 13.366 10.7347 13.603 10.8159 13.8217C10.8971 14.0405 11.0222 14.217 11.1913 14.3512C11.3603 14.4854 11.5757 14.5526 11.8376 14.5526ZM14.4632 15V11.1818H15.03V11.7585H15.0697C15.1393 11.5696 15.2653 11.4163 15.4476 11.2987C15.6299 11.181 15.8354 11.1222 16.0641 11.1222C16.1071 11.1222 16.161 11.123 16.2256 11.1246C16.2903 11.1263 16.3391 11.1288 16.3723 11.1321V11.7287C16.3524 11.7237 16.3068 11.7163 16.2356 11.7063C16.166 11.6947 16.0922 11.6889 16.0143 11.6889C15.8287 11.6889 15.663 11.7279 15.5172 11.8058C15.373 11.882 15.2587 11.988 15.1741 12.1239C15.0913 12.2582 15.0498 12.4115 15.0498 12.5838V15H14.4632ZM17.6543 9.90909V15H17.0677V9.90909H17.6543ZM20.1706 15.0795C19.8524 15.0795 19.5715 14.9992 19.3279 14.8384C19.0843 14.676 18.8937 14.4473 18.7562 14.1523C18.6186 13.8557 18.5498 13.5052 18.5498 13.1009C18.5498 12.6998 18.6186 12.3518 18.7562 12.0568C18.8937 11.7618 19.0851 11.534 19.3304 11.3732C19.5757 11.2125 19.859 11.1321 20.1805 11.1321C20.4291 11.1321 20.6255 11.1735 20.7697 11.2564C20.9155 11.3376 21.0265 11.4304 21.1028 11.5348C21.1806 11.6375 21.2411 11.7221 21.2842 11.7884H21.3339V9.90909H21.9206V15H21.3538V14.4134H21.2842C21.2411 14.483 21.1798 14.5708 21.1003 14.6768C21.0207 14.7812 20.9072 14.8749 20.7597 14.9577C20.6122 15.0389 20.4159 15.0795 20.1706 15.0795ZM20.2501 14.5526C20.4855 14.5526 20.6843 14.4912 20.8467 14.3686C21.0091 14.2443 21.1326 14.0728 21.2171 13.854C21.3016 13.6336 21.3439 13.3793 21.3439 13.0909C21.3439 12.8059 21.3025 12.5565 21.2196 12.3427C21.1367 12.1272 21.0141 11.9599 20.8517 11.8406C20.6893 11.7196 20.4888 11.6591 20.2501 11.6591C20.0016 11.6591 19.7944 11.7229 19.6287 11.8505C19.4646 11.9764 19.3412 12.148 19.2583 12.3651C19.1771 12.5805 19.1365 12.8224 19.1365 13.0909C19.1365 13.3627 19.1779 13.6096 19.2608 13.8317C19.3453 14.0521 19.4696 14.2277 19.6337 14.3587C19.7994 14.4879 20.0049 14.5526 20.2501 14.5526ZM11.0002 19.5H10.3837C10.3472 19.3227 10.2834 19.1669 10.1923 19.0327C10.1028 18.8984 9.99343 18.7857 9.86417 18.6946C9.73656 18.6018 9.59487 18.5322 9.4391 18.4858C9.28332 18.4394 9.12092 18.4162 8.95188 18.4162C8.64364 18.4162 8.36441 18.4941 8.11417 18.6499C7.86559 18.8056 7.66755 19.0352 7.52006 19.3384C7.37423 19.6417 7.30131 20.0137 7.30131 20.4545C7.30131 20.8954 7.37423 21.2674 7.52006 21.5707C7.66755 21.8739 7.86559 22.1035 8.11417 22.2592C8.36441 22.415 8.64364 22.4929 8.95188 22.4929C9.12092 22.4929 9.28332 22.4697 9.4391 22.4233C9.59487 22.3769 9.73656 22.3081 9.86417 22.217C9.99343 22.1242 10.1028 22.0107 10.1923 21.8764C10.2834 21.7405 10.3472 21.5848 10.3837 21.4091H11.0002C10.9538 21.6693 10.8693 21.9021 10.7466 22.1076C10.624 22.3131 10.4715 22.4879 10.2892 22.6321C10.1069 22.7746 9.90228 22.8832 9.67525 22.9577C9.44987 23.0323 9.20875 23.0696 8.95188 23.0696C8.5177 23.0696 8.13157 22.9635 7.7935 22.7514C7.45543 22.5393 7.18945 22.2377 6.99556 21.8466C6.80167 21.4555 6.70472 20.9915 6.70472 20.4545C6.70472 19.9176 6.80167 19.4536 6.99556 19.0625C7.18945 18.6714 7.45543 18.3698 7.7935 18.1577C8.13157 17.9455 8.5177 17.8395 8.95188 17.8395C9.20875 17.8395 9.44987 17.8768 9.67525 17.9513C9.90228 18.0259 10.1069 18.1353 10.2892 18.2795C10.4715 18.422 10.624 18.596 10.7466 18.8015C10.8693 19.0053 10.9538 19.2382 11.0002 19.5ZM14.3231 21.4389V19.1818H14.9097V23H14.3231V22.3537H14.2833C14.1938 22.5476 14.0546 22.7125 13.8657 22.8484C13.6768 22.9826 13.4381 23.0497 13.1498 23.0497C12.9111 23.0497 12.699 22.9975 12.5134 22.8931C12.3278 22.7871 12.182 22.628 12.0759 22.4158C11.9698 22.2021 11.9168 21.9328 11.9168 21.608V19.1818H12.5035V21.5682C12.5035 21.8466 12.5814 22.0687 12.7371 22.2344C12.8946 22.4001 13.0951 22.483 13.3387 22.483C13.4845 22.483 13.6328 22.4457 13.7836 22.3711C13.9361 22.2965 14.0637 22.1822 14.1665 22.0281C14.2709 21.8739 14.3231 21.6776 14.3231 21.4389ZM15.9842 24.4318V19.1818H16.551V19.7884H16.6206C16.6636 19.7221 16.7233 19.6375 16.7995 19.5348C16.8774 19.4304 16.9885 19.3376 17.1326 19.2564C17.2785 19.1735 17.4757 19.1321 17.7243 19.1321C18.0458 19.1321 18.3291 19.2125 18.5744 19.3732C18.8197 19.534 19.0111 19.7618 19.1486 20.0568C19.2862 20.3518 19.3549 20.6998 19.3549 21.1009C19.3549 21.5052 19.2862 21.8557 19.1486 22.1523C19.0111 22.4473 18.8205 22.676 18.5769 22.8384C18.3333 22.9992 18.0524 23.0795 17.7342 23.0795C17.4889 23.0795 17.2926 23.0389 17.1451 22.9577C16.9976 22.8749 16.8841 22.7812 16.8045 22.6768C16.725 22.5708 16.6636 22.483 16.6206 22.4134H16.5708V24.4318H15.9842ZM16.5609 21.0909C16.5609 21.3793 16.6032 21.6336 16.6877 21.854C16.7722 22.0728 16.8957 22.2443 17.0581 22.3686C17.2205 22.4912 17.4193 22.5526 17.6547 22.5526C17.8999 22.5526 18.1046 22.4879 18.2686 22.3587C18.4344 22.2277 18.5587 22.0521 18.6415 21.8317C18.726 21.6096 18.7683 21.3627 18.7683 21.0909C18.7683 20.8224 18.7269 20.5805 18.644 20.3651C18.5628 20.148 18.4393 19.9764 18.2736 19.8505C18.1096 19.7229 17.9032 19.6591 17.6547 19.6591C17.416 19.6591 17.2155 19.7196 17.0531 19.8406C16.8907 19.9599 16.7681 20.1272 16.6852 20.3427C16.6023 20.5565 16.5609 20.8059 16.5609 21.0909Z" fill="#DAB700"/>
<line x1="24" y1="1.5" x2="2" y2="1.5" stroke="#DAB700"/>
<path d="M6.62198 27H6.44585C6.43543 26.9493 6.4172 26.9048 6.39116 26.8665C6.36559 26.8281 6.33434 26.7959 6.29741 26.7699C6.26095 26.7434 6.22047 26.7235 6.17596 26.7102C6.13145 26.697 6.08505 26.6903 6.03675 26.6903C5.94869 26.6903 5.8689 26.7126 5.79741 26.7571C5.72638 26.8016 5.6698 26.8672 5.62766 26.9538C5.586 27.0405 5.56516 27.1468 5.56516 27.2727C5.56516 27.3987 5.586 27.505 5.62766 27.5916C5.6698 27.6783 5.72638 27.7438 5.79741 27.7884C5.8689 27.8329 5.94869 27.8551 6.03675 27.8551C6.08505 27.8551 6.13145 27.8485 6.17596 27.8352C6.22047 27.822 6.26095 27.8023 6.29741 27.7763C6.33434 27.7498 6.36559 27.7173 6.39116 27.679C6.4172 27.6402 6.43543 27.5956 6.44585 27.5455H6.62198C6.60872 27.6198 6.58458 27.6863 6.54954 27.745C6.5145 27.8037 6.47094 27.8537 6.41886 27.8949C6.36677 27.9356 6.3083 27.9666 6.24343 27.9879C6.17904 28.0092 6.11014 28.0199 6.03675 28.0199C5.9127 28.0199 5.80238 27.9896 5.70579 27.929C5.6092 27.8684 5.5332 27.7822 5.47781 27.6705C5.42241 27.5587 5.39471 27.4261 5.39471 27.2727C5.39471 27.1193 5.42241 26.9867 5.47781 26.875C5.5332 26.7633 5.6092 26.6771 5.70579 26.6165C5.80238 26.5559 5.9127 26.5256 6.03675 26.5256C6.11014 26.5256 6.17904 26.5362 6.24343 26.5575C6.3083 26.5788 6.36677 26.6101 6.41886 26.6513C6.47094 26.692 6.5145 26.7417 6.54954 26.8004C6.58458 26.8587 6.60872 26.9252 6.62198 27ZM6.90661 28V26.5455H7.08274V27.1932H7.85831V26.5455H8.03445V28H7.85831V27.3494H7.08274V28H6.90661ZM8.44673 28H8.26207L8.79616 26.5455H8.97798L9.51207 28H9.32741L8.89276 26.7756H8.88139L8.44673 28ZM8.51491 27.4318H9.25923V27.5881H8.51491V27.4318ZM9.73864 26.5455H9.94886L10.4432 27.7528H10.4602L10.9545 26.5455H11.1648V28H11V26.8949H10.9858L10.5312 28H10.3722L9.91761 26.8949H9.90341V28H9.73864V26.5455ZM11.5179 28V26.5455H12.0094C12.1235 26.5455 12.2168 26.5661 12.2892 26.6072C12.3622 26.648 12.4161 26.7031 12.4512 26.7727C12.4862 26.8423 12.5037 26.92 12.5037 27.0057C12.5037 27.0914 12.4862 27.1693 12.4512 27.2393C12.4166 27.3094 12.3631 27.3653 12.2907 27.407C12.2182 27.4482 12.1254 27.4688 12.0123 27.4688H11.66V27.3125H12.0066C12.0847 27.3125 12.1474 27.299 12.1948 27.272C12.2421 27.245 12.2765 27.2086 12.2978 27.1626C12.3195 27.1162 12.3304 27.0639 12.3304 27.0057C12.3304 26.9474 12.3195 26.8954 12.2978 26.8494C12.2765 26.8035 12.2419 26.7675 12.1941 26.7415C12.1462 26.715 12.0828 26.7017 12.0037 26.7017H11.6941V28H11.5179ZM12.9636 26.5455V28H12.7875V26.5455H12.9636ZM14.544 27.2727C14.544 27.4261 14.5163 27.5587 14.4609 27.6705C14.4055 27.7822 14.3295 27.8684 14.233 27.929C14.1364 27.9896 14.026 28.0199 13.902 28.0199C13.7779 28.0199 13.6676 27.9896 13.571 27.929C13.4744 27.8684 13.3984 27.7822 13.343 27.6705C13.2876 27.5587 13.2599 27.4261 13.2599 27.2727C13.2599 27.1193 13.2876 26.9867 13.343 26.875C13.3984 26.7633 13.4744 26.6771 13.571 26.6165C13.6676 26.5559 13.7779 26.5256 13.902 26.5256C14.026 26.5256 14.1364 26.5559 14.233 26.6165C14.3295 26.6771 14.4055 26.7633 14.4609 26.875C14.5163 26.9867 14.544 27.1193 14.544 27.2727ZM14.3736 27.2727C14.3736 27.1468 14.3525 27.0405 14.3104 26.9538C14.2687 26.8672 14.2121 26.8016 14.1406 26.7571C14.0696 26.7126 13.9901 26.6903 13.902 26.6903C13.8139 26.6903 13.7341 26.7126 13.6626 26.7571C13.5916 26.8016 13.535 26.8672 13.4929 26.9538C13.4512 27.0405 13.4304 27.1468 13.4304 27.2727C13.4304 27.3987 13.4512 27.505 13.4929 27.5916C13.535 27.6783 13.5916 27.7438 13.6626 27.7884C13.7341 27.8329 13.8139 27.8551 13.902 27.8551C13.9901 27.8551 14.0696 27.8329 14.1406 27.7884C14.2121 27.7438 14.2687 27.6783 14.3104 27.5916C14.3525 27.505 14.3736 27.3987 14.3736 27.2727ZM15.9936 26.5455V28H15.8232L15.0305 26.858H15.0163V28H14.8402V26.5455H15.0107L15.8061 27.6903H15.8203V26.5455H15.9936ZM17.1415 26.9091C17.133 26.8371 17.0984 26.7812 17.0378 26.7415C16.9772 26.7017 16.9029 26.6818 16.8148 26.6818C16.7504 26.6818 16.6941 26.6922 16.6458 26.7131C16.598 26.7339 16.5605 26.7625 16.5336 26.799C16.507 26.8355 16.4938 26.8769 16.4938 26.9233C16.4938 26.9621 16.503 26.9955 16.5215 27.0234C16.5404 27.0509 16.5646 27.0739 16.5939 27.0923C16.6233 27.1103 16.6541 27.1252 16.6863 27.1371C16.7185 27.1484 16.748 27.1577 16.775 27.1648L16.9228 27.2045C16.9606 27.2145 17.0028 27.2282 17.0492 27.2457C17.0961 27.2633 17.1408 27.2872 17.1834 27.3175C17.2265 27.3473 17.262 27.3857 17.29 27.4325C17.3179 27.4794 17.3319 27.5369 17.3319 27.6051C17.3319 27.6837 17.3113 27.7547 17.2701 27.8182C17.2293 27.8816 17.1697 27.9321 17.0911 27.9695C17.013 28.0069 16.918 28.0256 16.8063 28.0256C16.7021 28.0256 16.6119 28.0088 16.5357 27.9751C16.4599 27.9415 16.4003 27.8946 16.3567 27.8345C16.3136 27.7744 16.2892 27.7045 16.2836 27.625H16.4654C16.4701 27.6799 16.4886 27.7254 16.5208 27.7614C16.5534 27.7969 16.5946 27.8234 16.6444 27.8409C16.6945 27.858 16.7485 27.8665 16.8063 27.8665C16.8735 27.8665 16.9339 27.8556 16.9874 27.8338C17.0409 27.8116 17.0833 27.7808 17.1145 27.7415C17.1458 27.7017 17.1614 27.6553 17.1614 27.6023C17.1614 27.554 17.1479 27.5147 17.1209 27.4844C17.0939 27.4541 17.0584 27.4295 17.0144 27.4105C16.9703 27.3916 16.9228 27.375 16.8716 27.3608L16.6926 27.3097C16.579 27.277 16.4891 27.2304 16.4228 27.1697C16.3565 27.1091 16.3233 27.0298 16.3233 26.9318C16.3233 26.8504 16.3453 26.7794 16.3894 26.7188C16.4339 26.6577 16.4935 26.6103 16.5684 26.5767C16.6436 26.5426 16.7277 26.5256 16.8205 26.5256C16.9142 26.5256 16.9976 26.5424 17.0705 26.576C17.1434 26.6091 17.2012 26.6546 17.2438 26.7124C17.2869 26.7701 17.3096 26.8357 17.312 26.9091H17.1415ZM17.6214 28V26.5455H17.7976V27.1932H18.5732V26.5455H18.7493V28H18.5732V27.3494H17.7976V28H17.6214ZM19.2781 26.5455V28H19.1019V26.5455H19.2781ZM19.6312 28V26.5455H20.1227C20.2368 26.5455 20.3301 26.5661 20.4025 26.6072C20.4754 26.648 20.5294 26.7031 20.5645 26.7727C20.5995 26.8423 20.617 26.92 20.617 27.0057C20.617 27.0914 20.5995 27.1693 20.5645 27.2393C20.5299 27.3094 20.4764 27.3653 20.4039 27.407C20.3315 27.4482 20.2387 27.4688 20.1255 27.4688H19.7733V27.3125H20.1199C20.198 27.3125 20.2607 27.299 20.3081 27.272C20.3554 27.245 20.3897 27.2086 20.411 27.1626C20.4328 27.1162 20.4437 27.0639 20.4437 27.0057C20.4437 26.9474 20.4328 26.8954 20.411 26.8494C20.3897 26.8035 20.3552 26.7675 20.3074 26.7415C20.2595 26.715 20.1961 26.7017 20.117 26.7017H19.8074V28H19.6312Z" fill="#DAB700"/>
</svg>
