<svg width="30" height="30" viewBox="0 0 30 30" fill="none" xmlns="http://www.w3.org/2000/svg">
<rect width="30" height="30" rx="15" fill="url(#paint0_linear_1639_314)"/>
<path d="M6.664 11.56L6.688 11.536H6.784C7.104 11.5573 7.56267 11.5627 8.16 11.552C8.544 11.5413 8.73333 11.536 8.728 11.536H8.808L8.832 11.56C8.85333 11.5813 8.864 11.6 8.864 11.616L8.784 11.928V11.936C8.77333 11.968 8.70667 11.984 8.584 11.984L8.392 12C8.33333 12.0107 8.288 12.024 8.256 12.04C8.25067 12.0453 8.352 12.4107 8.56 13.136L8.88 14.232L10.432 12.264C10.5067 12.1413 10.504 12.0613 10.424 12.024C10.3813 11.9973 10.3173 11.984 10.232 11.984C10.2 11.984 10.176 11.976 10.16 11.96C10.128 11.9387 10.128 11.864 10.16 11.736C10.192 11.6347 10.2107 11.5813 10.216 11.576C10.232 11.5493 10.2987 11.5387 10.416 11.544C10.4267 11.544 10.4453 11.544 10.472 11.544C11.0853 11.5653 11.5547 11.5627 11.88 11.536C11.9227 11.536 11.952 11.5413 11.968 11.552C12 11.584 12 11.656 11.968 11.768C11.952 11.848 11.936 11.904 11.92 11.936C11.904 11.968 11.864 11.984 11.8 11.984C11.6347 11.984 11.472 12.0107 11.312 12.064C11.1573 12.1173 11.0213 12.2053 10.904 12.328C10.856 12.376 10.5147 12.8053 9.88 13.616L8.936 14.816L8.728 15.632C8.58933 16.1867 8.52 16.4667 8.52 16.472C8.51467 16.504 8.528 16.5227 8.56 16.528C8.608 16.544 8.75733 16.552 9.008 16.552C9.13067 16.552 9.20267 16.5707 9.224 16.608C9.22933 16.6293 9.22133 16.6907 9.2 16.792C9.17333 16.8933 9.14933 16.9547 9.128 16.976L9.104 17H9C8.53067 16.9787 8.03733 16.9733 7.52 16.984C7.14667 16.9947 6.96267 17 6.968 17H6.888L6.864 16.976C6.84267 16.9547 6.832 16.9333 6.832 16.912C6.832 16.8267 6.85867 16.7227 6.912 16.6C6.976 16.568 7.07733 16.552 7.216 16.552C7.44533 16.5467 7.58133 16.536 7.624 16.52C7.66133 16.504 7.688 16.472 7.704 16.424L7.912 15.592L8.104 14.808L7.712 13.432C7.44533 12.52 7.29867 12.0507 7.272 12.024C7.272 12.0187 7.256 12.0133 7.224 12.008C7.16 11.992 7.01333 11.984 6.784 11.984C6.66133 11.984 6.592 11.9653 6.576 11.928C6.56533 11.912 6.57333 11.8507 6.6 11.744C6.632 11.632 6.65333 11.5707 6.664 11.56ZM13.3133 13.472C13.324 13.4667 13.38 13.464 13.4813 13.464C13.6253 13.4693 13.7533 13.4907 13.8653 13.528C14.308 13.6773 14.5826 14 14.6893 14.496C14.7 14.56 14.7053 14.6613 14.7053 14.8C14.7106 14.976 14.6946 15.136 14.6573 15.28C14.5826 15.5787 14.4546 15.856 14.2733 16.112C13.9426 16.576 13.5293 16.88 13.0333 17.024C12.9 17.0613 12.7693 17.0827 12.6413 17.088C12.1826 17.104 11.8306 16.9387 11.5853 16.592C11.5533 16.5547 11.5266 16.5147 11.5053 16.472C11.2493 16.0133 11.2573 15.4747 11.5293 14.856C11.6573 14.5787 11.828 14.3333 12.0413 14.12C12.244 13.9173 12.4546 13.7653 12.6733 13.664C12.8866 13.5573 13.1 13.4933 13.3133 13.472ZM13.5613 13.856C13.4493 13.84 13.3586 13.8373 13.2893 13.848C13.028 13.896 12.812 14.024 12.6413 14.232C12.4866 14.4187 12.3533 14.7307 12.2413 15.168C12.2306 15.2053 12.22 15.2427 12.2093 15.28C12.124 15.632 12.0813 15.8933 12.0813 16.064C12.0813 16.176 12.0866 16.2507 12.0973 16.288C12.1613 16.5387 12.316 16.6773 12.5613 16.704C12.668 16.7147 12.78 16.7013 12.8973 16.664C13.18 16.5733 13.404 16.368 13.5693 16.048C13.66 15.8827 13.7506 15.6107 13.8413 15.232C13.9586 14.768 13.9906 14.4373 13.9373 14.24C13.884 14.0427 13.7586 13.9147 13.5613 13.856ZM15.7672 13.48C15.8046 13.4693 15.8632 13.464 15.9432 13.464C16.0659 13.4693 16.1726 13.496 16.2632 13.544C16.3326 13.5813 16.3859 13.6213 16.4232 13.664C16.4659 13.7013 16.5059 13.7547 16.5432 13.824C16.5912 13.9253 16.6126 14.032 16.6072 14.144C16.6072 14.2507 16.5726 14.3973 16.5032 14.584C16.4979 14.6107 16.4872 14.6427 16.4712 14.68C16.2099 15.4053 16.0792 15.9013 16.0792 16.168C16.0792 16.1893 16.0792 16.208 16.0792 16.224C16.0846 16.4053 16.1272 16.5387 16.2072 16.624C16.2659 16.6773 16.3459 16.704 16.4472 16.704C16.5539 16.704 16.6472 16.6827 16.7272 16.64C16.8659 16.5707 16.9859 16.4587 17.0872 16.304L17.1352 16.224L17.4312 15.04C17.6392 14.2133 17.7592 13.776 17.7912 13.728C17.7966 13.7173 17.8099 13.7013 17.8312 13.68C17.9486 13.5627 18.0819 13.5227 18.2312 13.56C18.3593 13.6027 18.4286 13.6853 18.4392 13.808C18.4392 13.8507 18.3432 14.2613 18.1512 15.04C17.9646 15.7707 17.8606 16.192 17.8393 16.304C17.8179 16.4533 17.8152 16.5573 17.8312 16.616C17.8419 16.6373 17.8552 16.6587 17.8712 16.68C17.8873 16.6907 17.9139 16.7013 17.9513 16.712C17.9832 16.712 18.0099 16.704 18.0312 16.688C18.1432 16.6187 18.2499 16.3733 18.3513 15.952C18.3833 15.8453 18.4099 15.7893 18.4313 15.784C18.4472 15.7787 18.5059 15.776 18.6073 15.776C18.7246 15.776 18.7912 15.7813 18.8073 15.792C18.8179 15.8027 18.8232 15.824 18.8232 15.856C18.8232 15.9307 18.7806 16.0827 18.6953 16.312C18.6312 16.488 18.5646 16.624 18.4953 16.72C18.3459 16.9493 18.1592 17.072 17.9353 17.088C17.6633 17.0987 17.4473 17.0053 17.2873 16.808L17.2313 16.736C17.2206 16.72 17.2153 16.7093 17.2153 16.704L17.1593 16.76C16.9619 16.9413 16.7459 17.048 16.5113 17.08C16.2819 17.1067 16.0739 17.0773 15.8872 16.992C15.6259 16.88 15.4632 16.6693 15.3992 16.36C15.3779 16.2213 15.3779 16.056 15.3992 15.864C15.4046 15.848 15.4072 15.8347 15.4072 15.824C15.4499 15.5573 15.5752 15.1493 15.7832 14.6C15.8792 14.3173 15.9326 14.136 15.9432 14.056C15.9699 13.9333 15.9566 13.864 15.9032 13.848C15.8392 13.8267 15.7646 13.84 15.6792 13.888C15.5672 13.9573 15.4792 14.0667 15.4152 14.216C15.3619 14.312 15.3032 14.4747 15.2392 14.704C15.2232 14.736 15.2126 14.7547 15.2072 14.76C15.1966 14.7707 15.1326 14.776 15.0152 14.776H14.8392L14.8152 14.752C14.7992 14.736 14.7912 14.7147 14.7912 14.688C14.8019 14.6027 14.8472 14.4693 14.9272 14.288C14.9912 14.1493 15.0579 14.0347 15.1272 13.944C15.1966 13.848 15.2846 13.752 15.3912 13.656C15.5086 13.5653 15.6339 13.5067 15.7672 13.48ZM20.2721 12.008C20.3468 11.9813 20.4241 11.984 20.5041 12.016C20.5735 12.0427 20.6241 12.088 20.6561 12.152C20.6828 12.2107 20.6748 12.3227 20.6321 12.488C20.6161 12.5573 20.5815 12.704 20.5281 12.928C20.4161 13.3387 20.3628 13.5413 20.3681 13.536C20.3681 13.5467 20.4828 13.552 20.7121 13.552H21.0561L21.0801 13.576C21.1121 13.5973 21.1121 13.6667 21.0801 13.784C21.0641 13.864 21.0481 13.92 21.0321 13.952C21.0161 13.9787 20.9655 13.9947 20.8801 14C20.8428 14 20.7548 14 20.6161 14H20.2561L20.2481 14.032C19.8908 15.424 19.7041 16.1813 19.6881 16.304C19.6775 16.368 19.6721 16.4267 19.6721 16.48C19.6721 16.6293 19.7148 16.7067 19.8001 16.712C19.8321 16.712 19.8695 16.7067 19.9121 16.696C19.9868 16.6907 20.0668 16.6533 20.1521 16.584C20.3388 16.44 20.4935 16.208 20.6161 15.888C20.6428 15.824 20.6721 15.7893 20.7041 15.784C20.7201 15.7787 20.7735 15.776 20.8641 15.776C20.9815 15.776 21.0455 15.7813 21.0561 15.792C21.0881 15.8187 21.0881 15.872 21.0561 15.952C20.9548 16.1973 20.8348 16.4 20.6961 16.56C20.4828 16.832 20.2375 17 19.9601 17.064C19.9175 17.0747 19.8481 17.08 19.7521 17.08C19.6561 17.08 19.5895 17.0747 19.5521 17.064C19.4028 17.0213 19.2828 16.9573 19.1921 16.872C19.1068 16.7867 19.0455 16.6827 19.0081 16.56C18.9975 16.5173 18.9921 16.4453 18.9921 16.344V16.192L19.2641 15.104C19.4455 14.3893 19.5361 14.024 19.5361 14.008C19.5361 14.0027 19.4241 14 19.2001 14C18.9655 14 18.8375 13.9813 18.8161 13.944C18.8055 13.928 18.8108 13.8693 18.8321 13.768C18.8641 13.6613 18.8828 13.6053 18.8881 13.6C18.9041 13.568 18.9601 13.552 19.0561 13.552C19.0935 13.552 19.1735 13.552 19.2961 13.552H19.6561L19.8081 12.928C19.9095 12.5173 19.9735 12.2853 20.0001 12.232C20.0481 12.1253 20.1388 12.0507 20.2721 12.008ZM22.2084 11.496C22.6244 11.464 22.8297 11.448 22.8244 11.448C22.8724 11.448 22.9044 11.4667 22.9204 11.504C22.931 11.5307 22.8404 11.92 22.6484 12.672L22.3604 13.808L22.3844 13.792C22.4964 13.7067 22.5977 13.6427 22.6884 13.6C22.8537 13.52 23.0377 13.4747 23.2404 13.464C23.5337 13.4533 23.7684 13.52 23.9444 13.664C24.0617 13.7547 24.1444 13.888 24.1924 14.064C24.203 14.112 24.2084 14.2 24.2084 14.328C24.2084 14.4667 24.2057 14.5547 24.2004 14.592C24.1417 14.896 23.9977 15.368 23.7684 16.008C23.683 16.2373 23.6324 16.3947 23.6164 16.48C23.6004 16.6133 23.6164 16.688 23.6644 16.704C23.7284 16.7253 23.803 16.712 23.8884 16.664C24.0537 16.5627 24.1924 16.3147 24.3044 15.92C24.331 15.8347 24.3577 15.7893 24.3844 15.784C24.4004 15.7787 24.4564 15.776 24.5524 15.776C24.6697 15.776 24.7337 15.7813 24.7444 15.792C24.7764 15.8133 24.7764 15.8693 24.7444 15.96C24.6857 16.168 24.5977 16.3627 24.4804 16.544C24.267 16.864 24.0244 17.0427 23.7524 17.08C23.6564 17.1013 23.5577 17.096 23.4564 17.064C23.3017 17.032 23.1844 16.96 23.1044 16.848C23.003 16.7253 22.9524 16.5813 22.9524 16.416C22.9524 16.3147 22.9924 16.1493 23.0724 15.92C23.3337 15.216 23.4804 14.7173 23.5124 14.424C23.5337 14.296 23.531 14.176 23.5044 14.064C23.467 13.9573 23.4137 13.8907 23.3444 13.864C23.291 13.8373 23.2084 13.832 23.0964 13.848C22.7444 13.9013 22.4404 14.168 22.1844 14.648L22.1284 14.752L21.8724 15.768C21.7017 16.4507 21.6057 16.8107 21.5844 16.848C21.4937 16.992 21.3684 17.072 21.2084 17.088C21.0537 17.088 20.9577 17.024 20.9204 16.896C20.9097 16.8693 20.9044 16.8453 20.9044 16.824C20.9044 16.7867 21.0937 16.008 21.4724 14.488C21.867 12.9093 22.0537 12.096 22.0324 12.048C21.995 12.0107 21.8804 11.9893 21.6884 11.984C21.5604 11.984 21.4857 11.9653 21.4644 11.928L21.4564 11.904L21.4964 11.744C21.5177 11.6427 21.539 11.5813 21.5604 11.56C21.5764 11.544 21.5924 11.536 21.6084 11.536L22.2084 11.496Z" fill="white"/>
<defs>
<linearGradient id="paint0_linear_1639_314" x1="3" y1="3" x2="29" y2="25.5" gradientUnits="userSpaceOnUse">
<stop stop-color="#00D588"/>
<stop offset="0.308333" stop-color="#005CC9"/>
<stop offset="0.5375" stop-color="#243AAF"/>
<stop offset="0.745833" stop-color="#582AA2"/>
<stop offset="1" stop-color="#C400D5"/>
</linearGradient>
</defs>
</svg>
